<?xml version="1.0" encoding="UTF-8"?>
<svg xmlns="http://www.w3.org/2000/svg" width="157" height="148" viewBox="0 0 157 148">
  <g fill="none" fill-rule="evenodd">
    <path fill="#FFF" d="M87.7698966,2.97225771 C78.3814217,3.02480396 68.4320301,5.81449121 62.9268448,10.5738691 C57.3822365,16.8114211 57.2668782,21.8796471 57.2668782,21.8796471 C57.2668782,21.8796471 52.5882512,21.2820856 46.92802,22.5555781 C41.2677888,23.8290706 26.4243994,28.013112 12.5626142,48.3110984 C-1.29890648,68.6091113 0.462424745,80.824368 0.0290372507,91.0123608 C-0.40408566,101.200327 4.04303095,112.098223 11.0319996,112.688059 C25.2258369,113.885934 47.5807471,115.585987 60.2489969,109.828786 C66.8992989,106.379969 70.0973176,102.918134 70.0973176,102.918134 L66.3412927,97.2574799 C63.1152281,92.3956553 66.2645635,83.6076788 66.8765447,79.7536257 C67.4882614,75.8995726 70.9040322,69.4073327 77.1492571,66.3332713 C77.1492571,66.3332713 80.6930862,67.4343613 86.7597174,67.3884825 C92.8266132,67.3426038 99.0715735,63.9700924 99.0715735,63.9700924 L102.309015,80.8543453 L98.2812631,87.0715244 L101.595434,99.9182886 C101.595434,99.9182886 101.926957,105.401117 101.824828,109.140473 C101.722963,112.879829 107.228678,113.751552 107.228678,113.751552 C107.228678,113.751552 93.3362007,114.646452 89.181184,116.41289 C85.0261674,118.179327 85.3942028,119.731029 85.3942028,119.731029 L86.1741945,128.619389 L110.25895,146.292708 L153.519383,139.561338 L151.757787,128.80129 L136.654313,118.769322 L138.964125,107.048095 C138.964125,107.048095 146.154971,104.630967 146.097027,101.122354 C146.039348,97.6137148 140.350542,96.106119 140.350542,96.106119 C140.350542,96.106119 138.531002,90.6224972 135.700754,90.3106064 C132.870771,89.9987156 122.849942,87.6337639 122.849942,87.6337639 C122.849942,87.6337639 123.485471,81.6821207 122.185838,78.7712543 C120.886204,75.8604143 111.327603,75.4965328 111.327603,75.4965328 L106.99558,55.6920473 C106.99558,55.6920473 116.150427,44.0229964 116.785692,33.0293473 C117.421221,22.0356718 114.041698,11.6137874 102.981321,5.99999059 C98.8337131,3.89483332 93.4028757,2.94074583 87.7698966,2.97225771 Z"/>
    <path fill="#030303" fill-rule="nonzero" d="M106.355817,146.017489 C103.256488,143.201264 92.8334923,137.409006 86.1485299,130.229272 C83.457982,127.266468 82.5459633,124.403147 83.5743987,122.146252 C83.9257654,121.374727 83.838982,121.162002 82.7806487,120.199712 C81.4640821,119.002737 81.1333529,118.920981 79.8921925,119.486395 C79.1336321,119.832206 79.0600779,120.043872 79.2167113,121.4332 C79.3614383,122.717487 79.2601029,123.106689 78.6401842,123.644322 C78.2266404,124.003097 77.8882384,124.693131 77.8882384,125.177847 C77.8882384,126.652106 76.6224717,127.915756 75.1283696,127.932954 C73.9970113,127.946183 73.6586092,128.171872 72.4825363,129.696931 C71.078128,131.518058 70.8873634,131.591083 67.8936031,131.450854 C65.8467864,131.355339 64.7821031,130.769816 61.4459719,127.905966 C57.4330365,124.461091 55.5687824,121.734825 55.165822,118.722014 C55.0472886,117.835925 54.6464449,116.248425 54.2747053,115.194325 L53.5989595,113.277683 L42.9013263,113.377166 C29.1226202,113.505225 23.3039036,112.417258 17.9159287,110.961256 C7.54108716,108.157996 4.89181427,97.1457728 6.91481841,87.7014708 C7.34952883,85.6718521 10.45706,78.9969438 11.6400121,77.4708272 C12.0162496,76.9858459 13.0661163,75.4515272 13.9733725,74.0611418 C16.7221287,69.8489752 25.8997307,60.0548941 28.4431702,58.6197941 C29.0429806,58.281392 33.2517077,54.7703712 35.6755556,52.5865004 C37.1215035,51.2839567 38.185393,51.06594 39.2601305,51.8517525 C40.896843,53.0484629 38.1930659,56.6878066 32.5473868,60.8875378 C30.2317535,62.6102399 22.8250078,70.4974689 20.6877037,73.5168939 C17.2108141,77.9034209 14.3519912,83.3056834 12.7644913,86.81935 C10.2636496,93.2847082 12.3803163,102.088454 18.9549474,105.093327 C21.3486328,106.152189 25.507089,107.103896 27.7502265,107.106277 C28.8413681,107.106277 30.6804869,107.263175 31.8372452,107.452616 C32.9940035,107.642058 40.2134242,107.808481 47.8802554,107.822504 C61.1358802,107.846316 62.054249,107.890766 66.5907947,108.721823 C72.3306655,109.773012 74.3899176,110.449023 78.8759279,112.754866 C81.3476654,113.88305 91.8378653,120.383068 91.9992611,123.886681 C91.9992611,125.211979 91.0642236,126.15416 89.7487153,126.15416 L88.7882778,126.15416 L89.7764965,127.457497 C91.3658486,129.55432 96.9178652,134.268137 97.7978694,134.268137 C97.9126985,134.268137 98.8511756,134.942824 99.8833152,135.767266 C101.609192,137.14601 103.742528,138.575553 106.070332,139.913287 C106.577273,140.204593 107.475005,140.786941 108.064761,141.207364 C115.432613,145.728299 123.969129,141.243876 131.432761,140.610993 C133.937571,140.420228 138.194452,139.861693 140.892408,139.369568 C148.466635,137.988179 150.566898,137.155006 150.554992,135.536285 C150.544408,134.113356 150.122927,133.871526 148.60025,134.414451 C147.835075,134.687501 146.256571,135.109776 145.092404,135.353193 C143.928238,135.59661 142.706392,135.929191 142.377515,136.092174 C141.166781,136.692779 127.975715,138.186087 122.037142,138.395108 C116.229009,138.599366 115.921827,138.577406 116.039832,137.963837 C116.201757,137.124579 117.236807,136.870843 121.682336,136.580595 C127.103648,136.226847 138.166936,134.763701 143.338217,133.716216 C145.836677,133.210333 148.404458,132.857643 149.044221,132.932256 C150.155735,133.061901 150.207594,133.015335 150.207594,131.886622 C150.207594,129.075954 148.574056,127.574708 141.603608,123.978756 C138.15159,122.197845 138.012154,122.370883 137.737517,128.775916 C137.591996,132.173166 137.172102,132.92617 135.139308,133.436551 C129.581471,132.743872 133.053069,125.085243 133.88095,121.74435 C134.36355,119.80416 134.818369,117.89916 134.891658,117.511016 C134.964948,117.123137 135.185346,116.091262 135.381667,115.218137 C137.035577,107.856371 137.684071,103.485189 137.684071,99.6958269 C137.684071,95.9122853 137.618983,95.5283749 136.720458,94.0001416 C135.528246,91.9718458 134.524946,91.5818499 130.49984,91.5818499 C127.703988,91.5818499 127.266367,91.478927 124.643552,90.2015187 C120.434032,88.1515271 118.701805,88.1348583 116.826702,90.1261124 C115.3961,91.6450853 114.574569,93.4778541 114.32295,95.7125249 C114.095409,97.7312957 113.527613,98.1519832 111.749348,97.6191123 C110.071625,97.116404 109.637709,96.4054686 109.639825,94.1628603 C109.642471,91.6559333 111.959163,87.4143979 114.047784,86.0938625 C114.629867,85.7258271 115.185492,85.323925 115.282594,85.2011583 C115.747996,84.6114021 117.847465,83.8208271 118.948396,83.8208271 C120.429534,83.8208271 120.508115,83.704675 120.307296,81.8062896 C120.167596,80.4878709 119.962015,80.2000042 118.47929,79.2485626 C117.132561,78.3844334 116.429298,78.1764709 114.855027,78.1764709 C113.780819,78.1764709 112.222688,78.4159188 111.392425,78.7090772 C109.867632,79.2469751 104.935005,82.3687938 102.88713,84.092025 C101.597286,85.1773458 100.12144,88.1211 100.116678,89.6186416 C100.484978,93.736352 103.37264,99.2642915 106.375661,101.973889 C108.543921,103.85931 110.088823,104.637714 112.145694,104.881396 C114.059425,105.108144 114.130863,105.004956 113.523644,102.888025 C112.808475,100.394856 114.621665,97.1367769 117.315652,96.0734165 C123.382019,93.6794666 127.982594,96.3843019 127.982594,102.3451 C127.982594,105.168998 127.408448,106.396664 125.412167,107.841025 C124.019929,108.848293 123.897163,109.077423 123.478327,111.449941 C123.232529,112.843237 122.875871,116.920202 122.686165,120.509804 C122.220498,129.324662 122.059632,130.550741 121.230957,131.604047 C120.324759,132.756308 119.00634,132.778533 118.269475,131.654054 C117.863605,131.034664 117.75195,130.211545 117.857784,128.622722 L118.003305,126.441762 L116.907665,126.654222 C116.304944,126.771168 114.297815,127.086816 112.447319,127.355633 C110.596823,127.624714 108.453698,128.008889 107.684819,128.209179 C103.130811,129.396893 102.344734,129.460922 101.112305,128.745489 C100.451376,128.361579 99.5314193,127.317797 99.0107193,126.361329 C98.5011318,125.425497 96.7945694,123.399054 95.2181819,121.85812 C92.356184,119.060681 91.8254298,118.0042 92.638759,116.723616 C92.9922423,116.167462 97.5930819,115.525583 101.692536,115.460231 C105.063063,115.406785 106.467207,115.832764 106.457682,116.906179 C106.444453,118.273545 105.907084,118.513258 102.700334,118.57861 C100.986363,118.613535 99.3062589,118.761966 98.9665339,118.908016 C98.2418402,119.220225 98.1566443,120.002068 98.8035506,120.40397 C99.0533173,120.559016 99.9396714,121.505695 100.773109,122.507408 C103.019686,125.207745 103.390632,125.293999 109.732165,124.588356 C112.687825,124.259479 115.820492,123.881125 116.693617,123.747245 L118.281117,123.503829 L118.50178,120.154733 C118.622959,118.312704 118.835155,115.672427 118.973267,114.287598 C119.14895,112.522562 119.102384,111.694416 118.817163,111.517939 C118.572423,111.366598 118.332711,111.56186 118.216294,112.007418 C118.109667,112.415141 117.892973,112.748516 117.734752,112.748516 C117.576267,112.748516 117.349519,113.055433 117.230457,113.430612 C116.893377,114.491856 114.289613,115.57162 112.084311,115.564741 C107.819228,115.551512 102.187836,113.637781 100.977896,111.790989 C100.40084,110.910191 99.7102777,103.338346 100.01693,101.250254 C100.137051,100.431633 99.6983714,99.4196019 98.025411,96.6536478 C97.2769048,94.2917124 95.3070819,92.0961999 94.2762652,90.1398708 C93.5732673,87.7554458 93.1015152,85.3186333 97.8200944,82.2177167 C99.8560631,80.1489397 99.9730089,79.9412417 99.4157964,79.3840292 C99.2263548,79.1945876 98.7630693,76.6625251 98.3865673,73.7574001 C98.0098006,70.8520106 97.5695339,68.1302419 97.4081381,67.7087606 C97.117361,66.9499357 97.1030735,66.9525815 95.9177402,68.0132961 C94.7440486,69.0634273 94.7281736,69.1155502 95.0940923,70.7146919 C95.9862673,74.6143856 92.8144423,76.7786772 90.1344778,74.0987126 C89.630182,73.5944168 89.1687486,72.6898064 89.1092174,72.0884085 L89.0007382,70.9948856 L84.2382383,70.2021939 C74.9312551,68.6533231 71.9845905,67.6524044 66.1719593,64.0662419 C63.0927385,62.1665336 61.3033615,60.3996461 58.9596823,56.9452462 C56.7541157,53.6940462 55.616672,51.2836921 54.4951032,47.4848046 C53.0560345,42.6098568 52.7890699,40.3368214 52.9830095,34.6083277 C53.2600282,26.4170924 54.1905678,21.59903 56.3400428,17.2283779 C59.6047365,9.27685513 68.2669301,4.60272602 72.4200947,2.66782813 C77.2847238,0.403788572 84.5763758,-0.465896833 92.7885132,0.238423991 C105.87798,2.10426563 110.033261,6.28970933 115.7263,14.8143196 C116.261288,15.6228863 117.192621,17.6292217 117.796136,19.2728133 C122.944398,32.0823507 118.652063,45.0649255 112.828848,52.2052358 C111.77025,53.5022233 110.539938,54.6547483 110.094909,54.7664025 C109.184213,54.9950025 109.158284,55.0545337 109.604636,55.8885004 C109.955738,56.5449316 110.777798,61.0653378 111.562817,66.6573065 C111.841688,68.6445919 112.221365,70.6683898 112.406044,71.1544293 C112.590988,71.6407335 112.661632,72.4596189 112.563207,72.9744981 C112.415569,73.7465522 112.530134,73.9375814 113.216198,74.0651106 C116.678007,74.8263168 122.015975,76.023821 124.436384,77.7885918 C125.41005,78.5468876 125.494188,79.5740001 124.901257,83.4681375 C124.600425,85.4429875 124.631117,85.8097 125.120861,86.1123833 C126.146915,86.7460604 129.862459,87.3045958 133.197267,87.3268208 C135.101208,87.34005 136.949852,87.5482771 137.613692,87.8255604 C138.946398,88.3825083 140.406898,90.1729437 141.252506,92.2866999 C141.672135,93.3355082 142.175373,93.9167978 142.942135,94.2385311 C147.115408,95.990602 149.15561,100.655735 147.3747,104.373925 C146.532267,106.13261 144.011052,108.162493 142.669085,108.162493 C141.502538,108.162493 141.251977,108.719706 140.528077,112.924993 C140.227246,114.671243 139.882494,116.536556 139.761579,117.07022 C139.616588,117.711041 139.685379,118.040183 139.964779,118.040183 C140.197348,118.040183 141.049042,118.576493 141.857873,119.232131 C142.666704,119.887768 145.233427,121.583218 147.56176,123.000062 C149.890094,124.416906 152.394375,126.143577 153.127006,126.837314 C154.416585,128.057837 154.475852,128.221879 154.983323,131.976845 C155.271719,134.110181 155.691612,136.935401 155.916244,138.255143 C156.299889,140.507806 156.280046,140.699628 155.590542,141.389133 C154.979883,141.999791 154.509454,142.103508 152.796542,142.005612 C139.752319,143.690743 124.933271,146.965226 112.611625,147.793108 C109.959707,147.933072 108.33834,148.084414 106.355817,146.017489 Z M112.058382,111.470843 C113.12968,111.256531 114.929905,109.802116 114.929905,109.150977 C114.929905,108.966298 114.268446,108.923964 113.404052,109.05361 C112.184853,109.236437 111.332365,109.069485 109.159607,108.226787 C107.664446,107.646027 105.890415,106.750941 105.217315,106.23765 L103.993617,105.3042 L103.993617,106.50435 C103.993617,107.164485 104.169565,108.20906 104.384671,108.826068 C105.107778,110.900137 108.707963,112.140768 112.058382,111.470843 Z M123.009221,104.092408 C124.480834,102.675564 124.107242,99.0020894 122.546465,99.5410457 C122.334798,99.6143352 121.484163,99.7498019 120.656017,99.8424061 C118.869815,100.042166 118.128982,100.685369 117.873923,102.256994 C117.722052,103.192825 117.871277,103.599489 118.654973,104.382921 C119.475975,105.203923 119.817552,105.317958 120.892819,105.130104 C121.59079,105.008131 122.543025,104.541141 123.009221,104.092408 Z M143.432144,100.957625 C143.374994,100.390623 143.12999,99.8614561 142.887367,99.7818165 C142.570925,99.6778352 142.449746,100.167579 142.457683,101.518541 C142.468267,103.274581 142.504515,103.352898 143.00246,102.69435 C143.295883,102.306471 143.489294,101.524891 143.432144,100.957625 Z M108.147046,74.6257626 C108.499736,74.080721 108.370884,72.8744856 107.50014,68.5631002 C107.294559,67.5444544 107.070986,66.3141419 107.003253,65.8291607 C106.255275,60.4557378 104.888438,57.3691087 103.254636,57.3648754 C102.275678,57.3622295 101.725344,57.865467 100.541863,59.8448149 C99.8364839,61.024592 99.8219318,61.2166795 100.276486,63.3725044 C101.269996,68.0860565 101.849169,71.3682127 102.079357,73.5901835 C102.210061,74.8514522 102.450303,76.2354876 102.613286,76.6659647 L102.909355,77.4486022 L105.349607,76.3130105 C106.691573,75.6885939 107.950461,74.9292397 108.147046,74.6257626 Z M89.7243736,60.608667 C91.2208569,60.4988649 91.9902653,61.0211524 92.8694757,62.7446482 C93.2666152,63.5233169 93.5846444,63.5730586 95.4856756,63.1547524 C96.2659319,62.9833024 96.3111756,62.8507461 96.112209,61.3127232 C95.3777256,58.3120837 96.4540506,55.7757879 98.7834423,53.8049066 C99.4740047,53.2527212 99.4713589,53.234465 98.5630443,52.2541838 C96.7821339,50.3290754 99.2718631,46.8961067 101.476371,47.1318505 C104.199463,47.4231567 104.922569,48.9053525 104.217719,50.6434004 C103.884344,51.4768379 103.657596,52.1972983 103.714217,52.2443942 C103.770838,52.29149 104.380703,52.4317192 105.069148,52.5558087 C106.286232,52.7754129 106.370369,52.7156171 108.111857,50.3978671 C110.748694,46.8881692 111.631609,45.3940672 112.230625,43.4276839 C114.587269,36.3003381 115.041559,28.946509 113.021994,22.7901841 C111.40883,17.9186759 109.854932,15.2350071 107.045057,12.4679947 C101.828267,6.67864683 94.7636277,5.13136351 87.9424049,4.91784477 C82.0244696,4.78661143 79.6741758,5.13136351 74.7132384,6.85829891 C65.3980531,9.65071137 62.306926,17.4609467 60.222274,25.0833278 C58.8670782,29.9527195 58.3892407,33.0385548 58.3651636,37.0776839 C59.7134802,48.5791213 62.863874,54.1046796 70.126951,60.510242 C71.7213301,61.9162378 78.8182488,64.0006253 84.3070299,64.0389899 L88.0799882,64.0654482 C88.4615174,61.7551065 87.1843737,60.7957274 89.7243736,60.608667 Z M74.6330696,54.2756004 C73.9319238,53.4773525 73.6017238,52.3496983 73.9274259,51.86604 C74.3065738,51.3024775 77.0534779,50.0920088 79.5487633,49.3884817 L81.738455,48.7714734 L80.5187258,47.4215692 C79.2481967,46.0150442 79.1595613,45.7898838 79.5133092,44.8678109 C79.827105,44.050513 81.8374091,44.1677234 83.0439091,45.0736568 C84.8531299,46.4320276 86.7531028,48.3428484 87.2658653,49.3191609 C88.0093445,50.7354754 87.9066861,52.9881379 87.0602841,53.8348046 C86.1133403,54.7817483 85.0690299,54.7230108 83.4989924,53.6350442 C82.3218612,52.8193337 82.0546321,52.7672108 80.7920404,53.1072004 C80.0215737,53.3146337 78.9883758,53.8012025 78.4959863,54.1885525 C77.3794446,55.0669691 75.3678176,55.1122129 74.6330696,54.2756004 Z M67.5808656,102.958933 C65.1638968,100.394327 63.2345552,93.9437853 63.281651,88.583327 C63.3141948,84.8619625 64.3746448,79.4581126 65.5314031,77.1181376 C66.3338843,75.5592126 69.6644593,68.8835106 71.8171093,68.6631127 C73.3379342,68.5075377 74.3602842,69.765896 74.3602842,70.7075481 C74.3602842,71.7738189 73.9880155,72.5318502 73.4644051,72.5318502 C72.8794113,72.5318502 70.8188364,75.0670876 69.8800947,76.9416605 C68.922303,78.8548626 67.7343239,82.7447667 67.151976,85.8745229 C66.3150989,90.3729687 67.4618031,95.536577 70.3886239,100.449625 C71.3876905,102.127083 71.5242155,102.590369 71.1990426,103.198116 C70.6069051,104.304339 68.7320676,104.180514 67.5808656,102.958933 Z M1.43476848,72.6548814 C0.719864325,72.3648981 0.525130994,70.1971669 0.987887239,67.6793919 C1.41307265,65.3658753 1.76179348,64.2146732 4.2740122,56.8333274 C9.99694963,42.4773005 25.0096724,28.7335195 36.4793597,23.1428737 C38.1131618,22.3665862 40.6219409,21.4172612 42.0546596,21.0333508 C44.6401679,20.3406717 50.5932929,19.8046258 51.5643137,20.1771592 C52.2503783,20.4404196 53.0332803,22.38643 52.619472,22.7999737 C52.441672,22.9777737 51.1092304,23.2188091 49.6582554,23.3354904 C45.5347242,23.6672779 42.3512576,24.4702883 38.906118,26.0474695 C21.2798411,36.6175735 11.3254225,48.5500171 4.94102677,67.0639711 C3.00030805,72.7932585 2.75239347,73.1888106 1.43476848,72.6548814 Z"/>
  </g>
</svg>
