<?xml version="1.0" encoding="UTF-8"?>
<svg xmlns="http://www.w3.org/2000/svg" width="140" height="150" viewBox="0 0 140 150">
  <g fill="none" fill-rule="evenodd">
    <g fill-rule="nonzero" transform="translate(0 23.964)">
      <path fill="#FFF" d="M17.2970964,1.85892623 C15.7546145,1.85892623 14.512507,3.1010338 14.512507,4.6435339 L14.512507,70.4708218 C14.512507,72.0133036 15.7546145,73.2545724 17.2970964,73.2545724 L53.7516359,73.2545724 L53.7516359,86.764979 L45.7544618,86.764979 C44.5171684,86.764979 43.5211117,87.7610356 43.5211117,88.9983473 C43.5211117,90.2356407 44.5171684,91.2316973 45.7544618,91.2316973 L83.3240077,91.2316973 C84.5613011,91.2316973 85.5573578,90.2356407 85.5573578,88.9983473 C85.5573578,87.7610356 84.5613011,86.764979 83.3240077,86.764979 L77.7990681,86.764979 L77.7990681,73.2545724 L115.794558,73.2545724 C117.337058,73.2545724 118.579147,72.0133036 118.579147,70.4708218 L118.579147,4.6435339 C118.579147,3.1010338 117.337058,1.85892623 115.794558,1.85892623 L17.2970964,1.85892623 Z M15.4913676,98.7252266 L1.26352374,120.966109 C9.28586277,124.648941 102.028599,123.373189 102.028599,123.373189 L109.017645,100.875058 L15.4913676,98.7252266 Z M128.341968,101.990904 C124.782372,101.913604 122.849579,102.913234 118.174922,108.823781 C112.421529,116.098302 112.279784,122.534121 122.530568,123.536888 C122.530568,123.536888 130.77569,122.662097 135.070448,116.116848 C139.365242,109.571617 136.711219,102.624604 131.119884,102.168809 C130.07151,102.083339 129.163402,102.008738 128.341968,101.990904 Z"/>
      <path fill="#030303" d="M88.6566181,0.273062232 C78.0028492,0.341846343 69.5808803,0.709035331 59.2865868,0.178474961 C55.1483618,-0.0348068422 17.7991001,-0.120695804 16.2881655,0.288726482 C11.241414,0.0191518494 12.0667139,6.07302893 12.6633413,16.6814463 C12.6915333,23.3485815 12.7179383,32.267521 12.722643,36.5010445 C12.7272019,40.7345679 12.8946215,45.8340381 13.0943179,47.8332086 C13.2940143,49.832379 13.4750741,55.749162 13.4968837,60.9811309 C13.3530425,64.6730251 13.2760889,66.8776908 13.3398218,71.6225909 C12.8839538,76.3720681 22.1681858,74.7870065 26.316568,74.6961575 C30.8570305,74.5835901 51.6853772,75.1973588 51.9392147,75.4511962 C52.2512049,75.7632048 51.1407938,82.143934 50.6772122,82.702504 C49.29998,84.3619663 46.8608794,85.4952994 44.1132714,85.7518722 C41.1354409,86.0299445 40.0006855,86.7987693 40.0006855,88.5397987 C40.0006855,89.888766 41.7538597,92.7342436 42.5848308,92.7342436 C43.0175945,92.7342436 43.4604241,92.8785772 43.5695451,93.0549686 C43.6786842,93.2313601 45.4706817,93.4478331 47.5509999,93.5360562 C49.6313363,93.6242611 53.9306897,93.8339688 57.105846,94.0020996 C64.6594428,94.4020577 86.5710664,94.3836946 87.7255708,93.976187 C88.7641161,93.609618 90.621433,90.7008817 90.26462,89.9997469 C88.7181445,86.9606453 86.624478,85.3535553 83.5787387,84.8665229 C79.6406295,84.23678 79.0848678,83.3908375 78.9533355,77.8323629 L78.8689783,74.2626644 L85.4128601,74.57336 C89.0124282,74.7442079 92.5348968,74.9362454 93.240481,75.0001424 C93.9460652,75.0640577 99.495258,75.1464819 105.571565,75.183901 C118.186374,75.2615476 118.248429,75.2475245 119.056898,72.0368274 C119.325269,70.9708925 119.641891,67.5422088 119.760184,64.4180023 C119.878459,61.2937959 120.085906,56.0436645 120.221194,52.750926 C120.356465,49.4581876 120.535464,41.5684203 120.618764,35.2181442 C120.702118,28.8678499 120.872528,20.8220601 120.997952,17.338743 C122.323085,-0.856368496 119.836463,0.0717428824 102.456458,0.183963831 L88.6566181,0.273062232 Z M56.7859598,3.15267658 C97.1280415,3.13017404 114.608506,3.56747833 115.888944,4.63016732 C118.005533,5.04290845 118.182435,12.0033426 118.057139,14.5224239 C117.691354,21.7690817 117.484327,27.605191 117.20941,38.4253766 C116.721411,57.6304402 116.30061,67.3940275 115.851343,69.9220807 C115.636602,71.1305621 115.435556,71.2874781 113.918677,71.4321399 C112.987612,71.5209283 112.187951,71.5656599 112.141341,71.5315413 C112.094786,71.4974046 106.292631,71.3402515 99.2481677,71.1824237 C92.2036681,71.0245776 86.3507821,70.8057158 86.2414059,70.6963213 C86.1320115,70.5869269 86.9884575,70.4911725 88.1448585,70.4833495 C89.3012047,70.4755083 95.3465476,70.4274032 101.579242,70.3764351 L112.911406,70.2837261 L113.05924,69.2146547 C113.14057,68.6266709 113.378689,67.9372251 113.587941,67.6820382 C114.101469,67.0557599 114.400841,47.8063113 114.049808,37.9977554 C113.666955,27.3018626 114.598239,13.4493043 114.697932,10.5969337 C114.52393,7.86860058 113.40028,7.36090747 111.433131,7.33869669 C109.102422,7.62761913 109.816157,7.2936369 103.827636,7.20929795 C97.0017428,7.11316067 96.0659908,7.08226982 85.7569812,6.60962523 C82.581825,6.46403341 71.7093766,6.26393584 61.5959422,6.16528206 C51.4825261,6.06662829 42.9192507,5.88502146 42.5664495,5.76187747 C42.2136665,5.63871526 37.8839146,5.43280057 32.944807,5.30418596 C28.0056993,5.1755531 23.4720751,5.0045046 22.8696306,4.92415921 C19.9068261,4.92671218 18.6660862,4.7366988 18.0596481,7.2502183 L18.3494641,21.8756314 C18.7674753,42.9928276 19.0204921,51.3853098 19.3709228,55.7443478 C19.5410777,57.8611187 19.676713,61.4692209 19.6724459,63.7623833 C19.6680694,66.0555456 19.8021546,67.9317727 19.9697749,67.9317727 C20.1374498,67.9317727 20.816082,68.1723165 21.4781747,68.4663083 C22.3802641,68.8668682 27.3441902,69.0031235 41.2835675,69.0091959 C57.0377548,69.0161254 62.6407787,69.1739167 71.217603,69.8519289 C71.8055868,69.898411 73.6336905,69.9885124 75.2800779,70.0523729 C80.2817514,70.2463799 76.1667401,70.7542736 67.9343835,70.9594224 C56.634405,71.2410142 18.2031611,71.0795575 17.8725707,70.7489488 C17.7087799,70.5851763 17.429814,65.8910619 17.2520001,60.3179624 C17.0741498,54.7448629 16.7490847,49.1267948 16.5295299,47.8332086 C16.3099933,46.5396406 16.1031122,41.3439419 16.0693401,36.2872339 C16.0357687,31.2305258 15.9702305,22.0490687 15.9240036,15.8838278 C15.8476336,5.70523817 15.9085035,4.60520299 16.5888316,3.92440076 C17.2918628,3.22098657 19.775695,3.17331911 56.7859598,3.15267658 Z M21.47316,8.3610671 L26.9955831,8.63835533 C41.1657483,9.34957429 54.8418421,9.82668656 65.016967,9.96549479 C83.9598596,10.2239276 111.367593,11.1962052 111.669444,11.6200517 C111.700371,11.6634886 111.522466,13.9115546 111.274391,16.6163093 C110.806962,21.7128071 110.632795,37.586309 110.962036,45.0536156 C111.153727,49.4016577 110.602707,65.8309396 110.252094,66.2212511 C109.854834,66.6635155 71.6934205,66.0389696 62.0235817,65.4319845 C58.4956425,65.210442 50.7983138,65.112007 44.9184212,65.2123202 C26.4768758,65.5269364 24.1947459,65.5244382 23.861876,65.1914407 C23.6835151,65.0130615 23.521949,63.9687538 23.5035677,62.8712351 C23.485314,61.7737165 23.2474326,57.7969846 22.9740285,54.0338445 C22.4309039,46.5568366 22.2273416,41.0160503 21.7738443,21.3619935 L21.47316,8.3610671 Z M84.4390142,70.5501642 C84.5875784,70.5563643 84.7154089,70.5960446 84.7864542,70.6670899 C84.9285631,70.8091805 84.6760021,70.9103143 84.2252036,70.8917689 C83.7270111,70.8712357 83.6251662,70.7693543 83.9662785,70.6328437 C84.1206415,70.5710803 84.29045,70.5440371 84.4390142,70.5501642 Z M69.5054038,74.7738405 L75.3585815,74.7738405 L75.3427167,77.2326901 C75.3343284,78.5850675 75.4693619,80.5808096 75.6425622,81.6676788 L75.9574337,83.6437814 L66.1871175,83.592011 C60.8130032,83.5635272 56.0855362,83.4770547 55.6818034,83.3999005 C54.919124,83.2541993 54.9182122,83.0941468 55.6450772,77.0815183 L55.8572101,75.3275781 L59.7543078,75.0502899 C61.8979759,74.8981151 66.2861542,74.7738405 69.505422,74.7738405 L69.5054038,74.7738405 Z M56.3290888,87.7087728 C58.3710943,87.690045 61.3676162,87.7316401 65.9657756,87.8064966 C78.2834563,88.0069589 82.3359382,88.3964498 82.3359382,89.3808723 C82.3359382,89.7206899 57.9407742,89.7536596 51.980135,89.4217926 L49.2055568,89.2672837 L51.0739426,88.430386 C52.1733396,87.9381748 52.9257706,87.7399737 56.3290888,87.7087728 Z M13.769303,98.4698939 C9.30882119,103.101588 8.87100632,106.306085 4.68956331,111.549926 C4.39321904,111.902709 3.3493308,113.607924 2.3701784,115.33927 C-3.39353623,123.48871 2.65556316,123.334165 6.7550196,124.455845 C11.8243831,124.34047 26.8990994,123.987304 30.2192639,124.222815 C42.0062565,125.0588 55.5419922,124.603115 76.7927813,124.905459 C91.4547383,125.114054 94.2699815,125.347358 99.3039135,125.298287 C103.214359,125.295369 103.927311,124.775677 104.797105,123.221944 C106.79148,118.075463 107.541048,113.034948 109.06276,108.372763 C111.247457,101.703422 110.993365,99.9222379 107.644552,98.4387477 C106.23818,97.8157154 103.505762,97.7533684 82.1221276,97.8599546 C25.8985933,98.1401605 18.9345667,97.6173866 17.453283,97.5350536 C15.7497821,97.5092687 14.3206883,97.4750043 13.769303,98.4698939 Z M128.754582,100.043194 C125.732403,99.9693765 122.279466,100.997382 120.459222,102.715033 C116.02664,106.897844 112.019747,114.426276 112.395251,117.865791 C112.643363,120.138712 114.390045,122.842482 116.223857,123.793297 C116.989271,124.190137 118.577488,124.74185 119.753455,125.018555 C125.766357,126.43337 132.343191,124.521839 135.320985,120.494212 C137.110447,118.073785 139.210569,112.378326 139.210569,109.945461 C139.210569,105.656283 136.358162,102.135365 131.556696,100.499207 C130.72133,100.214552 129.761945,100.067793 128.754582,100.043194 Z M47.3480576,101.331929 C48.2232315,101.103858 48.4057865,100.999424 48.9998063,101.254684 C49.7635068,101.582849 49.5159971,102.381452 48.4884478,102.408295 C47.8555501,102.424889 46.58319,102.440079 46.4378534,102.20486 C46.2800986,101.9496 46.3977354,101.579585 47.3480576,101.331929 Z M52.396195,101.298704 C52.396195,101.52652 52.1756737,102.172729 51.8228725,102.172729 C51.4700713,102.172729 51.1630593,102.910244 50.3697261,102.127451 C50.0328809,101.795073 50.5391699,101.567604 50.8919529,101.432224 C51.5009986,101.137284 51.6742354,101.296078 52.396195,101.298704 Z M105.367765,101.510655 C105.866541,101.503178 106.200797,101.520137 106.250598,101.563264 C106.350182,101.649591 106.153093,102.618404 105.812108,103.716451 C105.140223,105.879941 105.081523,105.919603 102.862142,105.69673 C99.4308869,105.352189 99.4178121,105.340646 100.217017,103.469215 C100.913794,101.837635 100.981502,101.798137 103.498559,101.604184 C104.205493,101.549715 104.869008,101.518113 105.367765,101.510655 Z M96.823546,101.730319 C97.1156414,101.761009 97.0121735,102.329937 96.3967453,103.424958 C95.7074636,104.651401 95.1549478,105.135479 94.4448594,105.135479 C93.9001848,105.135479 93.4542916,105.063157 93.4542916,104.975117 C93.4542916,104.887076 94.0031057,102.819796 94.7841846,101.967052 C95.7531252,100.909213 96.5314506,101.699592 96.823546,101.730319 Z M59.6365433,101.767045 C59.7850892,101.773245 59.912938,101.812926 59.9839833,101.883971 C60.1260921,102.02608 59.8735312,102.127214 59.4227144,102.10865 C58.9245402,102.088117 58.822677,101.986235 59.1638075,101.849725 C59.3181524,101.787961 59.4879791,101.760936 59.6365433,101.767045 Z M56.1996354,101.769598 C56.4321556,101.772516 56.6487015,101.802914 56.7934728,101.861468 C57.0829787,101.978613 56.7423588,102.067292 56.0367746,102.058575 C55.3311722,102.049822 55.0944943,101.954013 55.5105907,101.845604 C55.7186025,101.791408 55.9671152,101.766717 56.1996354,101.769598 Z M64.8031564,101.769598 C64.9969263,101.769598 65.1906961,101.798793 65.3376921,101.858131 C65.631684,101.976753 65.3911584,102.073601 64.8031564,102.073601 C64.2151726,102.073601 63.9746288,101.976753 64.2686207,101.858131 C64.4156166,101.798811 64.6093865,101.769598 64.8031564,101.769598 Z M16.3599949,102.267371 C16.5214881,102.252783 16.6103129,102.40804 16.7316516,102.724242 C16.8793223,103.109047 17.4609237,103.424155 18.0237243,103.424155 C19.0869057,103.424155 19.3752263,104.207441 18.5983598,104.984325 C18.3487165,105.23375 17.2363906,105.345187 16.0885421,105.23488 C13.9332762,104.799655 13.9508369,107.687147 15.0353355,108.147282 C16.0242803,108.523279 16.0476035,108.609879 15.4696492,109.727493 C14.3716746,111.850756 13.331397,112.494048 11.539983,112.157968 C10.909073,112.015896 9.01528518,113.332459 9.257379,115.098526 C9.4066179,116.187383 10.2982949,116.286055 10.0800348,116.860216 C9.83234268,117.511677 9.52895953,118.529525 10.2211771,118.538989 L12.8479205,118.574913 C15.0015087,118.604327 15.1473741,116.25303 16.1336383,116.25303 C16.7952386,116.25303 17.3363573,116.352924 17.3363573,116.475193 C17.3363573,116.597461 16.8532091,117.463408 16.2622712,118.399525 C15.2939506,119.933418 15.014,120.101676 13.430069,120.101676 C12.9810028,120.101676 12.6602231,120.094747 12.4269734,120.072427 L11.3821187,120.064038 L11.412189,120.101621 L8.92159145,120.094874 C5.37590911,120.085574 5.00430714,119.753251 6.02005809,117.5007 C6.469106,116.504916 7.37061186,114.952879 8.02373268,114.051264 C8.6768535,113.149667 9.21140743,112.318513 9.21140743,112.204615 C9.21140743,111.715121 14.7260805,103.563948 15.5531675,102.831029 C15.9644863,102.466521 16.1984836,102.281905 16.3599767,102.267262 L16.3599949,102.267371 Z M125.78286,103.851776 C126.432553,103.851776 126.432079,103.924992 125.773925,104.813933 C125.382009,105.343126 124.834982,106.305301 124.558696,106.952094 C124.15635,107.893919 123.777162,108.128062 122.653566,108.128062 C121.881915,108.128062 121.250385,107.959968 121.250385,107.754728 C121.250385,107.116177 125.041535,103.851776 125.783079,103.851776 L125.78286,103.851776 Z M132.688424,104.291105 C133.384818,104.288917 134.056502,104.646076 134.763071,105.352645 C135.658942,106.248534 135.814728,106.759109 135.706026,108.448787 C135.61494,109.865025 135.376967,110.509922 134.913422,110.597798 C134.549169,110.666838 134.123025,110.594881 133.96631,110.438256 C133.809576,110.281541 132.482601,109.825454 131.017163,109.424311 C129.551726,109.023185 128.2941,108.51903 128.222526,108.304289 C128.150934,108.089567 128.839814,107.096337 129.753483,106.096834 C130.857184,104.889392 131.793064,104.293694 132.688424,104.291105 Z M24.894203,104.322835 C25.3250337,104.335417 25.4671608,104.48141 25.3685982,104.781365 C25.2660056,105.093446 24.646438,105.411892 23.9921683,105.488791 C23.1537571,105.587317 22.8576134,105.461073 22.9890728,105.061151 C23.0916107,104.74907 23.711233,104.430624 24.3655026,104.353725 C24.5751191,104.329108 24.7505806,104.318622 24.894203,104.322816 L24.894203,104.322835 Z M37.1684833,104.32867 C37.3236122,104.319005 37.5162333,104.330493 37.7556282,104.35792 C38.4557418,104.438466 38.9316141,104.75279 38.9316141,105.134658 C38.9316141,105.516527 38.4557418,105.830851 37.7556282,105.911416 C36.7980484,106.021594 36.5796606,105.87737 36.5796606,105.134658 C36.5796606,104.57762 36.7030782,104.357573 37.1684833,104.328688 L37.1684833,104.32867 Z M89.2222817,104.378781 C89.4749339,104.369481 89.6056456,104.5367 89.6056456,104.874894 C89.6056456,105.252861 89.3169966,105.56228 88.9641954,105.56228 C88.6113942,105.56228 88.3227453,105.754718 88.3227453,105.989901 C88.3227453,106.225102 88.0340964,106.41754 87.6813134,106.41754 C87.3249563,106.41754 87.0398633,106.037423 87.0398633,105.56228 C87.0398633,105.091878 87.3126838,104.707019 87.6462284,104.707019 C87.9798277,104.707019 88.5571255,104.590039 88.9291104,104.447273 C89.0400914,104.404675 89.1380522,104.381899 89.2222817,104.378781 Z M31.5124125,104.495707 C31.9791123,104.508289 32.5123898,104.568284 33.1043307,104.677788 C33.1919155,104.694017 33.0237847,104.995668 32.7309963,105.348469 C32.166518,106.028633 29.3099715,106.251142 29.3099715,105.614889 C29.3099715,104.847778 30.1123495,104.457941 31.5124125,104.495707 Z M45.819617,104.707019 C48.5663497,104.707019 49.2526955,105.158055 47.7389344,105.968201 C47.0103006,106.358166 44.1456758,106.419747 43.0391853,106.069243 C42.8055709,105.995262 42.7208673,105.658508 42.8504301,105.320897 C43.0210957,104.876135 43.8387003,104.707019 45.819617,104.707019 Z M82.9389662,104.733752 C83.5839176,104.731929 83.5381101,104.914192 83.2029061,105.540561 C82.8607909,106.179732 82.3689444,106.400782 81.4489477,106.330667 C79.5131637,106.183178 79.9896378,104.956279 82.0486387,104.786361 C82.431729,104.754759 82.7239885,104.734263 82.9389662,104.733752 Z M56.7333323,104.819769 C58.4637669,104.801351 58.7808449,105.132744 57.8516941,105.903884 C57.2261453,106.423029 52.4019209,106.471773 52.4019209,105.95901 C52.4019209,105.307056 53.4209907,104.98356 55.9039658,104.84818 C56.2093184,104.831585 56.4861325,104.822431 56.7333323,104.819787 L56.7333323,104.819769 Z M74.7906385,104.910745 C75.602116,104.946888 75.9215098,105.104825 75.9215098,105.427739 C75.9215098,105.751582 75.680966,106.103635 75.3869741,106.20951 C74.41621,106.55912 70.7473837,106.694136 70.5577715,106.387397 C70.153291,105.732872 71.8058968,104.983742 73.8092614,104.913262 C74.1955064,104.899585 74.5201339,104.898674 74.7906385,104.910709 L74.7906385,104.910745 Z M63.9779659,104.922416 C64.1092246,104.91804 64.2424164,104.922416 64.3755351,104.938281 C64.9635189,105.006883 65.6963469,105.07904 66.0041977,105.098625 C66.3122127,105.118228 66.4461156,105.325748 66.3015267,105.559672 C65.6678813,106.58496 62.2373923,106.968543 62.2373923,106.014026 C62.2373923,105.436729 63.0591546,104.951483 63.9779659,104.922398 L63.9779659,104.922416 Z M28.6685214,108.555592 C29.2287508,108.555592 29.8060487,108.748013 29.9514034,108.983213 C30.1089942,109.2382 29.5910892,109.410835 28.6685214,109.410835 C27.7459536,109.410835 27.2280486,109.2382 27.3856394,108.983213 C27.5309759,108.748013 28.1082737,108.555592 28.6685214,108.555592 Z M94.1491899,108.555592 C95.2968196,108.555592 95.4113199,108.910162 94.6152514,109.998837 C93.9887179,110.855666 90.7144155,111.449758 90.3013644,110.781429 C89.5478939,109.562262 91.2877927,108.555592 94.1491899,108.555592 Z M98.9900814,108.796956 C99.1156507,108.791668 99.2562642,108.811362 99.4152044,108.852921 C100.430281,109.118374 100.449391,109.181487 99.853694,110.294488 C99.4114479,111.120918 98.3770968,111.406413 98.0204114,110.800631 C97.9165423,110.62424 97.9891923,110.062077 98.1824334,109.551156 C98.3725379,109.048569 98.6133917,108.812967 98.9900814,108.796956 Z M35.7185463,109.0375 C36.3249479,109.009527 36.5796606,109.180886 36.5796606,109.596253 C36.5796606,110.05947 36.1734843,110.266095 35.2616936,110.266095 C33.6255727,110.266095 33.7722769,109.258806 35.4370822,109.061717 C35.5383436,109.049682 35.6319279,109.041494 35.7185463,109.037519 L35.7185463,109.0375 Z M43.2195886,109.410835 C45.1001374,109.410835 45.4868383,109.530824 45.2867408,110.052285 C45.119467,110.48813 44.4726921,110.683249 43.268879,110.660328 C39.6041374,110.590486 39.5575458,109.410835 43.2195886,109.410835 Z M51.6544134,109.678112 C52.1362487,109.674282 52.6941805,109.699885 53.3348647,109.753278 C54.836645,109.878483 55.2800582,110.070265 55.1071679,110.520845 C54.9402224,110.955924 54.0678203,111.121356 51.9425517,111.121356 C49.6069373,111.121356 49.0549138,110.999452 49.2373047,110.524182 C49.453176,109.9616 50.2088712,109.689162 51.6544134,109.678112 Z M60.9027216,109.827624 C61.421046,109.878392 61.8153694,110.142714 61.7312492,110.58682 C61.6378655,111.079688 61.1158393,111.381394 60.2028087,111.469635 C58.7572482,111.609373 58.4571839,111.224952 59.3300054,110.35213 C59.7420171,109.940137 60.384379,109.776838 60.9027216,109.827624 Z M85.5607131,109.838565 C86.5578457,109.838565 86.5587027,109.843854 85.904816,111.762897 C85.5441918,112.821283 85.1228253,113.660788 84.9685352,113.628767 C84.814245,113.596727 84.2643004,113.488646 83.7466142,113.388223 L82.8053369,113.205303 L83.6831366,111.522354 C84.3239485,110.29292 84.8304381,109.838565 85.5607131,109.838565 Z M80.7022791,109.84203 L79.8946128,111.230149 C79.2152512,112.397491 78.8009054,112.639658 77.2904267,112.750238 C75.2484941,112.899714 75.1732,112.773761 76.3282515,111.151645 C76.9865512,110.227126 77.5347999,109.966122 78.9324559,109.911343 L80.7022791,109.84203 Z M69.8278065,109.981513 C72.0947828,110.053507 72.6336403,110.551535 71.479847,111.509115 C70.8578723,112.025287 66.0860567,112.060755 66.0860567,111.549178 C66.0860567,110.610982 67.7473425,109.915391 69.8278065,109.981476 L69.8278065,109.981513 Z M118.470573,111.441461 L122.614086,111.709559 C128.737896,112.105833 134.079023,113.300164 134.079023,114.272825 C134.079023,115.302325 131.224428,118.992943 129.441092,120.268822 C127.731737,121.491783 127.285078,121.604368 123.881924,121.666971 C119.121433,121.754519 118.308077,121.565782 116.84357,120.033293 C115.432019,118.556222 115.51685,117.512498 117.352248,113.740805 L118.470573,111.441461 Z M19.3400319,111.812297 C20.0696504,111.777231 20.7779335,112.025032 20.5135012,112.452909 C20.3846678,112.661358 19.6720447,112.832096 18.9299349,112.832096 C17.7427525,112.832096 17.6568089,112.756346 18.2099812,112.203174 C18.4571262,111.956029 18.9022535,111.833323 19.3400319,111.812297 Z M26.5913397,111.976836 C27.6055042,111.976836 28.0407843,112.151659 27.9226733,112.511371 C27.7311464,113.094942 25.3971549,113.480403 24.9234344,113.006646 C24.3545067,112.437755 25.1007559,111.976836 26.5913397,111.976836 Z M36.7592251,112.420796 C38.2660202,112.475411 36.85332,113.246497 36.5064636,113.593335 C36.2121252,113.887692 34.0564399,113.792649 32.422252,113.631265 C30.512417,113.442674 31.0071082,112.310125 33.041929,112.217288 C33.7716204,112.183972 34.4439979,112.336876 36.7592251,112.420796 Z M40.1664092,112.898127 C40.744327,112.866908 42.9007053,112.610025 44.6515454,112.866707 C46.0046339,113.530478 45.0127531,113.898688 43.7461554,113.892834 C41.6503918,113.883169 39.4481331,113.688907 39.4481331,113.463554 C39.4481331,113.112321 39.5885096,112.92931 40.1664092,112.898109 L40.1664092,112.898127 Z M48.8086988,113.060641 C49.2349888,113.060641 51.6536475,113.060641 51.9770532,113.108601 C52.6238281,113.20658 52.9971807,114.206849 51.7035944,114.206849 C50.4100264,114.206849 48.3121475,114.311757 47.7178725,114.038335 C47.016063,113.71544 48.3824087,113.060641 48.8086988,113.060641 Z M102.143847,114.126667 C102.325363,114.12922 102.423342,114.297953 102.401934,114.649514 C102.384063,114.943506 102.143519,115.79543 101.867398,116.542937 C101.413645,117.771478 101.289371,117.846407 100.570311,117.317178 C99.7998994,116.750165 99.8042759,116.689897 100.706456,115.422916 C101.307223,114.579217 101.841321,114.122254 102.143847,114.126667 Z M89.2389854,114.17594 C89.9676739,114.160804 91.3245371,114.731738 91.1942084,115.128085 C90.9360492,115.912884 89.2047939,115.964217 88.9099085,115.195739 C88.7642984,114.816296 88.7425435,114.408442 88.8614569,114.289528 C88.9366964,114.214289 89.0708181,114.179423 89.2389854,114.17594 Z M66.1779268,114.556805 C66.2910049,114.554982 66.5408487,114.631808 66.9412992,114.753073 C67.5293012,114.931142 68.0938525,115.151883 68.1957886,115.244172 C68.2977065,115.33648 68.1870356,115.606201 67.9502483,115.843024 C67.6612164,116.132074 66.2221478,116.578041 65.6691943,115.958984 C65.1549,115.383272 65.9894635,114.559012 66.1779268,114.556805 Z M96.6205855,114.586857 C96.708608,114.578834 96.7920169,114.586857 96.8678034,114.611074 C97.1450917,114.703491 97.059458,115.127903 96.6439815,115.721066 C95.8885781,116.799565 95.1648132,116.981007 95.1648132,116.091902 C95.1648132,115.453752 96.0045008,114.643843 96.6205855,114.586839 L96.6205855,114.586857 Z M73.9863276,115.662621 C74.2317402,115.660797 74.4860336,115.674656 74.7455422,115.704398 C76.6368135,115.920908 77.2524058,116.336494 76.4318288,116.84364 C75.6646271,117.317798 71.7426927,117.611881 71.4965506,117.213637 C70.9915746,116.396543 72.2684389,115.671812 73.9863276,115.662639 L73.9863276,115.662621 Z M82.483773,116.181292 C83.5105199,116.217927 84.4740992,116.409819 84.4740992,116.724179 C84.4740992,116.935692 83.3927007,117.108364 82.0703571,117.108364 C80.1820764,117.108364 79.7622235,116.992204 80.1142771,116.567993 C80.3676768,116.262677 81.4570443,116.144657 82.483773,116.181292 Z M23.6171563,116.680743 C25.1895808,116.680743 25.2719503,116.852502 24.499132,118.516542 C24.0290951,119.528682 23.7195666,119.667818 21.933368,119.670809 C20.8161915,119.672633 19.9021214,119.540334 19.9021214,119.376799 C19.9021214,119.213282 20.4193881,118.539774 21.051374,117.880106 C21.8575814,117.038613 22.6231785,116.680743 23.6171563,116.680743 Z M37.4741641,117.091678 C46.7152328,117.866904 53.6137029,116.856131 62.642584,117.933427 C63.762277,117.815243 63.0164472,120.916327 62.0089386,120.762912 C53.3105751,120.55428 40.8767164,121.315574 31.5775678,119.821142 C31.4711821,119.543854 31.9060976,118.322061 32.2390769,117.6865 C32.4050012,116.583985 35.5622685,117.058289 37.4741641,117.091678 Z M68.2400643,118.196655 C68.4806628,118.219486 68.6518207,118.494823 68.6518207,119.041887 C68.6518207,119.929534 71.7472698,120.607838 74.3245951,120.285526 C76.8919092,119.964509 86.6752455,119.720099 87.1283964,119.96564 C87.2944848,120.05565 87.3195039,120.418918 87.1835221,120.773288 C86.9710792,121.32688 85.5227651,121.400532 76.8995499,121.294457 C71.3797526,121.226566 66.8027098,121.072787 66.7274885,120.952852 C66.6522309,120.832936 66.8586379,120.097829 67.1860189,119.319175 C67.5073457,118.555 67.9307181,118.167296 68.2400643,118.196655 Z M92.935639,119.698363 C97.525939,119.851796 96.4468564,120.124598 99.0594126,120.101767 C100.804089,120.101767 101.141299,120.506321 100.110103,121.36211 C99.7041086,121.699083 98.1687933,121.82571 95.5790861,121.735445 C91.1574457,121.581337 90.4548704,121.353704 91.2894339,120.348165 C91.6570788,119.905171 92.3011366,119.690029 92.935639,119.698363 Z"/>
    </g>
    <g transform="translate(2.523)">
      <path fill="#FFF" d="M5.04504505,89.1414482 C13.6813507,82.2464194 22.838136,75.9402767 28.1492761,65.2821142 L6.81766154,49.6611104 L32.1378309,48.1364186 L19.8470972,15.3163651 L56.1491692,40.0857727 L62.746664,5.1520232 L69.4533538,35.591526 C77.5866241,30.7698823 88.9486128,10.2594032 100.239482,5.04504505 L98.7325568,43.4020279 L126.120891,23.5548302 L110.314277,54.3954842 L134.954955,67.2882077 L90.6667156,76.3290427 L101.894014,100.990882 L69.5716065,89.3287443 C56.1255187,97.3397881 49.7881799,114.425616 41.208233,128.648649 C38.8128189,113.946071 40.7072105,99.5060113 33.1423919,84.4873923 L5.04504505,89.1414482 Z"/>
      <path fill="#030303" fill-rule="nonzero" d="M64.9145988,0.000487930022 C64.2071948,0.020605956 63.3521279,0.663282978 62.3136165,2.10592648 C55.6062974,11.4236689 60.1830049,40.637699 53.5299465,35.4805302 C46.6032331,30.1113353 18.3037123,10.5630099 18.3037123,10.5630099 C9.82208757,12.6263681 38.6568231,49.2076735 25.8585387,47.3619588 C17.633266,46.1757736 10.8738702,46.9378898 4.51378555,47.6095679 C-6.84113258,48.8085278 23.4576319,56.4181838 24.6298631,65.3075087 C26.0218245,75.8636349 -16.2818097,96.8379882 7.01682995,91.8749778 C15.1624756,90.1399884 22.49102,87.7085668 22.49102,87.7085668 C34.957861,82.7920867 37.3339053,94.7669652 37.3730469,126.322351 C37.4058049,152.717066 58.0859913,84.4981427 74.6015486,93.5253666 C85.3661514,99.4093393 89.4476257,100.675134 103.000855,103.962747 C112.119328,106.174546 87.046047,78.1828761 96.2653139,76.4460255 C105.869781,74.6367568 143.397976,72.7371346 133.220665,64.7298557 C124.757855,58.0716182 121.52372,56.500754 112.057676,54.7463065 C107.614184,53.9228041 136.714343,17.9871706 125.210587,21.0828932 C115.408564,23.7206896 108.247337,31.9707553 98.3586318,38.987158 C98.3586318,38.987158 109.808464,-5.53750208 99.4055427,1.36335306 C86.1790529,10.1373165 72.1131193,42.2324713 69.2767836,28.8800411 C68.0284532,23.0040716 69.2369701,-0.122402921 64.9145988,0.000487930021 Z M96.521834,9.21005998 C102.670084,9.25818081 94.5657636,44.754551 94.5657636,44.754551 C96.5807983,52.4397553 112.955748,31.0501145 121.162542,27.7316554 C126.604228,25.5312442 102.028196,55.6251377 105.901363,56.3428893 C114.15217,57.8719608 121.054525,60.1285975 130.126633,64.524953 C140.27001,69.4405871 98.4298593,71.9046646 90.0582678,73.4817892 C82.0224873,74.9956326 102.754918,99.8482473 94.8068286,97.9203685 C82.9936349,95.0547765 81.7285056,93.3023594 72.3457848,88.1738702 C57.9504237,80.3053363 40.5789596,139.814795 40.5502334,116.808505 C40.5162995,89.3039652 36.3382312,80.9406869 28.2157681,82.0425253 C28.2157681,82.0425253 24.9789454,83.4260837 17.8790347,84.9385735 C-2.42888686,89.2643721 30.9101526,74.7491064 29.6967641,65.5481128 C28.6750516,57.799881 6.30169841,50.625749 16.1989712,49.5807622 C21.7424585,48.995326 23.5984072,48.8723167 30.7680335,49.9063054 C41.923212,51.5150706 17.4824114,21.7511534 24.8752958,19.9526798 C24.8752958,19.9526798 49.0879666,37.6843085 55.1255113,42.3642453 C60.9245108,46.8593635 58.9632328,18.391037 62.5427542,10.4598987 C64.589875,5.92400294 65.0273198,29.8020186 66.2932891,35.7617596 C69.9215275,49.2822912 92.0077866,9.17473076 96.521834,9.21005998 Z"/>
    </g>
  </g>
</svg>
