<?xml version="1.0" encoding="UTF-8"?>
<svg xmlns="http://www.w3.org/2000/svg" width="350" height="232" viewBox="0 0 350 232">
  <g fill="none" fill-rule="evenodd">
    <path fill="#FFF" d="M198.927951,2.00087007 C139.107232,2.0222723 79.3377546,2.46599901 19.804133,4.85207183 C23.0445469,39.8653185 21.4472351,67.8306308 22.7965275,99.4151332 C22.7965275,99.4151332 22.8134155,103.148107 22.8190805,108.451301 C21.1983391,109.30473 19.2887904,110.299783 18.0480092,110.906202 C15.6847273,112.061246 14.7116112,113.081227 13.437289,115.703488 C12.1629667,118.325751 3.97233974,124.589808 5.10764539,138.575197 C6.10808166,150.898998 14.5198996,152.959967 22.346856,154.07345 C22.0922737,162.054299 21.7063279,167.668249 21.1230911,167.708547 C19.0837608,167.849451 6.83119021,173.138209 7.26626102,184.946194 C7.92286479,202.76674 8.67904403,214.063198 12.5713373,229.832832 C27.2615614,238.297884 49.4125273,219.233552 49.4125273,219.233552 L46.6192838,203.73653 L177.91306,203.087699 C177.91306,203.087699 176.899904,211.914867 177.673399,219.601088 C206.956303,222.231337 222.479728,211.020821 222.479728,211.020821 L221.622969,201.101608 L296.583797,201.683357 C296.583797,201.683357 294.150376,223.818849 297.039732,227.657959 C299.929088,231.497069 344.489835,230.506242 344.489835,230.506242 L339.46991,179.967216 L347,173.532634 C347,173.532634 346.999808,144.27067 346.42463,135.534387 C345.849474,126.798107 336.73554,119.914034 336.73554,119.914034 L338.515884,2.00211823 C292.013416,2.22289558 245.455174,1.98421725 198.927951,2.00083806 L198.927951,2.00087007 Z"/>
    <path fill="#030303" fill-rule="nonzero" d="M323.712947,0.000687705201 C315.279453,0.00777550883 303.882058,0.0697682403 291.557121,0.1848483 C237.44581,0.690092172 235.042395,0.695476979 203.507728,0.381954453 C189.764895,0.245325546 160.851746,0.375069769 139.255851,0.670097083 C102.550676,1.17154241 91.5692423,1.3884912 38.1431669,2.66955558 L17.5441769,3.16357229 L17.7778176,6.72985788 C17.9064623,8.69123595 18.338153,14.2185981 18.737142,19.0130793 C19.1361525,23.8075647 19.8673578,43.9561999 20.3619047,63.7879129 C20.8564731,83.6196238 21.5424355,100.153308 21.886337,100.529419 C22.2302385,100.90549 22.907255,100.969083 23.390716,100.670568 C24.0028645,100.292592 24.151327,96.1148785 23.8797842,86.9107209 C22.2560701,31.8725937 21.8296443,21.2439158 20.9592219,14.0754031 C20.4177842,9.61624243 20.2223024,5.72091384 20.5244923,5.41901831 C22.0279938,3.91697267 184.264291,1.7783033 228.49487,2.67749007 C236.784182,2.84600661 260.700326,2.70410301 281.641783,2.36220361 C302.583262,2.02027642 323.532767,2.0042086 328.196421,2.32670687 L336.67595,2.91343162 L337.283711,7.39718047 C338.434665,15.8868084 337.075667,90.8341398 335.51391,104.99688 C335.297626,106.958264 335.33403,109.744922 335.595,111.189437 C335.872043,112.722898 336.46339,113.685473 337.015785,113.502512 C337.65353,113.291261 338.013482,110.498348 338.120961,104.932153 C338.208643,100.390977 338.655957,85.2639643 339.114956,71.3163662 C340.036934,43.301631 340.263791,27.6674073 339.984394,11.3539196 C339.806654,0.978965819 339.727083,0.509054273 338.087104,0.145594269 C337.616377,0.0412549577 332.146462,-0.00639988462 323.712947,0.000687705201 Z M285.852281,13.5166576 C277.978416,13.4866194 269.943269,16.0753568 264.633395,22.1362927 C255.82317,32.1926951 257.396783,45.2636976 264.37968,54.4307998 L261.028989,57.8751474 C259.186166,59.7694725 257.226427,62.4096911 256.67386,63.7423949 C255.640636,66.2344196 254.737576,66.7609889 253.878711,65.3726966 C253.609094,64.9368405 253.052354,64.5805175 252.641851,64.5805132 C251.550008,64.5805154 251.72884,72.0216123 252.847499,73.1391804 C254.097456,74.387968 254.125235,74.3836833 258.04281,72.3106664 C262.058789,70.1855996 262.652361,68.0971286 259.034729,68.819967 C257.725853,69.0814973 256.654641,69.0032214 256.654641,68.6458294 C256.654641,67.1791757 262.890304,58.4952693 264.877501,57.1944617 C266.940118,55.8442896 267.099774,55.8495792 269.206307,57.3481376 C281.333088,64.7421622 295.896392,62.8978815 304.335771,55.0505154 C307.066972,52.4621672 309.349726,50.4272235 309.408623,50.5283492 C310.92199,53.1265798 312.195875,66.4484285 310.94016,66.4484285 C309.570504,65.788106 308.63348,62.3326767 307.385492,63.5210694 C306.666785,64.2285626 306.871491,65.2887013 308.265801,68.0778964 C309.265168,70.0770354 310.55825,71.7126675 311.13913,71.7126675 C312.578213,71.7126675 316.940962,67.7406516 316.940962,66.4304727 C316.940962,65.0974525 315.197249,65.0596487 313.870332,66.3636571 C313.058122,67.1618336 312.957106,66.9690496 313.350338,65.3726966 C313.903804,55.9146694 312.79942,52.4005193 310.879979,47.7083121 C313.863355,37.9158325 314.089676,30.5296847 307.799312,22.4678651 C303.492743,16.9484951 294.775999,13.5507004 285.852281,13.5166576 Z M287.360834,16.7087755 C291.928759,16.7690486 298.275452,17.9767098 300.282853,19.936805 C298.641675,22.8939479 298.680005,22.7386961 296.720672,25.6562243 C292.234415,32.336446 287.020635,37.5770333 286.441658,35.9880119 C285.164393,29.4106755 285.489974,23.8259396 284.557744,16.854934 C285.347205,16.7417664 286.3067,16.6948651 287.360834,16.7087755 Z M281.554829,16.8958593 C282.324707,22.0245256 283.019016,27.5728562 283.255246,32.8000696 C283.690511,43.111432 283.851236,43.4066973 289.847929,44.9183409 C292.528237,45.5939743 299.730928,49.6213028 302.537955,52.0216778 C295.147273,60.8615972 278.855259,59.2024867 272.321238,56.115807 C269.611288,54.7670396 269.546998,53.8063996 272.123103,53.1604687 C275.180057,52.3939575 274.616083,50.7982438 271.527883,51.4762954 C270.109966,51.7876071 268.436515,52.0994362 267.808936,52.1695082 C267.160319,52.2418936 265.681365,50.3897062 264.382184,47.877438 C261.3883,42.0882097 260.797403,33.3484925 263.630626,28.4461954 C268.415991,20.1661334 275.367577,17.1005803 281.554829,16.8958593 Z M214.234013,17.3013459 C199.849797,17.3098983 177.330959,17.9236999 177.330959,18.5908878 C177.330959,18.8957745 177.53879,19.3522569 177.792441,19.6056517 C178.314682,20.1274103 223.917978,19.4776715 225.652894,18.9237131 C226.451643,18.6686847 226.531235,18.3191138 225.927947,17.7164388 C225.629759,17.4185351 220.772292,17.2974566 214.234013,17.3013459 Z M115.0675,18.6013281 C112.833521,18.6121256 111.407557,18.6649644 111.235703,18.771707 C108.989032,20.1674377 112.940507,20.6257609 130.396359,20.9941642 C140.722563,21.2121008 150.51039,21.4444589 152.147373,21.5103146 C155.905934,21.6615103 156.829924,20.4169091 153.357887,19.8795959 C149.604441,19.2987295 124.748148,18.5545529 115.0675,18.6013281 Z M92.2071368,19.5212951 C90.3068506,19.536946 86.4398477,19.8922727 78.5728527,20.6041276 C71.5923953,21.235776 62.422153,21.7602778 58.1941488,21.7696426 C53.966166,21.7790289 50.3010867,22.11888 50.0498539,22.5250764 C49.7985569,22.9312727 50.5807407,23.3774045 51.787895,23.5160368 C54.1076516,23.7824313 69.1560859,23.157379 84.7207897,22.1484029 C91.7071539,21.6955211 94.0413351,21.2769002 94.0413137,20.4767588 C94.0413137,19.8296691 94.1074231,19.5056506 92.2071368,19.5212951 Z M303.03873,22.1041378 C304.052735,22.6808947 304.455898,22.701831 305.42175,23.8238057 C307.392062,26.1127023 308.029678,28.1263163 306.784001,28.1263163 C306.433016,28.1263163 303.051336,30.0879489 299.269211,32.4852023 C292.585486,36.72159 291.557121,37.2525766 291.557121,36.4678316 C296.286007,31.0342252 300.455713,24.7807982 303.03873,22.1041378 Z M214.803743,23.636305 C201.735102,23.6773993 179.814566,24.4470086 177.972171,25.2102314 C175.884793,26.0749285 177.189752,29.8524584 177.07932,34.9093572 C177.054558,36.0445925 177.839482,37.3117421 179.346129,39.0185194 C181.234045,41.1572123 186.341996,47.8277164 186.640226,50.9284071 C187.696029,52.7117263 189.40323,52.4915703 190.789708,54.0324118 C193.268542,56.8118293 195.452849,57.6528362 198.964928,55.0705601 C198.964928,55.0705601 200.383637,56.4274608 202.567665,56.8349101 C203.871383,57.0781297 208.087081,63.5288863 210.72281,71.0378295 C214.847809,82.789286 216.556979,93.593008 215.924392,103.921984 C215.151283,116.545298 212.056769,141.891079 211.182195,142.764841 C211.058301,142.888597 209.496865,142.268186 207.711976,141.385933 C205.239327,140.163724 202.794628,139.76543 197.442979,139.713036 C186.248107,139.603446 175.947456,143.998032 170.943518,151.018662 C169.082589,153.629576 168.678613,160.063311 170.135524,163.889442 C171.387814,167.178183 171.177458,172.061905 169.424093,180.392907 C167.459132,188.330948 165.532714,197.792624 161.372018,202.569932 C156.595791,202.411734 95.4437572,201.901028 76.4306005,202.408249 C64.7461685,202.719984 58.9136903,203.17014 58.2739766,203.80971 C57.5458531,204.537691 67.9534259,204.748721 104.044868,204.737603 C129.736998,204.729478 153.005896,204.727554 155.753855,204.732258 L160.750196,204.741451 L158.320371,209.549676 C156.984058,212.194379 155.538876,214.358307 155.108876,214.358307 C153.955397,214.358307 154.159161,216.402268 155.416523,217.444763 C157.273043,218.984067 158.607644,217.691863 160.874346,212.16049 C163.901916,204.77224 163.859049,204.814639 168.878183,204.297133 C174.384587,203.72936 174.801617,202.471387 169.483461,202.471387 L165.602333,202.471387 L167.971977,196.374465 C169.275288,193.02126 170.976112,187.404517 171.75194,183.892879 C172.821396,179.051963 173.275452,177.987189 173.629176,179.489311 C175.541726,187.610993 176.011661,192.752743 176.040596,205.865622 C176.069231,218.841007 176.230428,220.721445 177.297102,220.51871 C180.57781,219.895069 180.069502,192.233236 176.446904,174.251382 C175.049619,167.315383 174.924291,165.377417 175.679038,162.382836 C176.672862,158.439854 176.308244,157.145477 174.296712,157.477315 C172.2476,157.815364 172.261339,154.823708 174.323036,151.774182 C176.380367,148.731096 182.337081,144.928161 187.642996,143.27022 C193.003506,141.882614 208.718277,142.135027 209.060424,148.211655 C209.060424,149.392075 209.660716,150.25124 210.719472,150.58695 C214.720855,151.855712 217.369254,164.424032 218.605022,188.009976 C219.136058,198.144599 219.353584,207.519315 219.088654,208.842671 C218.741863,210.574896 218.939421,211.376234 219.793386,211.703642 C222.052918,212.56985 223.128924,210.634912 222.72482,206.433138 L222.343594,202.471387 L230.178572,202.412098 C234.487838,202.379534 243.546664,202.290547 250.308997,202.214152 C257.071372,202.137737 269.84769,202.200469 278.701147,202.354048 L294.798706,202.633413 L294.727653,214.637672 C294.688766,221.239955 294.673036,227.087682 294.693368,227.632491 C294.713699,228.177344 295.533421,228.623031 296.515025,228.623031 L298.299871,228.623031 L298.22839,211.38669 C298.189054,201.906715 298.367607,192.203631 298.625067,189.824439 C299.034586,186.040278 299.340864,185.4408 301.072035,185.03501 C303.63044,184.435337 304.098449,181.962149 301.959043,180.34831 C300.297427,179.094892 300.297534,179.089726 301.847006,176.545664 C305.242319,170.970866 315.090049,167.818534 321.700281,170.190243 C324.39602,171.157477 324.476639,171.307318 324.476639,175.363444 C324.476639,179.798912 325.676967,181.479203 327.9753,180.260614 C330.769379,179.073478 334.306242,177.285616 336.104528,179.45632 C336.828243,180.344658 337.8464,183.657795 338.366736,186.818571 C339.815321,197.519012 340.93443,205.363126 341.176117,213.021588 C341.443294,221.819167 341.799716,229.463176 341.968232,230.009867 C342.136961,230.554527 342.961756,231 343.801146,231 C345.915726,231 346.160388,229.852546 345.405855,223.471555 C345.045111,220.420486 344.382455,212.753599 343.933236,206.433544 C343.484018,200.113575 342.689164,191.816156 342.167202,187.994943 C341.312103,181.734755 341.351632,180.914204 342.564714,179.702285 C343.83098,178.437235 343.911086,178.488235 343.911086,180.560867 C343.911086,182.497495 344.175309,182.733907 346.092203,182.513554 C348.10412,182.282276 348.277151,181.985773 348.315952,178.696711 C348.339066,176.735346 348.811056,169.959816 349.365142,163.639804 C350.777494,147.529956 349.809737,134.698296 346.69746,128.274283 C344.264832,123.253204 339.401929,118.250081 335.582031,116.838368 C334.273198,116.354695 332.59506,115.650413 331.862271,115.255673 C330.066895,114.288546 316.945756,113.55097 313.650046,115.170901 C309.959456,116.984926 305.599811,119.443015 302.604,124.107076 C300.285678,127.716421 300.052551,128.33567 300.052551,128.33567 C295.021239,127.736275 295.829447,130.551149 297.741012,131.201645 C298.322214,131.399432 298.747078,131.771459 297.583839,135.144604 C295.091843,146.313011 302.327814,155.505849 310.895859,158.499594 C314.962389,159.920476 324.391204,159.42716 325.988958,158.163427 C326.16062,158.342247 325.938857,160.571232 325.496145,163.116555 L324.691083,167.744374 L321.807289,167.161408 C313.533493,165.464895 299.549572,167.230329 297.112749,179.290951 C297.109966,180.975881 296.793352,181.074095 291.356481,181.074095 C285.4864,181.074095 277.330549,179.200931 272.632224,176.773673 C265.806778,173.247496 261.378648,165.522156 257.609343,150.563982 C254.717117,139.086295 254.678551,137.941701 257.040854,133.72644 C258.201952,131.654678 259.662094,127.998045 260.285371,125.600824 C260.908606,123.20356 261.881049,120.885632 262.446435,120.449754 C271.291738,113.630952 272.851804,111.744088 273.312729,111.077608 C274.084747,109.961265 274.241856,108.753369 275.377229,107.084119 C278.194893,102.941547 277.590706,103.263956 270.32946,104.267005 C265.489051,104.935628 264.673695,105.174019 262.683008,106.359588 C259.167568,108.453199 256.55598,111.325701 253.421831,111.331089 C249.622071,111.338059 245.318498,115.250231 245.318498,119.401585 C245.318498,120.43876 244.50357,120.521736 243.333419,120.687785 C242.07809,120.865895 241.891939,122.178824 241.721626,123.647301 C241.588423,124.795619 239.692673,125.77125 237.864318,127.1902 C236.68353,128.106584 234.398144,129.767171 235.134786,131.108939 L238.094641,135.061919 C241.204136,139.214679 242.704385,138.706771 246.249808,136.716022 C249.822347,134.71009 250.789611,132.853751 251.895301,138.57141 C252.09639,139.611288 253.181684,145.610901 254.753991,151.861042 C258.895384,168.323615 262.62257,174.92904 270.04773,178.966479 C276.25938,182.343994 282.663943,184.266422 289.479672,184.799066 L295.731279,185.287656 C294.928849,190.603381 294.551454,193.979921 294.353126,199.150233 C294.05237,199.451085 277.772812,199.812574 258.176142,199.953282 C224.144706,200.19756 222.544276,200.144043 222.51624,198.76437 C222.499975,197.969894 222.161403,190.544371 221.763848,182.262997 C220.988812,166.1176 218.776191,154.506437 215.37724,148.751192 C213.772895,146.034643 213.759091,145.761952 214.957149,140.329079 C216.626385,132.759272 218.514986,115.589922 219.061474,103.015047 C219.431036,94.510884 219.22877,91.3600719 217.904036,84.9602065 C216.034204,75.9270392 212.121252,65.0261939 208.77452,59.5280852 C206.835733,56.3430187 206.58465,55.4062313 207.344961,54.1899321 C208.684634,52.0468475 208.537584,41.6373485 207.145584,40.0797208 C201.566586,33.8368282 201.324963,33.6737703 197.666625,33.6737703 C195.695542,33.6737703 193.862029,34.0301083 193.592391,34.4659537 C192.677774,35.9443818 191.698503,35.2658706 190.479964,33.3927276 C189.027376,31.1598514 188.696787,30.7497509 188.696787,30.7497509 C188.155584,30.4137377 182.294727,27.0623932 181.828217,26.5963236 C181.226105,25.9947904 185.248163,25.7490178 195.691561,25.7490178 C212.81708,25.7490178 225.056262,25.0169685 224.445312,24.0293499 C224.290172,23.7785742 221.472102,23.6591485 217.290838,23.6380604 C216.506836,23.6341049 215.674979,23.6337842 214.803743,23.6363499 L214.803743,23.636305 Z M112.025313,24.6853106 C109.327113,24.7058578 108.761748,25.2640239 110.131768,26.3999668 C110.842642,26.9893771 116.814487,27.3804378 127.418119,27.532491 C136.328311,27.6602788 145.849625,27.8465031 148.576396,27.9459141 C151.303167,28.0453486 153.533872,27.8184983 153.533872,27.441874 C153.533872,26.358616 147.088774,25.7531829 134.98057,25.6992386 C128.824479,25.6718238 120.753442,25.3509249 117.045067,24.986398 C114.918845,24.7773922 113.251771,24.6759671 112.025313,24.6853106 Z M86.2882819,27.60933 C83.778394,27.6126655 80.7927496,27.6392805 77.3088344,27.6886728 C66.2244377,27.8458018 54.7461668,28.0084621 51.801271,28.0503133 C48.3272219,28.0996542 46.4471173,28.4477285 46.4471173,29.0412738 C46.4471173,30.2491702 95.4093221,29.4539678 96.6383488,28.2261229 C97.0656307,27.7992383 93.8179244,27.5992959 86.2882819,27.60933 Z M181.025658,29.4638822 C182.457914,29.8221872 185.311661,31.8478131 185.384127,31.9201921 C185.623118,32.1589644 181.819121,33.8074529 180.978425,34.4429007 C179.278864,35.7274523 179.572279,31.223911 179.572279,30.2009411 C179.572451,30.2015825 180.233309,30.3292292 181.025658,29.4638822 Z M308.26456,30.2372717 C311.17485,34.9137126 309.179219,41.391484 308.343125,44.025934 L305.787481,40.9252712 C303.504064,38.1548272 301.835813,40.4840099 304.66223,42.7355561 C306.740085,44.3908009 306.740791,45.5807373 307.496266,46.7023186 C306.65114,49.1102026 304.299003,50.1220267 304.299003,50.1220267 C304.299003,50.1220267 292.876654,44.0246918 289.970817,41.7074311 C289.970817,41.3997349 291.130738,40.4761503 292.548633,39.6553548 C293.966571,38.8345594 297.764126,36.4397712 300.987606,34.3334898 C304.211086,32.2272083 307.670582,30.2372738 308.26456,30.2372717 Z M132.819934,31.5117806 C128.952589,31.5069699 125.249436,31.5742602 122.249153,31.7331083 C113.48355,32.1971787 111.492371,32.5222363 111.492371,33.4882708 C111.492371,34.4171365 112.136044,34.5672141 114.466844,34.1823196 C116.102907,33.9121557 126.454921,33.6874156 137.471004,33.6824552 C148.487066,33.6776659 157.500264,33.3649751 157.500264,32.9875725 C157.500264,32.1907516 144.421927,31.5262107 132.819934,31.5117806 Z M59.7792117,34.5285081 C47.8600261,34.5412298 45.593217,34.9345099 46.7890499,36.1291608 C47.1419828,36.4818041 96.505809,36.415972 97.2139434,36.0619261 C98.8439495,35.2469826 89.4802372,34.74213 69.648985,34.575279 C65.7942666,34.5428483 62.5297814,34.5255746 59.7792117,34.5285081 Z M186.261098,34.8671789 C187.386819,34.8353383 187.79942,36.045623 189.091795,37.6801176 C190.851494,39.905705 191.131512,39.5426042 189.641879,39.5426042 C186.112978,40.1684605 187.684365,42.4131497 190.347039,42.2586591 C193.44945,42.0499292 194.534594,42.7860944 197.566294,47.156665 C199.362612,49.7462619 199.572154,50.5129613 198.754251,51.497593 C195.538519,54.605906 194.682821,53.858116 193.892505,52.7624976 C190.962269,49.4849475 190.331629,49.9037052 190.779671,46.1974425 C190.855325,42.984726 188.6915,42.636686 187.357499,44.6147477 C185.971406,43.2369321 180.427357,37.494043 183.31755,36.1784354 C184.406718,35.6826548 185.585665,34.8862829 186.261098,34.8671789 Z M197.527836,36.3951704 C199.34335,36.4010502 201.80226,37.2155254 201.921424,38.4735539 C201.921424,39.5886739 200.952683,39.3555418 198.839109,37.7319002 C197.798116,36.9322527 194.348743,37.5300742 196.037261,36.6724543 C196.388952,36.4812653 196.922664,36.3932119 197.527836,36.3951704 Z M135.289459,40.0136535 C116.145967,40.0136535 110.699358,40.233029 110.699423,41.004197 C110.699444,41.7664171 115.408534,42.0359824 131.124932,42.1734708 C152.422383,42.3598041 159.879923,41.9903916 159.879923,40.7490446 C159.879923,40.3125728 149.883132,40.0136535 135.289459,40.0136535 Z M75.4002444,42.3910396 C61.9152146,42.3910396 54.3790661,42.6752509 54.3790661,43.18364 C54.3790661,43.692029 61.9152146,43.9762403 75.4002444,43.9762403 C88.8852956,43.9762403 96.4209946,43.692029 96.4209946,43.18364 C96.4209946,42.6752509 88.8852956,42.3910396 75.4002444,42.3910396 Z M67.0222874,68.5059334 C66.6924253,68.5065749 66.333928,68.5558559 66.0086459,68.5539573 C60.4861262,68.7437244 57.154697,68.9511672 53.9690124,69.494388 C53.8457395,69.6248956 53.4953105,72.4249671 53.1902743,75.7170114 C52.6565411,81.4763575 51.9035704,82.3314737 53.6964851,83.1732204 C54.7213196,83.6543893 57.0762176,83.3267746 57.9487801,83.1732204 C58.8213212,83.0196428 61.249712,82.6713184 63.345159,82.3994119 C68.2066276,81.768623 68.3174877,82.2978671 68.3648921,79.1095763 C68.4045706,76.4408654 68.231539,71.8508101 68.1500419,69.3661854 C68.042863,68.6385106 67.5720503,68.5049136 67.0222874,68.5059334 Z M84.0507287,69.5424119 C82.2861068,69.5499167 80.5238392,69.7311485 78.7672215,70.0873753 C75.5934789,70.7456024 74.2101899,71.4045586 74.2101899,72.257633 C74.2101899,73.2086623 74.698081,73.350568 76.3917353,72.8923795 C89.4253636,69.426963 97.410859,74.0368 101.515569,77.6513254 L99.2115639,78.0501303 C95.4523392,78.7006731 96.4964779,79.9995137 101.180335,80.4989248 C103.579877,80.7547806 105.789929,81.0221544 106.091391,81.093165 C107.379293,81.3966726 107.603025,79.3057449 106.633963,76.0268692 C105.875792,73.4616594 105.184394,72.5052678 104.087521,72.5052678 C102.551061,72.5052678 102.937038,73.558849 103.091001,74.4274694 C103.276574,75.4745037 103.472612,76.0767383 102.905407,76.0690475 C96.685903,71.7062104 90.3529709,69.515613 84.0507287,69.5424119 Z M64.1548224,70.2473159 C64.885407,70.2587548 65.4577058,70.3658137 65.7549091,70.6231534 C66.729557,71.5729597 66.5598641,79.3698708 65.7160439,79.8909024 C65.2994628,80.1480839 62.6652318,80.5933348 59.8623781,80.8801909 L54.7665625,81.4017699 L55.1678415,76.3588607 L55.5691205,71.3163662 C56.9152137,71.3875308 61.5455456,70.2064953 64.1548224,70.2473159 Z M303.626845,75.4334629 C298.806959,75.4414808 298.262953,75.770342 299.225317,76.7317753 C300.037527,77.5432059 318.767862,77.334399 320.08975,76.4991735 C320.848606,76.0197044 317.318314,75.6782498 309.974587,75.5207402 C307.315209,75.4636935 305.23348,75.4307881 303.626845,75.4334629 Z M237.950438,75.8485559 C237.324121,75.8326057 236.832699,76.1303875 236.823924,76.7714457 C236.823924,77.8924283 238.262066,78.0526362 248.325994,78.0526362 C255.465122,78.0526362 259.827656,77.7519102 259.827656,77.2600359 C259.827656,76.7754311 256.05253,76.4627788 250.110433,76.4565783 C244.766017,76.450613 239.590438,76.2308034 238.608771,75.9679881 C238.382877,75.8940354 238.15921,75.8538734 237.950438,75.8485559 Z M309.80194,80.4300202 C302.962755,80.4300202 297.903193,80.7443317 297.903193,81.1695871 C297.903193,81.5764912 298.884989,82.05831 300.084717,82.2398903 C305.740419,83.0958233 321.700324,82.2567813 321.700281,81.1036053 C321.700281,80.7330233 316.346148,80.4300202 309.80194,80.4300202 Z M253.406785,81.3508232 C251.569634,81.3351082 248.899555,81.4325286 245.21316,81.629779 C238.191654,82.0054968 234.642593,82.4870569 234.97177,83.0191275 C235.480635,83.8416976 255.641321,83.2915173 256.50207,82.4315668 C257.217117,81.7172081 256.468705,81.3770171 253.406785,81.3508232 Z M112.924007,85.0503231 C110.890581,85.0397609 111.000072,85.7523086 111.104875,87.9613963 L111.244499,90.9021207 C111.517818,94.3500197 111.288479,97.3881388 112.009839,98.2163449 C113.280685,99.6754404 116.571943,99.7034089 122.569748,98.7963881 L126.111876,98.26061 L126.05086,91.9206413 C125.800291,86.8174441 126.830476,85.6607252 124.569873,85.5602088 L113.359571,85.0615973 C113.204324,85.0546913 113.059564,85.0510351 112.924007,85.0503296 L112.924007,85.0503231 Z M176.021784,85.4073688 C163.268773,85.5539827 152.041135,93.9194917 151.212296,103.626742 C150.800937,108.444578 151.079778,114.576056 152.831216,117.845529 C153.621511,119.32082 152.931311,119.320467 151.129536,120.755768 C148.339245,122.978518 151.148798,125.471058 155.151101,123.070512 C155.151101,123.070512 154.877996,122.640841 156.2609,124.605602 C159.373584,129.02797 164.607782,133.405922 168.731882,135.03636 C174.008583,137.122518 180.856736,136.870957 186.501865,134.383654 C202.382071,127.023886 202.256593,111.771927 194.056355,97.2763333 C189.659557,91.2568017 183.125065,85.3257062 176.021784,85.4073688 Z M252.105978,86.1139448 C251.552234,86.1158691 250.961402,86.2554037 250.507132,86.3294247 C248.871091,86.5996529 245.212432,86.9689713 242.37662,87.1504212 C240.629697,87.704155 234.897849,86.4268473 237.770686,88.6324756 C238.789314,89.4059271 240.610971,89.4878655 245.306385,88.9703126 C252.548262,88.1720741 253.482012,87.9154357 253.482012,86.72489 C253.176312,86.247993 252.6597,86.1120911 252.105978,86.1139448 Z M113.079082,87.4832465 C116.495497,87.756299 120.352612,87.743139 123.776518,87.7559377 C123.625487,89.7368644 124.408334,94.3264471 123.891893,95.8970082 C123.563551,96.7517759 122.163975,97.0721275 118.755522,97.0721275 C114.142739,97.0721275 114.062976,97.033599 113.574828,94.5953539 C113.100933,92.2137044 113.079082,89.888877 113.079082,87.4832465 Z M181.29108,89.9395564 C181.754959,89.9395564 181.779785,90.648279 181.355028,91.7644595 C180.942599,92.8481066 180.966505,94.1356687 181.413968,94.9344438 C181.918039,95.834364 181.883582,96.2795272 181.309892,96.2795272 C180.838224,96.2795272 180.246385,95.7436829 179.994853,95.0889558 C179.402051,93.5456598 180.309456,89.9395564 181.290652,89.9395564 L181.29108,89.9395564 Z M168.150038,90.8219419 C168.475384,90.8498057 168.605591,91.1282676 168.45685,91.5740338 C168.26597,92.1460976 167.641323,92.7701899 167.068682,92.9608765 C166.473783,93.1590164 166.176066,92.8620278 166.374373,92.2676657 C166.56521,91.695587 167.189943,91.0715289 167.762541,90.8808231 C167.911282,90.8312919 168.041596,90.812654 168.150038,90.8219419 Z M175.797325,91.5247591 C176.262573,91.5247591 176.530178,92.4778047 176.392138,93.6428151 C176.254076,94.8078255 175.640965,95.9253102 175.029458,96.1262682 C174.200491,96.3986494 174.046464,96.0109583 174.423773,94.6024545 C174.702122,93.5633932 174.934221,92.4458871 174.940428,92.1189993 C174.94642,91.7921115 175.332033,91.5247591 175.797325,91.5247591 Z M185.705984,92.5758516 C185.917068,92.5883167 186.056692,92.7435877 186.056692,93.016001 C186.056692,93.4518571 185.699607,94.0290416 185.263336,94.2984423 C184.827044,94.5678002 184.470387,94.4315412 184.470387,93.9956851 C184.470387,93.559829 184.827044,92.9826423 185.263336,92.7132416 C185.42693,92.6122249 185.579351,92.5683789 185.705984,92.5758516 Z M170.113373,95.5265972 C170.374729,95.5070764 170.62945,95.7065996 170.763359,96.0811671 C170.958092,96.6259936 171.62291,97.0721275 172.240986,97.0721275 C173.622435,97.0721275 173.694558,98.9432179 172.393151,101.025108 C171.063495,103.152184 172.669766,104.974736 174.521172,103.439659 C175.538152,102.596462 175.744655,102.642361 175.744655,103.711097 C175.744655,104.954323 175.242703,105.122682 170.985315,105.307155 C169.565729,105.368681 168.930039,105.899503 168.748618,107.175906 C168.609187,108.156589 168.876813,108.959048 169.343431,108.959048 C169.810049,108.959048 170.191959,109.672098 170.191959,110.543831 C170.191959,111.415546 170.587225,112.129032 171.070172,112.129032 C171.553248,112.129032 171.75943,112.620395 171.528722,113.221052 C171.297991,113.82173 171.473784,114.677826 171.919557,115.123209 C173.002496,116.205075 169.950443,119.261186 167.787217,119.261186 C166.900958,119.261186 165.985977,119.756257 165.753642,120.361139 C165.521307,120.966018 164.372365,121.654052 163.200502,121.890381 C162.028596,122.126688 160.444838,122.561623 159.681381,122.856702 C158.612374,123.269862 157.609347,122.807389 157.609347,121.438957 C159.42285,120.368434 158.147425,117.057425 156.193592,118.095669 C152.923778,112.991082 152.980299,101.117029 157.103586,100.366973 C157.976148,100.208261 159.334483,99.5069217 160.12236,98.8084983 C161.244464,97.8138582 161.8671,97.733363 162.995282,98.4372535 C163.970101,99.0454469 164.695978,99.0758528 165.241182,98.5312145 C166.212641,97.5606793 167.342087,99.079618 167.385938,101.415561 C167.43589,104.074437 169.734651,103.701159 170.811021,100.859322 C171.662631,98.6109955 171.614799,98.1284519 170.456547,97.27842 C169.720291,96.7381092 169.408427,96.0246207 169.763522,95.6932194 C169.874467,95.5896626 169.994573,95.5354746 170.113373,95.5265972 Z M193.148886,102.619079 C193.610924,102.619079 193.989068,102.975823 193.989068,103.411679 C193.989068,103.847538 193.831596,104.20428 193.639196,104.20428 C193.446796,104.20428 193.069059,103.847538 192.799442,103.411679 C192.529782,102.975823 192.68687,102.619079 193.148886,102.619079 Z M114.431318,103.930752 C113.523207,104.006978 112.582202,106.245567 111.915373,107.641946 C110.76581,110.069569 108.683482,113.019185 107.287716,114.19656 C104.744485,116.341943 97.1437463,120.247588 96.5894462,119.693816 C96.4271155,119.531648 96.8887469,118.491955 97.6156291,117.383667 C98.8276629,115.535621 98.7035982,113.711958 97.3656804,113.714652 C96.1504363,113.716362 92.3668994,121.698645 92.8542127,123.232539 C93.2648656,124.525177 94.0585848,124.808555 97.2674473,124.808555 C100.136025,124.808555 101.180335,124.505594 101.180335,123.672689 C101.180335,123.022435 100.247335,122.4294 98.9987897,122.285846 C97.0990385,122.067495 97.5283321,121.698499 102.321894,119.430729 C105.349228,117.998533 109.151577,115.434936 110.771738,113.733444 C114.068112,110.271587 116.12418,105.344745 114.817551,104.039329 C114.690041,103.953202 114.561054,103.919863 114.431318,103.930752 Z M28.9087199,104.200521 C27.4719912,104.256796 23.9745502,105.809014 16.3039572,109.576674 C14.7769782,110.326722 12.9954919,112.041207 12.3450989,113.386838 C11.5624014,115.006345 10.0202701,116.305485 7.78389394,117.229572 C4.55189636,118.565036 3.50193642,120.194739 5.19856554,121.242269 C6.50737721,122.050407 6.09544021,123.223771 4.50258719,123.223771 C2.67851186,123.223771 0.896576165,125.20962 1.64098621,126.412964 C1.9408219,126.897631 2.66883836,127.053259 3.29583951,126.868563 C5.28044786,126.998325 4.14436808,127.887948 2.68262095,128.121358 C0.67641844,128.416251 -0.295597068,130.355923 1.56280635,130.355923 C3.35126952,130.355923 3.11640893,131.725992 1.1473167,132.778825 C-0.0751611232,133.432434 -0.288406148,133.908512 0.353961316,134.550276 C0.837079861,135.032954 1.56272075,135.479796 1.68027945,136.365572 C3.48712654,147.405227 8.83357566,154.122297 18.8328497,155.872401 C31.2330137,157.908854 45.0955026,152.485201 48.5525802,144.237708 C49.1428991,142.829376 49.42281,142.103576 49.74638,140.710259 C53.6092096,140.623209 53.3417544,136.855116 50.3257413,137.129777 C50.4389341,135.838858 50.4013529,135.086886 50.3575012,133.242776 C52.2920941,132.456492 50.6506382,125.008833 49.5344618,123.447602 C48.6432586,122.201043 47.1079757,122.591109 47.1079757,122.591109 C46.2591689,120.92174 42.8712397,115.395317 40.6051796,114.642553 C43.8389535,113.23721 41.5294482,110.941336 39.3674852,112.097296 C37.8001429,112.935316 37.7089937,112.849882 38.1782654,110.981892 C38.606382,109.277813 38.4148381,108.959048 36.961887,108.959048 C36.0133276,108.959048 34.5470434,109.328405 33.7031803,109.779627 C32.5082891,110.41847 32.1686893,110.341097 32.1686893,109.430099 C32.1686893,107.443761 30.9363882,107.337602 26.312541,108.926893 C23.8618283,109.769262 21.8566531,110.305425 21.8566531,110.1183 C21.8566531,109.931197 23.6412211,108.874484 25.8226381,107.770146 C28.0040337,106.665834 29.7890298,105.412022 29.7890298,104.983517 C29.7890298,104.458538 29.5617882,104.174943 28.9087199,104.200521 Z M53.3236273,104.243952 C52.9458044,104.252954 52.8710702,104.813829 53.2278982,105.987421 C54.057572,108.716189 57.4548323,112.884831 60.2222879,114.570728 C62.8428005,116.167102 67.8645239,116.645789 67.8645667,115.299019 C67.8645025,114.863182 67.0248128,114.506416 65.9986085,114.506416 C63.3208468,114.506416 59.134062,111.432704 56.5250849,107.551743 C55.0760931,105.39635 53.8758301,104.230805 53.3236273,104.243952 Z M187.464935,104.434376 C187.558438,104.43448 187.613569,104.502711 187.617913,104.646933 C187.631824,105.108448 187.119022,106.178262 186.478452,107.024317 C185.837925,107.870393 185.302522,108.18531 185.288825,107.723794 C185.274914,107.262281 185.787738,106.192465 186.428287,105.34641 C186.868666,104.764734 187.259245,104.434149 187.464935,104.434376 Z M182.524195,104.481147 C182.740265,104.485081 182.883655,104.821686 182.883655,105.566066 C182.883655,106.489321 182.666943,107.808564 182.40212,108.49802 C181.584603,110.626441 180.443708,109.879447 180.988035,107.572205 C181.434877,105.678207 182.11168,104.473627 182.524195,104.481147 Z M271.167566,106.251344 C272.284235,106.229809 272.607313,106.373857 272.15696,107.546315 C271.918097,108.168239 270.775554,110.832541 270.296459,110.540909 C269.732015,110.197352 267.779252,107.113683 267.779252,107.113683 C268.030806,106.974933 270.90987,106.256313 271.167566,106.251344 Z M155.964531,109.178705 C155.859985,109.178064 155.758734,109.191021 155.653952,109.194164 C155.041354,109.212445 154.650434,109.662241 155.5875,111.472577 C156.47376,113.184796 157.089397,113.648644 157.68543,113.053185 C158.281484,112.457707 158.135312,111.609705 157.186752,110.163408 C156.622351,109.302837 156.278171,109.180683 155.964531,109.178714 L155.964531,109.178705 Z M264.104221,109.506936 C265.245137,111.229533 266.285638,112.493285 267.236444,113.240383 C263.175436,115.916431 260.209974,119.217377 254.156396,123.796831 C253.717236,122.319791 253.482012,121.82324 253.482012,120.111415 C253.482012,117.692966 253.972171,116.15728 255.596249,114.881003 C257.302359,113.760886 262.631195,109.536307 264.104221,109.506936 Z M18.0361557,111.805394 C18.4320415,111.803898 18.7793673,111.888308 18.8742403,112.109406 C18.8742403,112.545263 17.0958787,113.939586 16.4414836,114.482196 C15.7777145,115.032511 15.5106018,114.35007 15.5106018,113.908 C15.5106018,113.472163 16.046197,112.671663 16.7006349,112.129032 C16.9378283,111.951174 17.5271413,111.807284 18.0361557,111.805394 Z M26.8525876,114.584925 C28.0627167,114.584925 28.9956744,114.823047 28.9956744,115.299019 C28.9956744,115.734896 27.3001368,116.066289 25.2278249,116.035661 C22.3928046,115.993745 21.8526082,115.811498 23.0462795,115.299019 C24.1549867,114.823047 25.6424371,114.584925 26.8525876,114.584925 Z M37.3368422,115.917062 C38.4948371,115.917062 44.4781321,120.714637 44.1932775,123.431733 C44.0709035,124.599017 38.4220933,126.367715 25.5952467,129.237179 C9.31735766,132.878685 8.37160185,133.326341 8.37160185,137.386599 C8.37160185,140.028162 9.67660404,141.450662 12.0997301,141.450662 C14.2705105,141.450662 14.5395708,139.520748 12.5361291,138.320348 C11.2519078,137.550895 11.288162,137.369654 13.0205745,135.903292 C15.5149677,133.989059 18.4797242,134.27231 21.0938163,132.995558 C23.6050097,131.744006 23.7929581,131.750057 24.5870411,133.109564 C27.1717917,137.534957 28.7267426,138.606597 32.2660878,138.40011 C36.1127592,138.175691 39.3077107,136.495216 39.3077107,134.696434 C39.3077107,133.189845 40.4278463,133.198152 41.6873702,134.714394 C42.2304987,135.368168 43.1982767,136.240519 47.29357,135.19839 C47.32182,136.958927 47.3933226,136.979479 47.1589756,137.354029 C42.5757913,137.441531 42.7601014,139.718668 44.4185716,140.354469 C45.4031498,140.731905 45.3856005,141.165617 44.2927519,143.455134 C42.5601896,147.084876 37.4210573,150.583987 31.614004,152.087296 C23.2969558,154.240382 16.010649,153.170678 11.6934431,149.162443 C8.79274151,146.469336 5.21444549,139.767145 5.20609888,137.012016 C5.19561212,133.517811 6.73519668,129.563742 8.10615845,129.563742 C8.91089946,129.563742 9.11588348,129.072667 8.76827954,127.978541 C8.33860066,126.626056 8.62565963,126.393758 10.7257721,126.393758 C12.9131816,126.393758 13.0953943,126.223122 12.3655801,124.860756 C11.2320257,122.744697 11.229372,122.750663 14.1224332,121.005911 C15.6858805,120.063083 18.9838805,119.237017 22.5020595,118.907066 C25.6929019,118.607845 29.7536103,117.851746 31.5258082,117.227068 C33.6926508,116.638124 35.4836179,116.951274 37.3368422,115.917064 L37.3368422,115.917062 Z M77.2294133,116.487501 C74.9134448,116.852353 70.4433248,116.191182 70.5610761,117.622531 L70.5911667,122.034869 C70.62817,127.422855 70.1289147,128.406779 72.389817,128.396138 C76.982739,128.374511 80.1881987,128.226046 83.3978103,127.742595 C83.9407675,127.660811 84.6267727,128.14876 84.5209849,126.03838 L84.3579693,121.734199 L84.1255485,116.487501 L77.2294133,116.487501 Z M316.829759,117.460087 C317.71878,117.472146 318.379831,117.95092 319.69808,119.057398 C323.168234,121.970059 327.097045,128.126603 328.010399,132.083109 C328.870441,135.808629 328.953629,146.754879 328.150857,150.563897 C327.771536,152.363568 326.789269,153.374691 324.110052,154.724425 C319.955541,156.817414 314.64601,157.010429 310.594889,155.215519 L307.818552,153.985277 L311.936681,152.141999 C315.377835,150.60156 316.38816,149.640618 318.08419,146.296883 C320.110103,142.302813 320.643751,139.896855 319.518757,139.829965 C319.191549,139.810508 315.175826,139.721546 310.594889,139.632024 C306.013931,139.542521 301.810281,139.277505 301.371742,138.888281 C300.612907,138.214786 302.303459,132.853992 302.303459,132.853992 C304.27636,133.727588 306.049222,131.70833 303.80116,130.494566 C302.220142,129.64094 302.8813,129.615456 305.358209,125.956948 C308.502567,121.893994 311.93225,117.770483 316.648766,117.463845 C316.710339,117.460553 316.770498,117.459291 316.829759,117.460082 L316.829759,117.460087 Z M82.2311905,118.425572 C82.2311905,118.425572 81.9729166,120.947051 81.9887323,122.211513 C82.0047835,123.486698 82.3285675,126.022094 82.3285675,126.022094 L77.6908735,126.232981 L73.0080435,126.400854 L72.9215171,122.745621 C72.8771731,120.876075 72.8381152,119.2 73.0105475,118.92126 C73.1829798,118.642542 75.3544451,118.650104 77.7945426,118.570479 L82.2311905,118.425572 Z M249.283221,119.638694 C249.670888,119.569146 250.125607,121.031151 250.179411,123.710272 C250.224846,125.971314 250.77172,127.970498 251.593068,128.877211 C252.844845,130.259187 252.84553,130.355923 251.600131,130.355923 C249.891367,130.355923 248.720553,127.254666 248.720531,122.728918 C248.720531,120.673325 248.981245,119.692788 249.28275,119.638694 L249.283221,119.638694 Z M171.413346,123.223771 C172.519378,123.223771 172.928768,124.221883 173.69229,128.778238 C174.07191,131.043836 173.849698,131.752165 172.492626,132.59884 C170.87743,133.606612 170.843251,133.540282 171.371977,130.41397 C172.05963,126.347542 170.581425,125.533952 166.77441,127.88458 L164.109233,129.529915 C163.059316,128.64481 162.109665,128.134261 163.181711,126.471847 C163.181711,127.967718 165.020917,127.436755 165.994003,125.863823 C166.349269,125.289469 168.03432,124.852095 168.522467,125.15349 C169.010594,125.454883 169.624262,125.144189 169.885982,124.462783 C170.147722,123.781343 170.83499,123.223771 171.413346,123.223771 Z M310.173129,123.771242 C308.379679,123.771242 308.143449,125.514729 309.602992,126.415889 C310.504446,126.972477 312.880253,127.980592 313.61285,126.025433 C314.30489,124.178527 311.362862,123.771242 310.173129,123.771242 Z M255.861693,125.601155 C256.297985,125.601155 256.654641,125.957482 256.654641,126.393338 C256.654641,126.829216 256.297985,127.185939 255.861693,127.185939 C255.425401,127.185939 255.068337,126.829216 255.068337,126.393338 C255.068337,125.957482 255.425401,125.601155 255.861693,125.601155 Z M45.8167775,126.694843 C47.1571351,126.659145 47.5996121,127.633514 47.9134658,128.797866 C48.3566919,130.442161 47.9650435,131.488131 47.009336,132.238035 C45.7687739,133.787831 43.6747822,133.385126 42.6675825,132.195023 C40.8814522,130.084523 41.6660115,128.268299 43.3602008,127.44652 C44.4127076,126.935988 45.2075397,126.711069 45.8167775,126.694843 Z M242.195627,128.3122 C242.726043,128.308673 244.970295,130.349571 245.594386,130.913835 C246.477264,131.712054 245.126912,132.739441 242.801719,133.634065 C241.672124,134.068688 240.260478,131.862568 239.772073,130.591031 C239.225435,129.167984 241.183013,128.318925 242.195627,128.3122 Z M45.5191676,128.614541 C45.3981419,128.616037 45.2652168,128.628374 45.1187232,128.652124 C43.7545672,128.883565 43.0163208,131.139017 45.1388407,131.29886 C46.4200016,131.494915 46.7199015,130.50218 46.6653917,129.760847 C46.6176877,129.112181 46.3664549,128.604154 45.5192318,128.614541 L45.5191676,128.614541 Z M168.755723,129.671064 C169.185166,129.644288 169.354752,130.071958 169.249799,130.405617 C169.05894,130.977676 168.434636,131.601752 167.862037,131.792459 C167.267074,131.99058 166.969443,131.693213 167.16775,131.09883 C167.358609,130.526772 167.98332,129.902674 168.555918,129.711987 C168.627827,129.688017 168.694365,129.674887 168.755723,129.671064 Z M33.9961889,129.711153 C34.3925884,129.719641 34.7499729,129.775159 35.0416117,129.886961 C36.6841806,130.516672 36.3773252,134.132741 34.6006114,135.082712 C31.2692893,136.86387 27.7517309,135.26051 28.3364854,132.227178 C28.574813,130.990667 31.8555633,129.665285 33.9961889,129.711153 Z M335.730001,130.696683 C335.818005,130.707673 335.917415,130.770332 336.029302,130.882097 C336.493566,131.345909 336.761577,133.23373 336.624522,135.077283 C336.301358,139.424106 335.185353,138.303096 335.185353,133.63156 C335.185353,131.568307 335.348711,130.649014 335.730001,130.696683 Z M33.0832845,131.404512 C32.5551371,131.408211 31.9217369,131.561622 31.7506957,131.975368 C31.563475,132.428273 31.5020097,133.090071 31.7720973,133.525907 C32.5050789,134.710798 34.569622,134.481307 34.5484559,133.21438 C34.5309066,132.16645 34.3255374,131.899816 33.7977324,131.535637 C33.6790394,131.453742 33.4002628,131.402295 33.0833701,131.404512 L33.0832845,131.404512 Z M339.44058,132.215068 C339.512725,132.225994 339.598524,132.347577 339.693482,132.584643 C339.92265,133.1567 339.894336,133.840093 339.630776,134.103445 C339.367194,134.366778 339.179588,133.898621 339.214024,133.06321 C339.237822,132.486213 339.320346,132.196879 339.44058,132.215068 Z M302.535451,142.548942 C306.599648,142.536819 314.777265,142.987268 315.172809,143.382468 C315.950305,144.15921 313.899673,147.6675 311.904899,148.973268 C309.067247,150.830779 305.245529,150.748665 303.634378,149.98636 C301.861602,149.147583 300.187809,143.579595 300.282853,142.734356 C300.296978,142.609151 301.180733,142.552988 302.535451,142.548942 Z M19.8423179,144.778081 C19.7870806,144.781075 19.7353744,144.787467 19.6872423,144.797709 C18.5183326,145.046565 18.7263984,145.514706 20.948778,147.631945 C23.6434469,150.199143 28.2893377,151.158396 29.3923521,149.375417 C29.6688815,148.928378 29.0241599,148.582816 27.9134624,148.582816 C26.8305012,148.582816 24.8514359,147.664049 23.5157011,146.54118 C22.2634323,145.488491 20.6710287,144.733318 19.8423179,144.778083 L19.8423179,144.778081 Z M340.712967,146.997614 C341.13554,146.997614 341.275934,147.532737 341.024809,148.186513 C340.773683,148.840308 340.427962,149.375414 340.256514,149.375414 C340.085045,149.375414 339.944694,148.840308 339.944694,148.186513 C339.944694,147.532737 340.29035,146.997614 340.712967,146.997614 Z M106.047925,147.180519 C100.542462,148.700337 97.8753154,149.087417 93.2371934,149.999357 C86.2837234,151.366536 81.0329392,152.527903 74.8263191,153.991959 C73.7955563,154.479003 74.3420662,164.813104 77.4028728,164.339196 L80.4166388,163.843088 C80.4714482,164.968987 82.7019603,167.476983 82.7019603,167.476983 C83.3071747,169.194675 69.1255459,185.346792 46.6531072,186.445741 C46.6347019,186.209631 46.3476857,184.786385 46.0165824,183.253869 C45.2418249,179.667932 42.908243,175.27622 40.0483969,172.022159 C33.349905,164.400344 15.5922273,164.017874 9.11562667,171.356092 C6.12867681,174.740406 4.16632607,179.2556 4.98872336,187.413978 C6.31957862,200.616414 5.3003299,215.716023 9.93825937,228.175291 C10.3637649,229.293304 11.0888494,230.207727 11.5496461,230.207727 C13.2626046,230.207727 13.2921602,227.542221 11.6574885,220.45307 C8.06669399,204.880449 7.07886274,180.90155 9.81744763,175.789309 C14.8140456,168.847095 22.7190926,167.037075 29.4500293,168.899782 C36.180966,170.762482 41.7378137,176.297899 42.0372428,184.046053 C42.7532101,186.364759 41.6267825,186.339174 36.4205777,183.917433 C31.7301288,181.735544 26.2459179,177.058547 24.5611239,173.803631 C23.3124934,171.391319 21.2896618,170.84605 20.5671456,172.727066 C19.3849027,175.805054 30.8134363,185.604472 38.6844548,188.261703 L42.8774033,189.676942 L43.4722165,197.460962 C44.9665796,217.020157 46.749671,223.112825 50.023102,219.842536 C51.1054425,218.761213 51.115865,218.29748 50.1104631,215.893314 C48.8424856,212.861274 47.4193897,203.29291 47.028148,195.168362 L46.7719072,189.846068 C68.5992176,188.552686 78.304413,179.189323 86.2205674,168.317233 C91.0009456,166.572265 98.8926808,165.305308 104.204545,157.790844 C108.596763,156.705159 107.09797,157.130295 108.494892,156.44451 C111.442912,154.997238 118.575235,150.057159 118.283596,148.859681 C118.074182,147.999737 111.597303,147.610996 106.047925,147.180519 Z M108.823021,149.335325 C110.054294,149.321021 111.478139,149.403206 111.95426,149.673996 C110.674896,150.536998 112.240163,151.260033 112.240163,151.260033 C111.293144,152.172771 108.755734,153.051528 108.127064,153.051528 C106.86373,153.051528 106.09199,149.605996 107.061159,149.44557 C107.414948,149.387007 108.08426,149.343903 108.823021,149.335325 Z M103.543687,150.319602 C103.696558,151.320413 104.076093,153.010228 104.698215,154.162754 C105.177738,155.051097 100.686623,155.998098 99.3645422,155.998098 C101.108105,153.500185 102.530366,151.373371 100.193017,151.054574 C102.220793,150.682713 103.543687,150.319602 103.543687,150.319602 Z M345.136239,151.544 C345.279072,151.477088 345.325022,153.272533 345.385781,157.451337 C345.449664,161.843306 345.157661,165.340712 344.704034,165.620804 C343.781371,166.190501 343.765641,160.673534 344.671012,154.130183 C344.895535,152.507499 345.038519,151.589781 345.136239,151.544 Z M95.7881509,152.512408 C95.1974681,154.823383 92.7201534,156.834166 91.3427283,157.318125 C88.7797003,158.218642 78.5030408,160.171153 78.5030408,160.171153 C78.0634958,158.847038 76.9731511,156.644396 78.989605,155.689493 C84.4614458,154.393665 90.8657306,153.026923 95.7881509,152.512408 Z M339.944694,153.337582 C340.381007,153.337582 340.738049,154.386346 340.738049,155.668195 C340.738049,156.950066 340.381007,158.219251 339.944694,158.488652 C339.47264,158.780107 339.151338,157.836544 339.151338,156.158036 C339.151338,154.60681 339.508423,153.337582 339.944694,153.337582 Z M335.185353,173.941857 C335.621624,173.941857 335.978709,174.298584 335.978709,174.734458 C335.978709,175.170288 335.621624,175.527058 335.185353,175.527058 C334.749061,175.527058 334.391998,175.170288 334.391998,174.734458 C334.391998,174.298584 334.749061,173.941857 335.185353,173.941857 Z"/>
  </g>
</svg>
