<?xml version="1.0" encoding="UTF-8"?>
<svg xmlns="http://www.w3.org/2000/svg" width="254" height="155" viewBox="0 0 254 155">
  <g fill="none">
    <path fill="#FFF" d="M247.830584,3.23276166 C246.89216,3.20894916 245.786123,4.45625583 244.477282,6.77776553 C241.485665,12.0840768 238.372392,16.7164362 227.457139,20.893183 C212.126149,26.7596119 216.72675,44.0631474 219.344458,44.8384903 C219.344458,44.8384903 153.366716,131.768521 150.92694,139.84561 C145.001781,154.091623 149.593678,154.151331 161.05138,144.3704 C168.73398,137.812094 220.766726,72.1035987 228.502561,52.495389 C233.777691,52.1205961 255.072098,38.0758145 250.692926,10.0452665 C249.96646,5.39518005 249.037084,3.26338189 247.830584,3.23276166 Z M92.2710777,4.28076035 C91.7324893,4.27890827 91.1930224,4.28023119 90.6530872,4.28438515 C73.7769808,4.41784362 56.2686472,7.54377925 39.7238971,14.8599687 C-10.6981979,37.1569245 -2.47870246,90.5076739 24.0974601,117.535869 C50.67362,144.564056 114.746929,147.700554 136.879205,128.723299 C159.011469,109.746057 141.294122,94.951163 127.672023,89.9323877 C104.116532,77.8559684 127.2652,67.4263396 147.654785,71.6347968 C179.305989,78.1676846 202.869331,59.0878346 172.66254,30.8310863 C157.356156,16.512797 126.20213,4.39529054 92.2710777,4.28076829 L92.2710777,4.28076035 Z M110.956241,101.146165 C110.970883,101.146152 110.985525,101.146152 111.000167,101.146165 C115.475901,101.146107 119.76834,102.370283 122.933129,104.549371 C126.097919,106.728459 127.875796,109.683945 127.87562,112.765609 C127.875598,115.847184 126.097634,118.802538 122.932866,120.981515 C119.768098,123.160492 115.475772,124.384598 111.000167,124.38454 C101.680396,124.384466 94.1252729,119.182524 94.1252275,112.765609 C94.12483,106.360286 101.653338,101.162912 110.956241,101.146165 Z"/>
    <path fill="#030303" d="M24.5336892,121.296184 C-17.0911469,78.834819 -2.73401214,25.1789892 44.9219197,10.3343298 C70.3827577,-0.267497732 120.037257,-1.64536834 148.803585,12.2797846 C185.255494,29.9253734 192.747314,49.7972484 188.953539,59.7198905 C177.967777,88.4531904 125.933943,64.2219611 121.507623,79.436217 C120.057201,84.4216442 135.428215,90.9084972 139.163922,92.9429314 C158.321044,100.884929 150.002547,119.509082 144.567455,126.079604 C120.17234,155.571068 47.9268614,145.159475 24.5336892,121.296184 Z M128.051422,132.077285 C140.102264,127.897281 146.405629,112.276408 142.716393,103.426411 C141.396127,100.486837 139.901956,99.3222736 132.859222,95.7437047 C99.6335957,82.0064588 116.899547,61.8544695 146.748643,69.1313048 C158.236507,69.8092467 182.143976,70.5020316 184.172648,57.9961831 C187.718638,36.1367317 150.571996,16.0074462 134.143594,11.9656713 C120.913091,7.27468821 105.919228,6.42206843 97.8174561,6.47056656 C83.001705,6.35340906 68.4676427,8.54561424 54.2855978,12.7727298 C53.6259016,12.977094 52.0862515,13.3956648 50.8641597,13.7028725 C45.1281386,15.2136169 39.9986219,18.1777704 34.9180875,20.7224005 C14.1069629,34.0022586 1.36648708,49.5388563 5.86143506,76.6560282 C10.9790587,92.0180274 14.0900375,102.901081 24.7293486,113.252586 C28.9774297,117.361803 30.0569138,118.319965 31.7352215,119.470929 C59.0554426,140.12419 104.598277,142.119387 128.051422,132.077285 Z M101.063923,125.856031 C98.534633,124.619218 97.7882593,124.089046 96.0912007,122.323693 C91.4979018,117.121707 89.4181868,109.065737 93.9226968,104.196957 C99.7025514,97.7406368 110.320143,96.9951097 117.291699,99.6212527 C122.872743,101.945432 125.097635,103.361006 128.06821,106.477903 C130.691144,109.230046 131.541956,112.915083 130.348212,116.353159 C129.052098,120.086059 125.870443,123.667459 122.230589,125.490695 C115.039402,128.777217 107.844886,129.066459 101.063923,125.856031 Z M114.872717,121.980317 C120.223285,120.877031 124.410642,118.100282 126.006873,114.59696 C123.48342,101.183009 91.2271007,103.525286 97.0069765,115.960358 C98.3127402,121.944466 111.694008,122.609178 114.872717,121.980317 Z M48.3236438,118.963485 C47.6445457,118.771159 46.7714207,118.323087 46.3833669,117.967778 C45.820487,117.452396 44.9644171,117.297721 42.1500336,117.202736 C37.7115001,117.052981 36.1951254,116.388745 35.0331707,114.085177 C33.0156169,110.085418 34.9371163,100.866779 37.9457622,100.111658 C39.4838591,99.7256044 43.4774614,100.216671 45.0050412,100.97965 C46.6216189,101.787132 47.5727272,101.680769 49.2055873,100.509856 C49.7876706,100.092449 51.1509997,99.4836429 52.235204,99.1569619 C55.9136505,98.048543 59.1599186,98.5563313 61.3001676,100.574811 C62.5028046,101.709053 62.5294614,101.792529 62.3193717,103.767194 C62.0254222,106.530079 60.7904398,110.120237 59.6155073,111.627489 C59.081094,112.312998 58.5337054,113.375379 58.3990934,113.98826 C58.0211334,115.70911 56.3102927,117.793603 54.5939644,118.624474 C52.9171993,119.436189 50.4613527,119.568957 48.3236438,118.963485 Z M53.39945,115.88183 C55.1678668,112.882153 58.1742796,107.037973 58.4437868,104.365682 C59.2876912,98.2886232 50.1130684,102.647922 48.143735,104.261489 C46.9027863,105.009127 45.3274333,104.715183 44.1527125,103.770422 C42.5825321,102.444251 38.3944902,102.24158 37.779371,103.461971 C37.1066864,104.796609 36.6061238,108.484292 36.8417035,110.369818 C37.2287704,114.428008 40.3129257,114.303982 43.3990468,114.009718 C48.2538943,112.693791 48.444008,116.537467 51.7631741,116.351386 C52.4141841,116.299739 53.1505089,116.088416 53.39945,115.88183 Z M26.9227259,100.6821 C21.3310773,99.2214409 20.6919445,94.3142509 21.8315182,89.2023845 C22.1949419,87.7591089 22.1717803,87.4548381 21.6550173,86.8838144 C19.119285,80.1716131 27.4730036,71.2212565 34.0361439,73.1276508 C34.7345884,73.2269489 37.1049587,74.8237622 37.3255259,75.3435891 C37.5319115,75.8299462 41.4419504,78.0532928 42.3351917,78.1921991 C42.8154395,78.2668645 43.8230681,78.5946038 44.574363,78.9204647 C50.7387101,80.393834 48.0776474,90.0100913 45.7419851,92.9361051 C43.8965826,95.0870353 41.4380663,96.8624953 37.2111439,99.0968221 C34.268292,100.652387 29.9520383,101.317444 26.9227259,100.6821 Z M34.8837763,97.0521486 C39.4965486,94.4779698 44.8170521,91.0968038 45.1466753,85.8188665 C45.09909,83.2575755 44.3380531,81.4906748 42.0618374,81.0781946 C40.5316356,80.8114682 37.431174,79.3966882 36.4638997,78.5238013 C33.3097569,75.6774403 32.3889778,75.4369341 29.7303175,76.7647191 C25.6923605,78.7813732 24.0388443,81.5689173 24.6330164,85.3579094 C24.9302123,87.2531198 24.8953614,87.4855562 24.2458199,87.9405073 C23.5949978,88.3963579 23.550315,88.6995704 23.7393121,91.3777093 C23.9708093,94.6580134 24.9019283,96.5458155 26.7053151,97.3911592 C27.9627394,97.980598 34.0639331,97.7276828 34.8837763,97.0521486 Z M22.2383494,72.9637149 C19.8598432,72.181223 17.8629005,69.3308932 15.4214129,69.2824083 C13.3256774,69.2824083 12.8943166,68.6557956 12.7462981,65.3963671 C12.6287437,62.8077632 11.5273416,62.1937367 12.4798945,60.6167751 C14.3061359,57.5934105 15.4818384,57.5085031 15.2762519,60.8508255 C15.1783772,62.4420032 15.2018563,64.4343951 15.3284224,65.2784159 C15.5492807,66.7511925 15.6079441,66.8129463 16.7860993,66.8129463 C19.426633,66.7097164 22.9235382,70.4957478 25.1101978,70.2782206 C26.5433716,70.0724012 27.601816,67.4044223 28.0182384,62.9479659 C28.12345,61.822058 29.5041358,60.813678 31.4368217,60.4511989 C35.190603,59.7472484 35.9935526,58.6894972 36.0931656,54.3172577 C36.1614995,51.3180469 35.6021492,49.9640152 33.4402255,47.8952382 C28.3044673,42.3319847 23.9517726,42.8639851 18.8210229,47.7736886 C17.1331876,49.4360392 16.5673259,50.2685242 16.2423832,51.567205 C15.76036,53.4937156 14.7864817,57.2612499 14.6040356,57.9053251 C14.2686206,59.0894149 11.9851686,57.9985643 11.9934633,56.6581852 C12.0008981,55.4581675 13.1566695,50.01082 13.6614469,48.7967265 C14.0457145,47.8725369 18.0441295,43.8119236 18.8020734,43.5761799 C19.0316445,43.5047953 19.9472562,42.9891753 20.8367642,42.4303753 C22.7251087,41.2440895 25.4056765,40.3645881 27.1569774,40.3567035 C36.9036108,41.6292355 42.828539,50.9450214 39.1105003,58.528948 C37.9220185,60.7751071 34.5523566,63.2307235 31.9497165,63.4255388 C31.3767851,63.4555426 31.1704181,63.952139 30.6882467,66.4601773 C29.8358518,70.8939854 29.3698465,71.9256223 27.8936408,72.6467706 C25.5759755,73.7789756 24.1683049,73.8578479 22.2383494,72.9637149 Z M148.619575,49.0155369 C144.157419,44.7319196 140.600959,44.6365876 135.494736,42.4302166 C133.519182,41.3007897 133.353214,35.8433696 134.21769,34.0188215 C136.198843,30.1877078 141.281692,26.4184537 144.265896,26.5674935 C145.755693,26.6418678 145.82776,26.706188 145.570437,27.731422 C145.424294,28.313717 144.842764,28.7468134 143.535278,29.247167 C138.683389,31.1038805 135.525081,36.4154437 137.567458,39.2837122 C140.467728,41.3978283 142.857447,41.0488826 145.690309,42.8250807 C149.044477,44.5067592 151.399721,47.6141025 154.693405,47.9813601 C158.330643,47.6578355 159.336271,42.7674571 159.666664,39.7008279 C159.865504,37.7162148 159.860538,37.7033031 158.33453,36.2398927 C156.793715,34.7622477 151.69571,31.8793478 149.767967,31.3955042 C144.601247,30.2084352 148.032374,26.6383886 149.561068,27.6476549 C150.079553,28.0168545 152.000428,28.9751488 153.829681,29.7771803 C157.060275,31.086074 158.677176,31.9316982 160.99033,33.7983971 C166.302052,38.0893778 162.056897,43.2230194 161.212532,47.3660715 C161.212532,48.0654711 159.32283,49.9227402 158.084935,50.4399477 C154.918928,51.1516716 151.066531,50.9543321 148.619575,49.0155369 Z M39.329062,32.7706761 C40.1338266,31.1155751 40.9138421,30.0547811 41.6928786,29.5559622 C42.4940131,29.042988 42.9980814,28.3418686 43.3138034,27.3013947 C47.4277778,18.1562174 54.0586647,17.6873414 62.2358665,19.3688716 C66.8873738,20.3483855 72.258328,24.9072357 72.8438483,28.3728778 C73.1645154,30.2709192 72.4321275,33.4555765 71.390201,34.6938265 C69.5977019,36.8240927 65.3298325,37.6277116 59.9653103,36.8450477 C57.7427362,36.5207744 55.3826026,36.8914053 53.5506356,38.7058358 C45.2969771,46.880495 35.5236155,40.6382916 39.329062,32.7706761 Z M48.8528104,37.9278814 C50.1872444,37.2395414 53.3810906,35.3247519 53.6153104,35.0726569 C54.2627696,34.3757973 59.4991436,33.1829763 59.7967707,33.6645444 C66.7755688,34.5070148 71.5450484,31.7038205 67.5343752,26.518281 C64.4485478,22.5574711 58.47106,20.7842072 52.4861454,22.0540749 C49.8035351,22.6232466 47.9387041,24.7109149 46.7029862,28.5282411 C46.1394369,30.0956698 45.8977877,32.0599576 44.0252785,31.6880011 C42.8386302,31.4390017 42.0733388,32.473258 41.7616676,34.7471136 C41.6034679,36.7773038 42.9280435,37.6351094 44.7958669,38.3498918 C45.752632,38.6941148 47.7753213,38.4837181 48.8528104,37.9278814 Z M88.3639201,41.0539599 C81.419121,40.487913 75.4231283,25.7026843 84.5867153,20.797992 C85.2256417,20.4759676 85.8853855,19.8629281 86.0528139,19.4356524 C87.0003503,17.0175725 91.7928222,14.2312454 95.3003029,14.0592133 C96.8758225,14.1284971 103.479526,16.8833652 104.431375,17.7642795 C105.520263,18.8462137 105.972002,20.4462814 106.028482,23.4212828 C106.059809,25.0705365 106.294992,27.6371245 106.551143,29.1248501 C107.128778,32.4796873 106.684419,34.1584421 104.624063,36.4052308 C103.363707,37.7796619 100.218611,39.6490754 99.1666697,39.6490754 C95.8871857,40.3538248 91.8844897,41.3409085 88.3639201,41.0539599 Z M93.1264227,37.8813677 C97.0003513,37.4496735 100.815098,35.8405042 102.022341,34.1288088 C103.077172,32.6331986 103.349245,30.0168399 102.596252,28.6098651 C101.8793,27.2702268 101.640823,25.5049797 101.929819,23.6767909 C102.508968,18.785505 99.0571771,17.9527793 94.7337585,17.1825666 C93.2330419,16.9390441 91.5189441,17.7415254 88.8770398,19.9245231 C87.2515219,20.7727322 87.4550261,23.2212128 86.600033,23.282403 C84.5387384,23.3919934 83.7088781,24.899113 83.384229,29.122654 C83.1700515,31.909034 83.2182983,32.2231738 84.1539231,34.1339681 C87.425713,39.546679 88.3745246,38.4157228 93.1264227,37.8813677 Z M109.225379,32.8203119 C108.500368,31.2924755 108.498862,30.2395132 109.218632,28.1079241 C109.764192,26.4922724 112.740014,21.6607189 113.193494,21.6543424 C113.313197,21.6516966 113.96676,21.1302293 114.645858,20.4933772 C116.667833,18.5972143 118.283336,18.0110035 120.725356,18.2872814 C121.880458,18.4179591 123.216027,18.6733349 123.693282,18.8547862 C125.192266,19.4246987 130.194206,23.4440899 130.54163,24.3578813 C132.013761,28.2298705 128.61807,34.5082213 124.315405,35.8696348 C120.381339,37.3533625 111.08934,36.3114043 109.225379,32.8203119 Z M126.303998,29.5003203 C128.545452,25.2567979 125.467951,24.277538 122.842036,21.7900737 C122.313382,21.2614362 122.211245,21.289826 121.518976,22.1580297 C118.183906,24.6553471 120.016513,19.2518808 116.335207,22.9803282 C113.995232,25.377768 112.176422,28.2953284 112.176422,29.6514238 C112.427496,34.586403 123.87426,34.3437986 126.303998,29.5003203 Z M145.679853,149.827572 C148.040039,140.194067 155.843226,126.326429 161.789342,118.481467 C170.293416,105.205443 181.503616,91.1622326 189.631441,78.9703651 C192.348407,75.1127401 194.660239,72.0710373 197.181212,68.3405975 C204.420098,60.2859666 208.546911,53.7129494 215.949542,46.4061632 L217.281716,45.0981691 L216.557181,43.5985637 C215.595709,41.6085266 214.931645,38.226596 214.636272,33.8157538 C214.632039,29.5718107 217.939561,24.5320989 220.790965,22.6536472 C224.481886,20.2826181 228.895403,19.0539698 232.609222,16.5969643 C237.317429,13.0991463 240.974871,8.98733611 243.57292,4.06828221 C244.994632,1.32992412 246.511912,0.0202736807 247.4397,0.00235080595 C250.546596,-0.0576699225 250.606603,1.0151705 251.692639,5.13653741 C252.36558,7.79639362 252.792564,10.6037815 253.103317,14.4120087 C253.540065,20.7543622 253.474184,24.3058642 251.594293,30.0563422 C247.742013,39.758597 240.603581,51.5055836 230.437646,54.4168204 C228.791689,55.0507171 228.193657,56.8787947 227.492437,58.2555012 C220.852475,71.2917414 214.141739,82.6308755 205.239741,94.9477057 C191.807707,111.912471 184.133875,123.007191 169.219287,138.475757 C160.448106,147.523766 155.750437,151.590359 154.326595,153.097928 C151.5418,155.637478 144.027858,156.570478 145.679853,149.827572 Z M152.724119,148.192341 C153.392626,147.555939 155.802967,145.055627 158.080434,142.636091 C160.357899,140.216609 163.493211,136.897676 165.047794,135.260646 C168.829738,130.856418 172.319836,126.605331 175.988199,122.142242 C187.947244,105.611287 199.06073,94.6939438 206.157408,84.2099352 C207.567227,82.3563173 208.667505,80.6921146 209.502088,79.6285426 C209.502088,79.4015301 209.04242,79.0555345 208.480603,78.8596899 C205.226022,77.0932522 202.988152,75.5982505 199.855742,74.0657045 C197.244331,76.6208122 195.274482,79.881643 193.401751,82.7089275 C180.592409,100.492526 169.459108,116.326409 159.547771,132.432409 C158.654699,133.878701 156.492786,137.840148 154.74352,141.235625 C150.540405,149.394264 150.188583,150.606294 152.724119,148.192341 Z M214.88561,70.9446796 C217.801755,66.0306527 219.732631,62.4230326 219.732631,61.8886272 C217.789875,59.9521947 216.078018,58.7255335 213.78674,56.9097245 C210.585575,60.8382975 205.737419,65.8289847 202.093755,70.8188966 C205.613335,73.0098345 208.773545,75.5022094 211.48246,75.9717628 C213.070092,74.5116359 213.244823,73.7095754 214.88561,70.9446796 Z M222.298058,57.627301 C223.252066,55.8795958 223.745276,53.7833021 223.342791,53.1870371 C222.851116,52.4587185 219.843915,50.9245321 218.907898,50.9245321 C217.975015,51.1991855 215.083545,54.9609545 215.417872,55.3250424 C217.028851,55.9081311 219.735489,59.4813687 221.199455,59.458297 C221.32709,59.3243914 221.821464,58.500426 222.298058,57.627301 Z M230.921146,48.3429926 C231.8495,47.1423134 232.767813,45.8974488 232.961832,45.576668 C237.717215,38.7703888 240.665043,30.8539498 245.481095,26.6822697 C246.203064,26.1006626 246.543715,26.1253482 246.543715,26.7592634 C246.543715,27.8597449 247.23769,27.2280257 247.609456,25.7891158 C247.822499,24.9644915 248.083616,23.972304 248.189661,23.5842661 C248.311131,23.1398455 247.609827,23.6336903 246.294848,24.9185599 C244.804106,26.3751678 243.851368,27.0161739 242.962764,27.1603718 C242.013942,27.3143593 241.591535,27.6258797 241.184421,28.4719113 C239.997156,30.9390715 238.654157,33.1839288 237.565847,34.5203656 C236.93381,35.2964679 235.480612,37.4886731 234.336501,39.3919268 C233.192364,41.2951806 231.897786,43.4383055 231.459663,44.1544268 C231.021502,44.870548 230.191584,46.357718 229.615427,47.4592578 C229.03927,48.5607711 228.405567,49.5623248 228.207209,49.6849327 C227.630364,50.0414323 227.78885,50.4172729 228.539896,50.4738409 C229.005033,50.5088717 229.788835,49.8075142 230.921146,48.3429926 Z M227.412295,47.1234221 C229.432071,42.9682732 231.49046,39.4990566 233.643346,36.6215012 C234.79431,35.0831608 235.909634,33.5048154 236.12183,33.1141052 C237.342909,31.6339203 237.890464,29.370939 239.135408,28.1703657 C240.002421,27.3857439 240.008718,26.9978647 239.172211,25.9097922 L238.51914,25.0603236 L237.891337,26.018483 C237.546029,26.5455066 236.811281,27.4608061 236.25854,28.0525203 C233.855224,30.6108136 232.603084,33.7651443 230.883152,36.6099389 C229.956687,38.1342035 227.447325,43.8233007 226.358724,46.8675965 C226.150576,47.4496799 225.83088,48.1174088 225.648318,48.3514328 C225.316874,48.7762742 225.553914,49.521235 226.015268,49.5046721 C226.149333,49.4999096 226.778009,48.4283207 227.412295,47.1234221 Z M239.311806,41.8432649 C241.336053,39.0651135 244.281739,34.2177352 245.342877,31.9186913 C246.859468,29.135444 246.992501,27.7264584 246.158534,29.1479218 C244.20366,31.8360699 242.430264,35.5789318 240.373393,38.7536989 C238.996237,40.8880133 237.498351,43.2692632 237.044697,44.0453655 L236.219858,45.4564678 L237.413076,44.1340274 C238.069296,43.4066878 238.923741,42.3758447 239.311806,41.8432649 Z M225.503432,40.3411989 C227.647403,36.0563274 230.089693,31.5060604 233.175298,28.0626538 C235.286964,25.7521535 236.139372,24.5275322 235.842562,24.230749 C235.725167,24.1133534 234.870245,24.3334867 233.942695,24.7199372 C231.936389,25.5558326 229.601828,25.4312403 228.705155,24.4404313 C228.122674,23.7968059 228.203661,24.022723 227.182689,24.4290542 C220.657443,27.0260058 218.85549,32.5999008 219.356076,38.0217291 C219.783325,41.7699224 220.223142,42.4676551 220.790912,40.2979395 C221.512192,37.5414839 222.678925,34.5651331 223.864206,32.4580709 C224.46296,31.0263946 227.246425,26.7806788 228.493197,27.0756787 C228.644255,29.4798071 227.013853,31.4222351 226.407857,33.6182423 C226.062576,34.8905442 225.292506,37.5051831 224.696638,39.4285452 C223.604306,42.9542503 223.220898,45.3885757 224.052827,43.5162518 C224.26833,43.0311912 224.92111,41.6024412 225.503432,40.3412518 L225.503432,40.3411989 Z M244.046048,22.4555007 C245.281467,20.9381894 246.293048,19.3497475 248.215723,18.7264104 C248.638712,18.5986431 248.510098,6.7463153 248.077478,5.98791365 C247.655785,5.24858845 247.932169,4.87277429 245.516417,9.47041235 C244.197231,12.1122504 242.110806,14.5259119 240.339606,16.2620283 C238.867597,17.7009912 237.718352,18.9333674 237.785689,19.0007039 C237.852999,19.0680404 238.604125,19.2030837 239.454866,19.3008208 C241.861013,19.5772574 242.358615,20.3831253 241.827437,23.1432851 C241.848075,25.6774298 243.751911,22.788836 244.046048,22.4555007 Z"/>
  </g>
</svg>
