<?xml version="1.0" encoding="UTF-8"?>
<svg xmlns="http://www.w3.org/2000/svg" width="153" height="85" viewBox="0 0 153 85">
  <g fill="none" fill-rule="evenodd">
    <polygon fill="#FFF" points="3.388 81.946 42.382 24.056 51.854 30.096 53.725 37.471 58.683 34.665 72.597 45.145 63.879 49.416 63.608 57.681"/>
    <path fill="#000" fill-rule="nonzero" d="M3.38779003,84.0628715 C2.84944233,83.6857873 2.43298817,83.6252506 1.99388567,83.86028 C1.53890818,84.1037496 1.14846256,84.0178658 0.565797147,83.5460608 C-0.236049093,82.8967204 -0.236049093,82.8967204 0.892028393,81.0217771 C2.64364941,77.9857892 4.8408023,75.0360026 6.49254311,72.4440385 C7.7253956,70.5037431 9.73694328,67.3680073 10.9626256,65.4757073 C15.473348,59.0965503 18.9480415,51.9177431 23.2352439,46.5274663 C24.2968581,45.1969297 26.3209206,42.5274426 27.7331606,40.5952964 C29.1454005,38.6631502 31.4186476,35.5930839 32.7848501,33.7728829 C34.1511055,31.9527348 36.004988,29.3522247 36.9045977,27.994039 C38.7974533,25.1363274 42.15491,21.4676414 42.8773018,21.4676414 C43.1499549,21.4676414 43.723651,21.7132277 44.1521966,22.0133975 C47.8228141,23.4960695 51.3123242,25.7244962 54.0978575,28.2913778 C55.6461727,29.7454219 55.90094,30.1656861 55.8089444,31.1136088 C55.7277967,31.9498244 55.5079544,32.2548096 54.9266119,32.3375448 C54.500765,32.3981344 54.2096969,32.6362594 54.279785,32.8667115 C54.3498467,33.0971371 54.5065858,33.7371377 54.6280825,34.2889263 C54.8489567,35.2921469 54.8489567,35.2921469 55.7846556,34.3564215 C56.2993231,33.841754 57.1358827,33.1752421 57.6436975,32.875284 C58.1514858,32.5752994 58.8745656,31.870714 59.2505649,31.3095063 C60.0340756,29.9058917 60.5202739,30.4894832 61.3301899,31.3296146 C62.3111855,32.3535521 62.3180118,32.3890592 61.7117455,33.3142806 C61.2039308,34.0893246 61.1792716,34.3100929 61.5726541,34.5593833 C61.8356499,34.7260179 62.155346,34.8648183 62.2830868,34.8677817 C62.5765626,34.8743962 66.2380784,37.8248179 67.8716688,39.3707254 C68.5507748,40.0133983 69.9231421,41.012703 70.921415,41.5913997 C73.0011458,42.7971324 73.5903729,44.0471299 72.5966508,45.1452036 C70.5733292,46.2106807 69.1074846,46.9903019 67.2959884,48.4903571 C66.0253269,49.3293509 65.6424749,49.5960773 65.779529,53.2176146 C65.8225767,54.3546614 65.547754,56.2386006 65.2756301,56.672041 C65.118203,56.9227601 64.3679505,57.3765735 63.6083318,57.6805003 C62.3760349,58.8070168 60.9334472,58.8785072 59.559466,59.5275301 C58.7954022,59.8935547 56.8209227,60.6416111 55.171669,61.1899336 C52.3709486,62.2169932 49.830393,63.5807086 47.4339559,64.6534088 C46.1856518,65.2084252 44.4480008,66.1168192 43.5725474,66.6720208 C42.6970677,67.2272225 41.8574125,67.6815121 41.7067058,67.6815121 C41.4222258,67.6815121 37.8767033,69.2259908 36.6642767,69.87803 C33.6952019,71.4748962 32.7997461,71.9148454 32.5187586,71.9148454 C29.8930072,72.9811956 27.186452,74.0847726 24.8327981,75.2662166 C23.8755621,75.7513037 22.8825279,76.1481786 22.6260673,76.1481786 C22.3695802,76.1481786 21.5438421,76.4621861 20.7910761,76.8459643 C15.0681651,78.3965284 6.85528686,83.8183965 3.38779003,84.0629508 L3.38779003,84.0628715 Z M18.1793211,73.0752814 C20.6334638,71.5226006 23.5488016,70.2596914 25.770746,68.9162431 C34.2524144,64.2545759 42.6220054,58.5496301 50.3372024,54.4751262 C50.9588673,54.1608277 51.7056273,53.769165 51.996669,53.6047529 C52.2877107,53.4403143 53.2402107,52.9402783 54.1133356,52.4935558 C59.8845331,48.8910157 63.8327514,47.6293236 67.0162974,44.7079797 C67.2597934,44.3139886 63.6860664,41.0787695 60.6339389,38.9301412 C60.082706,38.5420768 59.2316208,37.8430477 58.7426443,37.3767196 C58.2000368,36.8592739 57.8007277,36.6874271 57.717966,36.9357385 C57.6433535,37.1595496 57.3934281,37.3426412 57.1625527,37.3426412 C56.9316508,37.3426412 55.3844469,38.6523287 53.7242659,40.2530578 C52.0641377,41.853787 49.0656678,44.5128495 47.0610257,46.1620767 C45.0564101,47.8113305 42.6084587,49.9198479 41.6210602,50.8477152 C40.6337146,51.775556 38.9743008,53.283681 37.9335094,54.1991129 C34.039954,58.4034478 28.7802226,62.1612455 25.185567,65.5952725 C20.6459521,69.0809198 20.6885236,69.776721 16.1897338,73.9640433 C16.3837528,73.8873141 17.2790763,73.4873699 18.1793211,73.0752814 Z M17.7144746,64.8824057 C19.5922754,62.8454315 22.9024246,59.3479045 25.0703939,57.1100587 C27.2383897,54.8722129 29.505128,52.4183877 30.1075578,51.6571285 C31.6260809,49.7383702 35.9852236,45.0530492 41.2143162,39.7194197 C47.0123424,33.8053738 49.241457,31.108079 49.1053817,30.1707132 C48.9801015,29.3076424 45.1186666,26.4368603 44.058587,26.418657 C37.8994575,33.7153625 31.1412055,42.5061172 25.8911314,49.8532259 C25.8911314,50.1291863 24.5530806,52.0614912 23.5613694,53.217641 C22.6998331,54.2220258 20.2466694,57.7206112 20.2466694,57.944872 C20.2466694,58.0264695 18.4210444,60.8272693 16.1897338,64.1689567 C12.187858,70.1621925 11.1159781,72.1995899 13.2221937,69.80945 C13.8151778,69.1365352 15.8367003,66.9193533 17.7144746,64.8824057 Z M26.8748522,59.9633253 C27.7069139,59.1800528 28.8181639,58.201412 29.3442878,57.7885562 C30.2481309,57.0792876 38.1267875,50.0348359 40.5720666,47.7495767 C41.8671491,46.5392667 42.7845124,45.7450669 45.9994645,43.0507884 C47.2606274,41.9938839 48.7144334,40.7137239 49.2300799,40.2060414 C49.7457792,39.698306 50.6691751,38.8994231 51.2821353,38.4307137 C52.4660927,37.5253095 52.4555623,37.6543468 51.608684,34.4245781 C51.2598044,33.0940415 51.2598044,33.0940415 49.3401994,35.130116 C43.4950245,42.4347326 35.982419,49.2953519 30.1469278,55.5181402 C28.510083,57.2602891 26.2875831,59.6280453 25.2080302,60.7798295 C23.1038519,63.024819 24.1853627,62.4950174 26.8748522,59.9633253 Z M48.5957943,60.4093599 C52.0200846,58.7756107 58.1090995,57.2272162 60.4633356,55.0199033 C60.5603583,54.9017668 60.9572333,54.6303837 61.3452976,54.416812 C61.9507172,54.0835429 62.6171497,51.8065387 62.1092555,51.8065387 C62.0197735,51.8065387 60.9376806,52.419446 59.7045899,53.1685608 C58.4715258,53.9177021 56.4824677,55.0253802 55.2845402,55.6301118 C53.1802032,57.1163558 50.6851294,58.0872972 48.7853417,59.2102418 C47.156117,60.1777966 45.3071293,61.2390932 44.6765478,61.5686317 C44.0459399,61.8981703 43.5300024,62.2890128 43.5300024,62.4372059 C43.5300024,62.7525628 45.216192,62.0775842 48.5957943,60.4093599 Z M75.4186437,48.0775277 C75.2155231,47.2681409 75.3242933,46.9851161 76.0109929,46.535933 C78.9396657,44.7813486 83.7929442,41.201007 86.6279546,40.7041989 C87.4685888,40.5732301 88.4439752,40.3845028 88.7955006,40.2848078 C89.3606506,40.1244968 89.4063706,40.2602016 89.1904706,41.4571237 C88.8608527,43.2845743 88.5153862,43.6401478 85.9515473,44.7905297 C84.2097688,46.1690617 82.6287511,46.6256532 80.9120816,47.4785375 C79.657692,48.1055736 77.9645174,48.7199361 77.149442,48.8437611 C75.7440812,49.0573063 75.6546256,49.0176717 75.4186437,48.0775277 Z M117.613335,47.4233984 C115.614249,47.0735663 115.257564,46.8913742 114.831082,46.0024536 C114.491648,45.2949578 114.449394,44.8122784 114.693076,44.4259338 C117.472894,42.9404572 121.404655,44.9360505 124.838947,42.8312901 C126.297595,42.6504209 127.843899,43.5117455 127.843899,44.5051501 C127.843899,45.8883917 126.830227,46.9647696 125.734032,46.7455359 C125.204813,46.6396761 124.629556,46.6816655 124.455751,46.8387751 C124.083403,47.1754044 121.034159,47.9485434 120.367541,47.8753596 C120.113912,47.8474725 118.874524,47.6441138 117.613335,47.4233984 Z M108.44113,45.1974059 C108.150089,45.0855136 107.420712,44.6218313 106.820319,44.1669068 C106.219927,43.7120351 105.609718,43.3398722 105.464356,43.3398722 C104.758395,43.3398722 101.403029,40.9951876 100.906776,40.155162 C100.385838,39.2732529 100.389278,39.1634243 100.952628,38.699107 C102.092242,37.7598362 103.409946,37.9207823 105.183475,39.2158118 C106.102055,39.8865835 107.671616,40.7238045 108.671344,41.0763089 C110.857147,41.8469343 111.815097,43.1233901 111.274553,44.5450493 C110.927208,45.4586819 109.797411,45.7187938 108.44113,45.1974059 Z M133.576547,42.017273 C132.713105,41.5885422 132.430001,41.2162735 132.430001,40.5097037 C132.430001,39.7541331 132.756259,39.3930827 134.105713,38.6554772 C135.027336,38.1516577 136.700244,36.8609937 137.823268,35.7873146 C139.424209,34.2567265 140.137155,33.8168302 141.124792,33.7503404 C142.448767,33.6611494 143.36613,34.415794 143.36613,35.5939835 C143.36613,36.4307812 141.89764,38.497177 140.976731,38.9563085 C140.547312,39.1704093 139.917075,39.5911762 139.576185,39.8913989 C139.086362,40.3227756 135.738325,42.2047303 134.899463,42.5202195 C134.802441,42.5567055 134.207128,42.3303809 133.576547,42.017273 Z M92.6326468,40.1511139 C91.4188179,39.0202847 91.619372,38.3255418 93.498337,37.1526968 C94.1080693,36.7720937 96.0620701,35.1208821 97.8405463,33.4832965 C101.04899,30.5290913 101.885549,30.1081657 103.414047,30.678819 C104.672353,31.1486396 104.413431,32.4454154 102.708483,34.2126469 C99.4918638,37.5468202 95.1285937,40.8647745 93.9555635,40.868611 C93.6526156,40.868611 93.0573031,40.5467453 92.6326468,40.1511139 Z M91.5077973,34.9614971 C90.5782631,34.8118752 88.0301669,32.9902454 87.4788546,32.081243 C87.3002344,31.7867352 86.7842969,31.1759711 86.3323357,30.7240098 C84.8283911,29.2200388 85.4876798,27.112077 87.4620271,27.112077 C87.7847129,27.112077 88.9461015,28.0332503 90.0428523,29.1591053 C91.1396031,30.2849603 92.4735264,31.479263 93.0070851,31.8130613 C94.1848778,32.5498994 94.2285606,33.1566419 93.1834829,34.2631029 C92.6442356,34.8340473 92.1069727,35.0579377 91.5077973,34.9614971 Z M146.215401,30.0793261 C144.977178,29.0374499 144.842214,28.1874495 145.780135,27.3386132 C146.13772,27.0150278 147.12443,25.7266393 147.972843,24.4755305 C149.008317,22.9486201 149.717188,22.2316258 150.129224,22.2945172 C151.044814,22.4342437 152.185565,23.597696 152.185565,24.3918164 C152.185565,25.4871649 151.403854,27.8176413 151.036427,27.8176413 C150.853891,27.8176413 150.02974,28.5320163 149.205008,29.4051413 C148.380249,30.2782663 147.614412,30.9926413 147.503155,30.9926413 C147.391845,30.9926413 146.812381,30.581664 146.215401,30.0793261 Z M105.311136,26.379578 C104.595465,26.0930872 104.506909,25.8809972 104.700054,24.9154003 C104.824276,24.2943703 105.298198,23.3836216 105.753228,22.8915231 C106.510942,22.0721879 107.473549,20.2236764 109.138466,16.3910017 C110.101893,14.1731055 111.064368,13.2224576 111.895901,13.6674867 C112.270868,13.8681732 112.77482,14.5082532 113.015723,15.0899132 C113.394289,16.0038634 113.341002,16.4728373 112.623161,18.5429902 C112.166305,19.8605094 111.713127,21.0178762 111.61613,21.1148725 C111.519108,21.2118952 111.15311,21.8565525 110.802748,22.5474324 C109.956293,24.2167416 108.665285,25.6860787 107.525355,26.2774753 C106.46247,26.8289199 106.436594,26.8301105 105.311136,26.379578 Z M83.5820449,22.185456 C82.684684,21.248831 82.584354,20.9073862 82.623089,18.9222704 C82.6842872,15.7855027 83.2971415,13.5116736 84.5667711,11.7103903 C85.7029448,10.0985222 86.6967727,9.59509948 87.954549,9.99430281 C88.4706187,10.1581064 88.6855662,10.5243691 88.6855662,11.240067 C88.6855662,11.7976234 88.5289329,12.3506026 88.3375069,12.4689242 C87.5777823,12.9384538 86.4997111,17.5408015 86.6719813,19.5792308 C86.8201479,21.3324129 86.7388415,21.6825889 86.0154707,22.4059333 C84.959598,23.461806 84.7901323,23.4464337 83.5820449,22.185456 Z M110.268237,11.060944 C109.915336,10.6123166 109.428132,9.35840324 109.185562,8.27445825 C108.899389,6.99562118 108.474494,6.11447932 107.975464,5.76496474 C107.552474,5.46868433 107.243997,5.15097267 107.289928,5.05892413 C107.335913,4.96684913 107.111679,4.3425383 106.791718,3.67155498 C106.119359,2.26161687 106.459825,1.55057563 107.942999,1.26704813 C108.651157,1.1316873 109.154341,1.42574521 110.390157,2.69722686 C113.715467,6.11850099 114.367506,10.2470593 111.775436,11.468667 C111.024099,11.8227588 110.825132,11.7689426 110.268237,11.060944 Z M92.2453497,6.32543161 C91.9719029,6.15234119 91.5750279,6.0770937 91.3633877,6.1582414 C91.025647,6.28772848 90.9082779,5.13009704 91.1017412,3.57789248 C91.1873604,2.89116644 94.575588,1.45106584 98.110977,0.598763556 C101.345561,-0.181016434 101.389032,-0.182207059 101.902271,0.496422724 C102.187809,0.874009594 102.426516,1.54351125 102.432681,1.98422771 C102.445116,2.87402144 102.090628,3.06245769 98.5633351,4.04101914 C97.3021722,4.39090413 96.0135455,4.96253642 95.6997497,5.31131016 C95.3859539,5.66008391 94.7906414,5.94541057 94.376833,5.94541057 C93.9630247,5.94541057 93.6244639,6.10416057 93.6244639,6.29820598 C93.6244639,6.73331327 92.9118881,6.7473891 92.2453497,6.32543161 Z"/>
  </g>
</svg>
