<?xml version="1.0" encoding="UTF-8"?>
<svg xmlns="http://www.w3.org/2000/svg" width="299" height="317" viewBox="0 0 299 317">
  <g fill="none" fill-rule="evenodd" transform="translate(-45 -17)">
    <g fill-rule="nonzero" transform="translate(91 238)">
      <path fill="#FFF" d="M118.2616,2.09801413 C110.826623,2.01723684 92.2023909,11.1011499 83.8704237,13.3179877 C83.7199287,12.743498 13.9634333,-6.52973076 26.0563732,60.320793 C-18.5202823,102.061433 5.60831509,98.8314787 39.4994817,77.3714424 C57.1217634,90.8147361 103.960897,75.8170947 97.0504835,34.7301081 C122.670643,9.37561675 124.821864,2.16926642 118.2616,2.09801413 Z M101.383565,13.9572211 C103.383656,13.8832436 101.972316,16.7002887 91.5449013,26.3978234 L88.2499922,20.3480462 C88.2499922,20.3480462 98.4603423,14.0653563 101.383565,13.9572211 Z M28.6448448,65.6584706 L31.906681,71.2333208 C31.906681,71.2333208 16.9149133,77.4307619 28.6448448,65.6584706 Z"/>
      <path fill="#030303" d="M93.7307565,8.39327176 C92.4695671,8.98710259 90.7628459,9.86578383 89.938219,10.3456057 C89.1136186,10.825454 88.4390899,11.1407844 88.4390899,11.0463282 C88.4390899,10.9518984 84.7919145,12.7420427 83.8702649,13.317829 C81.6413091,12.3752509 80.1453814,11.2518036 77.32659,9.97561237 C71.7690436,7.42812469 65.5787727,6.62543178 60.4532115,7.2057424 C43.4463771,10.3288311 30.1053977,17.7130873 23.9091736,34.3353498 C23.6059347,35.0475816 23.4210967,35.689011 22.1252999,40.5318914 C21.319088,43.5449928 21.2070899,47.2812269 21.8059478,51.1741208 C22.2879128,54.3069462 23.8073884,60.7607686 24.4032036,62.2049702 C25.6976775,65.342611 25.6801886,65.2637917 25.2140192,65.8605594 C24.9657342,66.1784033 24.5247532,66.6198342 24.2337115,66.8418989 C23.9426699,67.0639637 22.9216957,68.7674835 21.9651211,70.6272133 C20.3811137,73.7068045 20.2675016,74.085582 20.6897236,74.8744901 C21.0150024,75.482238 21.5866082,75.8203226 22.6053863,76.0067215 C23.4039782,76.1528244 24.2159051,76.2264051 24.409924,76.1705251 C24.6039694,76.1146715 25.1371313,76.0253217 25.5948605,75.9720876 C26.403824,75.8780282 26.3990615,75.8982688 25.418648,76.7002209 C24.8639226,77.1539549 24.2813101,77.5309067 24.1241476,77.5378917 C23.9669851,77.5447709 23.1086767,78.107963 22.2167663,78.788974 C21.3248559,79.469985 20.5009699,79.9247509 20.3858762,79.799259 C20.2707824,79.6737671 20.3752928,79.4998565 20.6179157,79.4132319 C21.0879216,79.2453538 21.1947074,78.3156609 20.8478651,77.4117913 C20.6690597,76.9458336 20.4622878,76.9952578 19.4913464,77.7358001 C18.0591039,78.8282646 17.4679983,78.854088 17.6785537,77.8153867 C17.7670304,77.3788242 17.9336914,76.3269203 18.0490762,75.4780576 C18.2423014,74.0567953 18.2022699,73.9494803 17.546262,74.1210361 C16.9525899,74.2762936 16.3984466,73.6680695 17.3848397,72.4471232 C18.6182478,70.8815572 18.9896699,69.8044385 20.9796276,67.6873221 C21.9063572,66.7054798 23.0534053,65.1910313 23.5283324,64.3216369 C24.3102026,62.8903469 24.3397301,62.6887609 23.8419959,62.1910267 C23.3442617,61.6932925 23.1867288,61.7012565 22.1775022,62.2757727 C21.5645155,62.6247582 21.0607753,63.053489 21.0607753,63.2281669 C18.1502528,65.9015698 15.250446,69.2225668 13.0219929,71.818341 C-0.318298586,82.7634919 -8.13911724,104.061101 13.4850137,92.7250807 C17.0156137,91.3336899 22.4622203,88.7256655 24.3690988,87.5135035 C26.5634207,86.0563902 28.9579263,85.252586 31.11391,83.712711 C31.6959933,83.2892454 32.6484933,82.7082733 33.2305766,82.4213062 C34.8013814,81.6468973 36.9861518,80.3789081 38.0473426,79.6261421 C39.3331117,78.7140705 39.6548715,78.7658759 42.526659,80.3444329 C43.9097684,81.1047131 45.4792767,81.8214958 46.0147933,81.9376215 C47.6205231,82.2858396 48.3224627,82.4505162 49.9871681,82.8688225 C70.278143,87.7616033 87.2075339,77.9199501 95.1467006,63.6162577 C96.3188048,61.718375 98.2325889,57.3565601 98.9392116,54.9728495 C100.478293,47.6047594 99.6123645,42.4197728 98.1088698,34.7300287 C105.722625,26.2829149 115.267284,17.691021 120.508442,9.99368341 C121.673111,8.2231976 123.605601,3.8770989 121.480256,1.90822851 C113.19012,-3.92916767 100.524965,5.19165472 93.7307565,8.39327176 Z M113.596202,12.2870917 C111.714141,14.3431423 110.920603,15.2670144 109.041956,17.5921991 C107.950708,18.9427912 106.996303,20.0478499 106.921162,20.0478499 C106.624802,20.0478499 106.815222,19.3472862 107.463769,18.0526271 C110.563627,13.8471809 115.64241,5.72555742 108.014632,6.64334407 C106.114103,6.38844449 107.118435,5.55207013 110.186649,5.06563368 C117.540187,3.04339683 118.393071,7.08615074 113.596202,12.2870917 Z M106.734604,10.1936819 C107.448794,10.1588892 106.918569,11.8847663 105.972392,12.6746534 C105.036852,13.4556504 104.668076,13.5074029 104.668076,12.8586446 C104.668076,12.5911244 104.170871,12.1667063 103.563229,11.9150346 C102.458434,11.4574113 102.458434,11.4572261 104.356979,10.8370428 C105.401183,10.4959419 106.471052,10.2065142 106.734604,10.1936819 Z M64.6720721,11.2907767 C67.2756249,11.3190607 69.8199376,11.6054457 70.999847,12.1067517 C72.3570007,12.6833582 72.8837861,12.8475321 74.6817886,13.2544877 C75.8439444,13.51751 77.1514094,14.3819038 77.1514094,14.8874431 C65.1741454,23.2956368 49.4256958,31.2562348 37.6401224,36.2753012 C35.7968497,36.8892933 34.0507849,37.4826479 33.7597433,37.5940639 C33.4687016,37.7055064 32.6746077,37.8418991 31.9955016,37.8974087 C28.9808921,38.1438681 27.7621684,38.4477685 27.7621684,38.9521437 C27.7621684,40.7547499 33.6642022,40.4514845 39.2276224,38.3630224 C53.8564347,32.9298037 68.4800876,23.7357712 80.90672,17.2609408 C84.291561,18.7252508 87.3640878,24.6997541 88.715553,27.1146061 C89.3712434,27.1267769 89.1731763,27.3332578 85.9549964,29.9878223 C80.7148441,33.6057877 75.4912548,38.2457591 71.0659928,41.5282063 C58.2348919,50.7353887 47.4953223,57.8634224 36.2288349,65.4760933 C35.7437743,65.8035681 34.5789197,66.6700521 33.6398606,67.4015456 C31.7204673,68.8967325 31.3551306,68.9977504 31.0653325,68.1141743 C30.9539694,67.7746346 30.4602569,66.6233531 29.9682377,65.5561827 C28.0314613,61.3554726 26.3831865,54.6752726 25.8336205,48.7995913 C25.6125082,46.4358038 26.1556184,41.3464641 26.6986757,40.6920701 C26.8923771,40.4587076 26.9706144,40.1878272 26.8728244,40.0900372 C26.6341438,39.851383 27.6489796,36.5206493 28.6261917,34.3353498 C30.3656948,29.727684 33.5991147,25.5849176 36.2934462,22.9014341 C43.3045075,16.7667521 50.5837241,13.538809 59.1039159,11.7134751 C60.5862969,11.4029336 62.6470835,11.2687634 64.6720721,11.2907767 Z M100.159311,15.9220169 C100.188786,15.9246627 100.214397,15.928896 100.236305,15.9370981 C100.442362,16.0125308 98.4438058,18.2491596 95.7952208,20.9068197 C93.1186429,23.5925787 90.8787334,25.5749693 90.7521303,25.3701024 C90.6268501,25.1673786 92.1865423,25.1898682 92.3895571,24.8105616 C92.8632671,23.9251334 91.3699588,21.9064949 90.8979686,21.7491472 C90.4961724,21.6152151 93.3134027,19.4148343 95.4031083,18.2305064 C98.3934291,16.5357444 99.7170337,15.8904785 100.159417,15.9220962 L100.159311,15.9220169 Z M59.8904427,16.1674708 C59.7102615,16.1674708 59.3098675,16.4199098 59.0010988,16.7286785 C58.69233,17.0374473 58.2444698,17.3239646 58.0058157,17.3653454 C57.5701792,17.440831 56.7563738,17.8486862 53.162168,19.7930827 C47.9581843,22.6083551 44.7824965,24.0450161 43.4252898,24.1979982 C41.3577298,24.4310432 41.0168407,25.6960955 42.7555765,26.6820917 C43.1436409,26.9021192 43.4717507,27.0870101 43.4852444,27.0929103 C43.4984736,27.0987311 44.2982561,26.8691786 45.2623977,26.582873 C48.4299893,25.6421999 57.9390613,20.5125376 59.60673,18.8448425 C60.2442436,18.2073289 60.4604081,16.1674708 59.8904427,16.1674708 Z M98.8792835,23.9287582 C99.2999975,23.9287582 98.1768412,25.0676836 94.9663342,27.8975082 C90.2513005,32.0535038 88.8519457,33.2335454 86.3234551,35.1869906 C83.6292031,37.2684941 81.2164148,39.309093 80.135195,40.4207664 C79.7105917,40.8573289 79.23286,41.2145163 79.0732633,41.2145163 C78.7447567,41.2145163 80.5969987,39.0934047 81.3408218,38.6177897 C81.6079187,38.4470276 82.8194722,37.2945026 84.0331689,36.0567025 C85.2468126,34.8189023 86.3776947,33.8057069 86.5461814,33.8046485 C86.714668,33.8046485 87.3288718,33.3662604 87.9109551,32.8320931 C88.4930384,32.2979258 89.3086959,31.6235558 89.7237742,31.3339958 C90.1388526,31.0444359 92.3170613,29.2601123 94.5637706,27.3683415 C96.8104535,25.4765707 98.7523893,23.9287582 98.8792835,23.9287582 Z M99.2027631,28.2943832 C99.2588812,28.2943832 99.0278206,28.6030725 98.5661227,29.2204248 C98.058202,29.8995309 96.8151366,31.1693456 95.8035023,32.0424706 C94.7918679,32.9155956 93.5395156,34.0270308 93.0201915,34.5120914 C91.6025805,35.8362516 88.5137818,38.4133991 86.6986343,39.7872216 C85.8131003,40.4574641 85.0357545,41.1324955 84.9710903,41.2868799 C84.9063997,41.4412643 84.6904733,41.5674705 84.4910039,41.5674705 C84.2915874,41.5674705 83.3700702,42.2026557 82.443076,42.978758 C81.5160818,43.7548603 80.5945381,44.3895163 80.3951481,44.3895163 C80.1956787,44.3895163 79.9792231,44.5295867 79.9145325,44.7006134 C79.7620002,45.1040236 73.5306394,50.1256035 67.6047137,54.6204245 C66.9651893,55.1054851 64.7241156,56.8139526 62.6241177,58.4170895 C58.5487142,61.5282455 55.2038253,63.8991767 51.2222431,66.4997927 C45.6558596,70.1355645 42.6239463,72.1719566 40.2254984,73.8859274 C29.9882667,80.2321438 15.0385148,89.1927874 9.59428941,90.7675609 C8.16773547,91.3093218 6.28183841,91.2977859 5.72785384,90.7437484 C2.37222284,89.0376622 8.72928713,79.3633315 11.9962033,77.9037046 C12.1904075,77.9037046 12.1815175,78.0852882 11.9750367,78.3445269 C11.7818379,78.587044 10.9419711,80.1348565 10.1085071,81.7841102 C9.27506963,83.4333375 8.30177339,85.2048552 7.94582943,85.7208191 C7.26979257,86.7007564 7.36345507,87.4939243 8.28121526,88.5635289 C11.5593763,90.9081605 32.8235152,77.859969 39.8410588,72.6347922 C44.7159008,69.2679693 48.3118264,66.5013802 52.9379337,63.3552463 C53.2994074,63.1106919 54.1462857,62.4802163 54.820497,61.954304 C55.4946818,61.4283917 56.3501061,60.9015798 56.7211578,60.7838403 C57.092183,60.6660742 57.3955278,60.4259913 57.3955278,60.2500169 C57.3955278,60.0740426 57.9040569,59.667378 58.5251663,59.3462003 C59.1462492,59.0249961 59.8416007,58.5843061 60.0708092,58.3669245 C60.3000442,58.1495428 61.1762119,57.4161443 62.017481,56.7370382 C62.8587237,56.0579587 64.663235,54.4938478 66.0275589,53.2612864 C67.3919093,52.0287514 69.0639966,50.6102673 69.7431026,50.1095433 C70.4222086,49.6088194 71.4990628,48.6580656 72.1362324,47.9965015 C73.2548378,46.8350865 73.3247672,46.8133642 74.1619617,47.3619248 C74.9788363,47.8971504 75.1055717,47.881249 76.3545902,47.0895892 C78.1296798,45.964475 80.9489475,42.9016584 81.226125,41.7973934 C81.3663277,41.2388316 81.8306979,40.7750964 82.4751435,40.5504386 C83.0394204,40.3537474 83.5014358,40.055853 83.5014358,39.8879484 C83.5014358,39.7200439 84.0568756,39.3642851 84.7359816,39.0978232 C85.4150612,38.8313614 85.9705274,38.4846249 85.9705274,38.326801 C85.9705274,38.1690035 86.2086524,38.0394899 86.4996941,38.0394899 C86.7907357,38.0394899 87.0288607,37.8885187 87.0288607,37.7035749 C87.0288607,37.5186576 87.5592974,37.1156708 88.2076059,36.8080397 C88.8559145,36.5004087 89.9187986,35.69888 90.5697265,35.0272616 C91.2206809,34.3556698 91.8880394,33.8061566 92.0523192,33.8061566 C92.2974027,33.8061566 95.9165058,31.2596215 96.5616129,30.6332204 C96.6626308,30.5351129 97.3628506,29.8994779 98.117601,29.2203719 C98.8037714,28.6030196 99.1466714,28.2943303 99.2027895,28.2943303 L99.2027631,28.2943832 Z M63.0137696,34.6945216 C62.8151469,34.6736196 62.454414,34.8902075 62.1507781,35.225752 C61.8037242,35.6092391 61.4062142,35.9228762 61.2676254,35.9228762 C61.1290631,35.9228762 59.7091767,36.6770974 58.1122576,37.5987206 C50.7199316,41.672563 43.6424334,45.8984615 36.9347432,48.9195004 C36.2900066,49.20488 35.8764099,49.6517877 35.8764099,50.0636117 C35.8764099,50.5574564 36.1246685,50.7395427 36.7988268,50.7395427 C38.2775301,50.7395427 41.5598186,49.5793977 44.4670867,48.0285954 C45.0204627,47.7333998 45.6556215,47.4590269 45.8783742,47.4188102 C49.4139218,45.1330748 55.1669688,42.9312124 58.4512417,40.2316422 C59.9431742,38.9590228 61.2370925,38.0395428 61.5368654,38.0395428 C62.4316862,38.0395428 63.7830721,35.1474354 63.0886996,34.7182812 C63.0675329,34.7053166 63.0421329,34.6973791 63.0137696,34.6944687 L63.0137696,34.6945216 Z M94.3307256,38.7857472 C94.4252877,38.7942139 94.4697113,38.8639051 94.47749,38.9872803 C94.499715,39.339282 94.5720521,40.099377 94.6387006,40.676592 C94.7425231,41.5761224 94.4471158,42.0165478 92.5701088,43.7595963 C91.365699,44.878043 90.2519619,45.7950888 90.0947994,45.7972055 C89.9376899,45.7998513 88.9574086,46.6060367 87.9166436,47.5903661 C86.4164562,49.0091677 86.0451135,49.5759581 86.1255468,50.3245702 C86.1971959,50.991426 86.4229649,51.2605073 86.8929178,51.2407958 C88.2192211,51.1851275 89.6850657,50.6115373 90.1413132,49.9695523 C90.8988946,48.903546 94.481644,46.4076521 94.7849623,46.7345977 C95.089286,47.0626546 94.69466,51.4777037 94.1591433,53.7383037 C90.4664332,69.509772 75.5427957,76.9579515 65.5533462,79.0159336 C61.0271456,79.5939952 56.2075222,79.7332454 51.7514097,79.1036959 C47.6551306,78.3655613 43.8906654,77.1876099 43.4738673,76.5131605 C43.2178829,76.0989817 46.8007381,73.5462553 53.5151222,69.3595945 C56.5225351,67.4843337 60.0405938,65.107661 61.3327394,64.077744 C63.709756,62.1830892 68.7759976,58.4142584 70.2526107,57.4424703 C70.6948618,57.1514286 72.0709068,56.0756857 73.3102944,55.0519335 C76.3812867,52.5151879 85.0967674,45.6960023 87.3052974,44.1017026 C88.2953947,43.3869836 90.3048521,41.799907 91.771173,40.5747803 C93.3129265,39.2866299 94.0470129,38.7602943 94.3307256,38.7857472 Z M89.1806376,53.0117579 C88.3271711,53.0706277 86.6593437,54.3482476 84.1788749,56.8430303 C76.5998854,63.7298434 68.0608289,70.5410649 59.2475846,75.0424476 C57.6468555,75.8443203 56.337168,76.6796892 56.337168,76.8986584 C56.337168,77.1176276 56.6151392,77.5075176 56.9547055,77.7652746 C57.7442486,78.3646353 57.9875594,78.3629155 60.0454621,77.7435788 C66.6463929,75.9951063 75.2751432,68.6723129 79.7739858,65.0270425 C85.6052701,60.293488 89.8514092,55.6145435 89.8514092,53.9222949 C89.8514092,53.2844639 89.627704,52.9809074 89.1806376,53.0117579 Z M60.1974123,53.814292 C60.2072019,53.8169379 60.2119644,53.8217004 60.2119644,53.8306962 C60.2087894,53.9739151 58.740643,55.1212014 56.9491228,56.3804064 C55.1575761,57.6396113 53.4533155,58.8611661 53.1622739,59.094952 C52.8712322,59.3287642 51.7644008,60.1638422 50.7024691,60.9506601 C49.0203541,62.1970063 47.8706073,62.7177857 47.8706073,62.2332807 C47.8706073,61.9822175 52.7778872,58.5006713 53.1317939,58.5006713 C53.3149384,58.5006713 53.7145122,58.2512751 54.0195768,57.9461841 C54.8528291,57.1129582 59.8895432,53.7567981 60.1975182,53.8141597 L60.1974123,53.814292 Z M77.4790429,57.2378416 C77.1158759,57.2484249 76.617004,57.409027 76.0047052,57.7267122 C74.3946098,58.5620811 71.9087965,60.0244067 70.2432974,61.1156542 C69.6770362,61.4866794 68.6990833,62.1218382 68.0697983,62.5269152 C66.8423168,63.3171198 66.6736979,63.7575452 67.3437287,64.4275761 C68.0510658,65.1349131 69.2179047,64.910811 71.7067872,63.5904344 C74.3715382,62.1767657 77.7388638,59.4287503 78.0650421,58.4010822 C78.3132742,57.6189738 78.0843567,57.2200351 77.4790429,57.2378416 Z M47.4648423,62.4116892 C47.5517844,62.41751 47.6062621,62.4554777 47.6322706,62.5233169 C47.8677233,63.1368327 47.5867358,63.4395425 46.78272,63.4395425 C46.4431537,63.4395425 46.1125569,63.5793219 46.0478662,63.7501104 C45.8329981,64.3176417 40.6949486,67.9933391 40.3846453,67.8015427 C40.216873,67.6978525 39.0453774,68.2615473 37.7811982,69.054186 C36.5170191,69.8467983 35.4124101,70.4954243 35.3265793,70.4954243 C34.7900837,70.4954243 35.7658141,69.7613114 38.4256174,68.163281 C38.7843395,67.947725 39.4686578,67.4039533 39.9464424,66.9550877 C40.4242534,66.5062221 40.8151224,66.253545 40.8151224,66.39388 C40.8151224,66.5341885 42.3061023,65.609364 44.1286052,64.3387025 C46.0973698,62.9660707 47.0880756,62.3867125 47.4648423,62.4116892 Z M27.360134,68.3787577 C27.5812992,68.3787577 27.7621684,68.5999229 27.7621684,68.8701947 C27.7621684,69.1404931 28.0135754,69.457702 28.3207831,69.5755739 C28.6279379,69.6934722 28.8222744,69.9608602 28.7528213,70.1693518 C28.6833152,70.377817 28.5360217,70.4964826 28.4251877,70.433406 C28.3143273,70.3703558 27.995425,70.5080185 27.7166865,70.7393437 C26.9199996,71.400511 25.2930767,71.9414251 25.2930767,71.5449735 C24.4452459,70.7063501 26.3162734,68.5185106 27.360134,68.3787577 Z M15.3572318,77.2309221 C15.4316591,77.243093 15.3916806,77.4220307 15.2709512,77.8024751 C14.8962218,78.9830459 15.7274898,81.3351123 16.6088433,81.5877629 C17.3130847,81.7896665 17.2868381,81.8605483 16.1468543,82.8404062 C15.482221,83.4116946 14.3708123,84.1298002 13.6772335,84.4361877 C12.9836812,84.7425752 12.140904,85.1445302 11.8039836,85.3291564 C11.1177073,85.7052352 10.8288352,85.7512462 10.8288352,85.484705 C10.8288352,84.9605389 14.485271,77.8832788 14.959325,77.4898434 C15.1719971,77.3133399 15.2993675,77.2215294 15.3572318,77.2309221 Z"/>
    </g>
    <g transform="translate(45 17)">
      <path fill="#FFF" d="M8.08457976,3.05106202 C5.78879021,3.05106202 3.94120481,4.89850453 3.94120481,7.19432319 L3.94120481,79.1848358 C5.06912355,83.9510135 16.2789901,88.4650009 20.6853609,91.0903158 L87.2412975,87.5352683 L88.8872704,12.0010456 C85.3799538,10.0872906 82.081658,3.13936406 78.2356747,3.05106202 L8.08457976,3.05106202 Z"/>
      <path fill="#030303" fill-rule="nonzero" d="M18.7708359,92.3516083 C17.604288,91.5108604 13.5482255,89.2298161 9.75727557,87.2820462 C2.99875899,83.8094588 2.85588399,83.692296 2.41085483,81.2494246 C2.16108817,79.8792163 1.90920484,77.9269802 1.85073192,76.9113507 C1.79225901,75.8953771 1.44380276,71.4631619 1.07629651,67.0615245 C0.708790269,62.6598897 0.247886108,47.8394556 0.0523590274,34.1267313 C-0.218838886,15.1266161 0.65084652,11.5189986 0.670425686,5.14588466 C1.09111318,-0.781602144 2.2954965,0.0560528037 7.46783602,0.347068008 C10.7917964,0.557684277 44.6568751,0.425747153 58.5107229,0.098314699 C65.9595374,-0.0779454238 77.2971976,-0.00407375808 79.8988455,0.215474843 C82.6857017,-0.396101586 91.0028787,9.59184239 91.3494829,13.2317576 L91.3256704,35.2925066 C91.2809558,78.2557885 91.4513475,83.6132729 89.3939475,87.3177782 C87.5759954,90.5910894 85.53156,91.0848177 71.7158123,91.5888543 C65.4684707,91.8169939 58.83325,92.1433971 56.9708479,92.3145005 C55.1087104,92.4856039 46.6595064,92.7316108 38.195221,92.8607963 C29.7304066,92.9903283 22.3744608,93.2724086 21.84794,93.487835 C21.2936379,93.7149427 19.9985025,93.2366766 18.7700421,92.3516083 L18.7708359,92.3516083 Z M23.5809608,86.1526908 C22.8160504,84.9721411 21.7280838,84.0025517 21.1631983,83.9980855 C20.5983129,83.9946459 19.6982004,83.8225133 19.1624192,83.6170511 C17.0711526,82.8144429 18.3403588,84.5983246 21.1129275,86.3581529 C24.9134025,88.7704465 25.25789,88.7415857 23.5809608,86.1526908 Z M34.1944565,87.798452 C34.1944565,87.2641815 29.5330274,84.606225 28.5958733,84.606225 C27.4089524,84.606225 28.1280899,85.7795595 30.0391753,86.960797 C32.119594,88.2471694 34.1944565,88.665309 34.1944565,87.798452 Z M44.0441001,87.798452 C44.0441001,87.1583561 40.0155544,85.2222703 38.6833773,85.2222703 C37.8634336,85.2222703 37.9454544,85.5119096 39.1194106,86.7611742 C40.4888939,88.2189966 44.0441001,88.9680056 44.0441001,87.798452 Z M51.1235563,87.0690249 C49.4132897,86.3341023 48.2067897,86.3341023 48.6610792,87.0690249 C48.8703647,87.4074534 49.7871459,87.6651417 50.6981063,87.641435 C52.1773917,87.6026101 52.2229,87.5414516 51.1235563,87.0690249 Z M59.6833562,85.6837009 C57.98235,83.6747726 57.6780791,83.5287517 55.8979625,83.8688974 L54.2882375,84.1767481 L56.0916375,85.6197935 C57.0835604,86.4134694 58.5612583,87.0642147 59.3756458,87.0659345 C60.848052,87.0659345 60.8499041,87.0624949 59.6833562,85.6837009 Z M68.4122248,85.6837009 C68.2148457,85.2607513 67.8782957,84.41382 67.6642478,83.8022436 C67.4364415,83.1508103 66.9054228,82.8319662 66.3823415,83.0326183 C65.8912749,83.221245 65.0274103,83.3841014 64.4625249,83.3947535 C63.6854436,83.4084854 63.8555707,83.7836884 65.162877,84.9336601 C66.9797707,86.5323493 69.0279102,87.00512 68.4122248,85.6837009 Z M74.8241373,83.9908703 C73.1382123,82.186031 70.7929456,81.4394245 71.2660206,82.858078 C71.491181,83.5335619 75.2593768,85.8376249 76.1388518,85.8376249 C76.364806,85.8376249 75.7729331,85.0068439 74.8241373,83.9908703 Z M82.8269892,85.4246395 C82.8269892,84.6048518 80.7687955,82.7598117 79.8541309,82.7598117 C79.1535143,82.7598117 79.2818372,83.1460002 80.3647768,84.2987183 C81.764158,85.7884945 82.8269892,86.2746637 82.8269892,85.4246395 Z M47.5709959,84.8501682 C47.366473,84.6457379 46.8354543,84.6237484 46.3909543,84.801723 C45.9001522,84.9982528 46.0459376,85.1439324 46.7629584,85.1734811 C47.4119813,85.200966 47.7755188,85.0549451 47.5709959,84.8501682 Z M86.7922996,66.9890286 C86.8949579,59.5803594 86.7613434,49.5017083 86.4949079,44.5922561 C86.2287371,39.682804 86.2424954,30.4280654 86.525335,24.0260907 L87.039685,12.3858582 L84.7248455,10.024415 C82.1218747,7.36886352 81.4694122,7.44548421 82.2536372,10.3140543 C83.2085184,13.8069141 84.5570996,28.1611075 84.3462267,32.5881687 C84.2335142,34.9582003 84.0750288,43.6845104 83.9943309,51.9796238 C83.9133684,60.2747398 83.6442871,69.832175 83.396108,73.2178388 C82.9677476,79.0632069 83.011933,79.4267179 84.271085,80.4179529 C85.0005413,80.9920802 85.8239246,81.2363674 86.1012079,80.9604705 C86.3782267,80.6849175 86.6891121,74.3977006 86.792035,66.9890286 L86.7922996,66.9890286 Z M46.4380501,79.6098466 C50.7078959,79.5387266 57.5256791,79.0992855 61.5888853,78.633042 C65.651827,78.1668012 70.8048519,77.7376656 73.0400519,77.6792588 L77.1040518,77.5730895 L77.7898518,71.0862523 C78.166883,67.518489 78.4989351,60.1671973 78.5277747,54.7499303 C78.5566143,49.332666 78.7500247,41.5759453 78.9571934,37.5130804 C79.1643622,33.4498742 79.3524809,28.1865313 79.3752351,25.8164996 C79.4202143,21.1279719 77.6395685,7.56195908 76.7767622,6.02030346 C76.4373018,5.41387847 75.1387268,4.98680657 73.2244664,4.85280835 C68.6990332,4.5353401 51.5598542,4.60543087 48.0456584,4.95554076 C46.3525897,5.12423909 35.5996586,5.27610199 24.1500796,5.29328138 C5.19797563,5.32076895 5.59061729,5.48122286 5.94013187,6.39137099 C6.89289644,8.87478717 5.26412146,18.4136697 5.9348402,42.1301442 C6.78547561,72.2527156 6.83071936,73.3191954 7.36464852,75.7496976 C7.76919643,77.5916447 7.86153601,77.6318428 13.4442443,78.402156 C16.5623588,78.8323209 21.3293567,79.3287983 24.0381608,79.5053997 C26.7467004,79.6816572 29.0596878,79.9135751 29.177692,80.0200857 C29.2959607,80.1269404 31.481419,80.1073559 34.034119,79.9764507 C36.5870836,79.8458894 42.1692627,79.6809693 46.4391084,79.6098466 L46.4380501,79.6098466 Z"/>
    </g>
    <path fill="#030303" d="M10.48877,101.099399 C9.64673,100.410499 9.45901,99.9416591 9.29325,98.1134991 L9.09658,95.9447891 L5.5296,95.9397891 C-2.16255,96.2221991 -1.13821,91.8535091 4.37366,91.8710511 C7.08477,91.8829611 8.30585,91.7551371 8.57438,91.4317641 C8.8443,91.1067231 8.83549,89.8410621 8.54378,87.0220591 C8.3187,84.8474491 8.15238,79.1788561 8.17418,74.4251941 C8.19588,69.6714781 8.18928,62.4880401 8.15908,58.4619811 C8.10618,51.3698781 8.08228,51.1418341 7.39158,51.1418341 C6.435,51.1418341 5.31171,50.5123901 5.32338,49.9829061 C5.32838,49.7471891 5.96357,48.8660471 6.73448,48.0248041 L8.13617,46.4953011 L8.19757,37.9706371 C8.23137,33.2820881 8.29277,28.9697501 8.33404,28.3876671 C8.57211,25.0310691 8.92178,13.4507321 8.86664,10.7488071 C8.83104,9.0025571 8.97399,6.0799701 9.18441,4.2541331 C9.60674,0.5891248 9.97332,0.0195034 11.92179,0.0003211 C12.81822,-0.0084089 13.10135,0.1585684 13.24777,0.7828528 C13.46799,1.7217003 13.23427,21.8127301 12.87019,33.2383901 C12.70215,38.5126471 12.73514,41.2641021 12.96649,41.2641021 C14.02432,39.7304181 16.00486,38.4584871 17.06732,37.0929721 C18.32419,35.4524501 24.86038,28.5126401 30.660655,22.6602701 C34.08738,19.4453711 33.369248,17.1593711 37.728893,17.1593711 C39.530256,17.1593711 40.528,18.3204421 40.962393,18.6863071 C42.523302,20.0010481 42.992488,20.4522161 44.663675,22.2455091 C45.642078,23.2953761 46.825057,24.7099971 47.292522,25.3891031 C47.759988,26.0681821 48.230973,26.7031811 48.339135,26.8002041 C48.447323,26.8972241 48.973156,27.6512891 49.507667,28.4758901 C50.042178,29.3005171 50.601799,29.9752041 50.751235,29.9752041 C50.900672,29.9752041 51.323026,29.4592671 51.689792,28.8286851 C52.056557,28.1980771 52.448881,27.6027651 52.56162,27.5057681 C52.819642,27.2837041 55.285135,23.9059551 56.55286,22.0377051 C57.079486,21.2616031 58.109007,19.9657271 58.840632,19.1580071 C60.309044,17.5369051 62.881958,14.6230221 65.512207,11.6023531 C66.45505,10.5195721 68.417067,8.1048791 69.872276,6.2363911 C71.327484,4.3679041 72.697126,2.8328974 72.915884,2.8252244 C73.134668,2.8175544 73.521991,2.5602971 73.7766,2.2535128 C74.113203,1.8479594 74.630516,1.7446661 75.67189,1.8750528 C78.34225,2.2094332 78.678456,2.4969559 80.506647,6.0093791 C83.855479,12.4433311 86.141717,17.3811441 87.007063,20.0489381 C88.179485,23.6634641 90.707181,30.0237021 91.232353,30.6807681 C91.464975,30.9718101 91.846424,31.8052481 92.080051,32.5328521 C92.313652,33.2604561 92.65126,33.8557681 92.830277,33.8557681 C93.009321,33.8557681 94.008599,33.0223311 95.050925,32.0036851 C98.776497,28.3627541 99.39414,28.0668971 101.269509,29.0251381 C101.877599,29.3358381 102.117629,29.7149071 102.042569,30.2459261 C101.982669,30.6694971 102.197299,31.6153301 102.519509,32.3477231 C102.841719,33.0801421 103.230469,33.9968711 103.383399,34.3849351 C104.470759,37.1440901 106.023989,40.7939641 106.235819,41.0877041 C110.506139,49.7929721 113.553819,57.1450021 117.497279,64.4769771 C118.176379,65.7450451 118.888429,66.7655701 119.079649,66.7448531 C119.270829,66.7242131 119.562959,66.1815021 119.728799,65.5390931 C120.157509,63.8784101 120.635259,63.4381171 121.876949,63.5592691 C122.955899,63.6645731 122.967799,63.6881481 123.249799,66.2790801 C126.799709,87.0131271 122.164709,82.5642371 115.130239,76.5113911 C113.890819,75.3727031 112.772029,74.5060871 109.047759,71.7999291 C107.895889,70.9629201 107.619509,70.5451161 107.619509,69.6408761 C107.619509,68.6149811 107.752909,68.4823181 109.188969,68.0802581 C110.374799,67.7482321 111.035519,67.7374371 111.891999,68.0359981 C113.375439,68.5531261 113.560599,68.2969831 112.621539,67.0268241 C112.198759,66.4549801 111.852839,65.8940371 111.852839,65.7802661 C111.852839,65.6665221 111.155349,64.1122801 110.302889,62.3263951 C108.503029,58.5651581 106.747629,54.7281441 104.978279,50.9908251 C104.296659,49.5519951 103.738949,48.2827881 103.738949,48.1703671 C103.738949,48.0579191 102.566149,45.5451971 101.132749,42.5865471 C99.699337,39.6278711 98.415658,36.8405911 98.280139,36.3925721 C98.049104,35.6287461 97.869214,35.7425171 95.393323,38.2184351 C92.890788,40.7209441 92.685101,40.8494521 91.454947,40.6786371 C89.471366,40.4031791 89.27523,40.2903341 89.272875,39.4230831 C89.272875,38.9804351 89.03356,38.1635611 88.743709,37.6078031 C88.453884,37.0520461 88.216738,36.3752151 88.216738,36.1037001 C88.216738,35.8322111 88.062989,35.3344241 87.875055,34.9975031 C86.788835,33.0499851 83.982187,26.1344131 83.975546,25.3891341 C83.971346,24.9040471 83.657253,24.1102711 83.27784,23.6252101 C82.898401,23.1401501 82.584447,22.6161161 82.580134,22.4607001 C82.561084,21.7772011 78.056738,11.5779901 76.187219,7.9853981 C75.324333,6.3272541 75.344653,6.3139461 71.702425,10.9252101 C70.246529,12.7684831 68.246967,15.0727661 67.25896,16.0458501 C66.270926,17.0189351 64.748196,18.7651851 63.875071,19.9263881 C63.001946,21.0876181 61.851723,22.5139601 61.319064,23.0960431 C60.786378,23.6781271 60.349816,24.2637821 60.348916,24.3975021 C60.348916,24.5312231 59.718626,25.3669891 58.950276,26.2547451 C58.181926,27.1425271 57.300334,28.4018911 56.991195,29.0533481 C56.682056,29.7048051 55.723206,31.0648431 54.860426,32.0756041 C53.874165,33.2310391 53.287372,34.2628881 53.27999,34.8547081 C53.27359,35.3724451 52.958627,36.1676231 52.580194,36.6217811 C52.000439,37.3175291 51.682965,37.4117471 50.56346,37.2204001 C49.462212,37.0321491 49.023427,36.6794601 48.000071,35.1599311 C47.320965,34.1516041 46.705439,33.1678571 46.632255,32.9738111 C46.559045,32.7797921 46.214266,32.3035421 45.866074,31.9154781 C45.517856,31.5274401 44.130117,29.6609111 42.78217,27.7676321 C40.480295,24.5345041 37.785911,21.8724781 36.807508,21.8647521 C36.569436,21.8621521 36.099695,22.2978751 35.763621,22.8314601 C35.427547,23.3650451 33.637932,25.3144421 31.786722,27.1634821 C26.54017,32.4038991 21.75293,37.4354541 21.36534,38.1168091 C20.88121,38.9678151 16.79443,43.5104191 14.74629,45.4740771 L13.0661,47.0849401 L12.9824,59.4321451 C12.9074,70.4949031 13.5067,90.6299331 13.93146,91.3171881 C14.02216,91.4639261 15.17627,91.6113251 16.49615,91.6446891 C20.69927,91.7289591 24.25426,91.9104371 28.06812,91.8729981 C41.956049,91.7147251 45.812219,91.7198571 54.506163,91.9081381 C59.539729,92.0171731 63.746604,92.1555231 63.854765,92.2155841 C64.03656,92.3165221 99.040697,92.2482641 124.806559,92.0966801 C129.658279,91.8679481 134.380109,91.6654891 138.699249,91.8893791 C144.114769,90.8403061 148.656449,96.7456991 140.135729,96.9681591 C139.497659,96.8376691 134.897029,96.7926391 129.912149,96.8680991 C117.667439,97.0534391 63.128087,97.0435991 60.700085,96.8556991 C59.632915,96.7730991 51.219165,96.6163291 42.002854,96.5073991 C32.786544,96.3984691 23.81717,96.2917591 22.07092,96.2703091 C20.32467,96.2489091 17.90185,96.2462091 16.68689,96.2643091 L14.47785,96.2974091 L14.67507,97.7967191 C14.78355,98.6213191 14.93315,99.6973491 15.00755,100.187889 C15.12455,100.959419 14.95645,101.137959 13.76171,101.510809 C11.91827,102.086139 11.65441,102.052959 10.4887,101.099249 L10.48877,101.099399 Z" transform="translate(199 86)"/>
    <rect width="379" height="357"/>
  </g>
</svg>
