<?xml version="1.0" encoding="UTF-8"?>
<svg xmlns="http://www.w3.org/2000/svg" width="156" height="15" viewBox="0 0 156 15">
  <path fill-rule="evenodd" d="M7.83207165,5.27347175 L10.7813564,5.27347175 L7.03128901,14.7655272 L3.92582217,14.7655272 L-3.55271368e-14,5.27347175 L3.16408505,5.27347175 L5.56643297,11.7187784 L5.60547849,11.7187784 L7.83207165,5.27347175 Z M17.0898639,10.6054419 C16.8682731,10.6054419 16.591759,10.6152282 16.2598221,10.6348009 C15.9277854,10.6543736 15.6085309,10.7098961 15.3028574,10.8007693 C14.9967845,10.892042 14.7364477,11.0287512 14.5215476,11.2108971 C14.3067473,11.3934424 14.1992972,11.647388 14.1992972,11.9726342 C14.1992972,12.3241437 14.3487887,12.58478 14.6484705,12.7538441 C14.9479526,12.9232078 15.2605165,13.0077898 15.5858625,13.0077898 C15.8722629,13.0077898 16.1489768,12.9687443 16.4161041,12.8905534 C16.6828319,12.8124623 16.9206001,12.7020165 17.1290093,12.5586165 C17.3371189,12.4154164 17.5029875,12.2332705 17.6270144,12.0117796 C17.7507418,11.7904883 17.8124557,11.5301516 17.8124557,11.2304698 L17.8124557,10.6054419 L17.0898639,10.6054419 Z M17.8124557,13.5741995 L17.7736099,13.5741995 C17.4479643,14.0819909 17.0147687,14.4466821 16.4747223,14.6679733 C15.9342764,14.8891647 15.3644714,14.9999101 14.7658068,14.9999101 C14.3230246,14.9999101 13.8964199,14.9379965 13.486392,14.8144689 C13.0763641,14.6908414 12.7147687,14.5053003 12.4026042,14.2577457 C12.0900404,14.0106904 11.8424858,13.7045176 11.6603399,13.3398265 C11.4776948,12.9754349 11.3869214,12.5521256 11.3869214,12.0702979 C11.3869214,11.5234609 11.4874811,11.0614057 11.6893994,10.6835329 C11.8913176,10.3060596 12.1646363,9.9935956 12.5098546,9.74614088 C12.8545736,9.49888589 13.2486238,9.30665412 13.6914059,9.16994487 C14.1338885,9.03323563 14.5928481,8.93247622 15.0685843,8.86716735 C15.5437213,8.80215806 16.0188584,8.76311254 16.494295,8.74993093 C16.969432,8.73724863 17.4088189,8.7304581 17.8124557,8.7304581 C17.8124557,8.20978461 17.6270144,7.79626162 17.2560321,7.49028855 C16.8847501,7.18441535 16.4453632,7.03122909 15.9375718,7.03122909 C15.4557441,7.03122909 15.0162573,7.13228808 14.6191115,7.33400662 C14.2218658,7.53602473 13.8673604,7.8125389 13.5548964,8.16404843 L11.9921769,6.56248315 C12.5392136,6.05469169 13.1768239,5.67382313 13.9062062,5.41997732 C14.6352889,5.16603166 15.3906349,5.03910876 16.1719447,5.03910876 C17.0314455,5.03910876 17.7373605,5.14645897 18.290988,5.36135912 C18.8443159,5.5761594 19.2870981,5.89201867 19.6192346,6.30853749 C19.9512713,6.72545575 20.1823489,7.23634289 20.3124673,7.84179808 C20.4423861,8.44725327 20.5077948,9.1472765 20.5077948,9.94146834 L20.5077948,14.765637 L17.8124557,14.765637 L17.8124557,13.5741995 Z M22.3827087,14.7655971 L22.3827087,4.26325641e-14 L25.3124207,4.26325641e-14 L25.3124207,14.7655971 L22.3827087,14.7655971 Z M33.9254527,8.94535824 C33.9383347,8.45064853 33.7757616,8.02733919 33.4371341,7.67582966 C33.0984067,7.32422027 32.662415,7.14836565 32.1285599,7.14836565 C31.8030142,7.14836565 31.516514,7.20059277 31.269259,7.30464758 C31.0218042,7.40910183 30.8102994,7.54241582 30.6345446,7.70508883 C30.4585901,7.86806143 30.3219807,8.05669822 30.224317,8.27139864 C30.1267531,8.48629878 30.0711307,8.71098527 30.0582487,8.94535824 L33.9254527,8.94535824 Z M36.4059915,13.1249264 C35.9372456,13.7240903 35.3445725,14.1863453 34.6285716,14.5116914 C33.9123709,14.8370374 33.1702065,14.9999101 32.4019784,14.9999101 C31.6725962,14.9999101 30.9859543,14.8827736 30.3415534,14.6484006 C29.696853,14.4140276 29.137134,14.0789951 28.6618971,13.6425042 C28.1862608,13.2064127 27.8121827,12.6824438 27.5387642,12.0702979 C27.2652459,11.4584516 27.1286365,10.7748056 27.1286365,10.0195594 C27.1286365,9.26451292 27.2652459,8.58096669 27.5387642,7.96882084 C27.8121827,7.35687471 28.1862608,6.83280596 28.6618971,6.39651473 C29.137134,5.96032336 29.696853,5.62499126 30.3415534,5.39061829 C30.9859543,5.15634518 31.6725962,5.03910876 32.4019784,5.03910876 C33.078834,5.03910876 33.6942753,5.15634518 34.2478029,5.39061829 C34.8009311,5.62499126 35.2698768,5.96032336 35.6540407,6.39651473 C36.0378052,6.83280596 36.3341917,7.35687471 36.5426009,7.96882084 C36.7507105,8.58096669 36.8551648,9.26451292 36.8551648,10.0195594 L36.8551648,10.9374786 L30.0582487,10.9374786 C30.1753853,11.4974972 30.4292311,11.9432752 30.8200857,12.2753118 C31.2105409,12.6074484 31.6922687,12.773317 32.2653691,12.773317 C32.7468972,12.773317 33.1539292,12.6659668 33.4860658,12.4511665 C33.8182023,12.2363662 34.1075985,11.959852 34.3551531,11.6211247 L36.4059915,13.1249264 Z M38.6322651,5.27348174 L41.4446409,5.27348174 L41.4446409,6.56248315 L41.4837863,6.56248315 C41.5748592,6.3803373 41.7050775,6.19819146 41.8743413,6.01564617 C42.0436052,5.83340046 42.2455234,5.67082731 42.4798964,5.52732754 C42.7142694,5.38422721 42.981097,5.26709065 43.2807789,5.17581801 C43.5799614,5.08484495 43.9057069,5.03910876 44.2573163,5.03910876 C44.9994807,5.03910876 45.5981454,5.15314964 46.0540093,5.38093181 C46.5096735,5.60881384 46.8645783,5.92467311 47.118524,6.32811018 C47.3724696,6.73184683 47.5448291,7.20708372 47.6362016,7.75382084 C47.726975,8.30075768 47.7727111,8.8934307 47.7727111,9.53124074 L47.7727111,14.765637 L44.8430989,14.765637 L44.8430989,10.1171232 C44.8430989,9.84370475 44.8333126,9.56059978 44.8137399,9.2676086 C44.7944668,8.97461742 44.7357487,8.70449433 44.638085,8.45703961 C44.5405211,8.20978461 44.3905304,8.0077665 44.1889117,7.85158442 C43.9868936,7.69530249 43.6972977,7.61721145 43.3198244,7.61721145 C42.9419517,7.61721145 42.6360785,7.68551614 42.4017055,7.82222539 C42.1673325,7.95903449 41.9882824,8.14147992 41.8647547,8.36916223 C41.7408276,8.59714412 41.6594412,8.85438518 41.6206953,9.14058584 C41.5815499,9.42718593 41.5619772,9.7265682 41.5619772,10.0391321 L41.5619772,14.765637 L38.6322651,14.765637 L38.6322651,5.27348174 Z M56.307702,7.61723142 L53.7296992,7.61723142 L53.7296992,10.7813165 C53.7296992,11.0418529 53.7425812,11.2793216 53.7687447,11.4941219 C53.7945087,11.709022 53.8531269,11.8945631 53.9444994,12.0507452 C54.0352728,12.2070271 54.1754772,12.3275589 54.3643137,12.4120411 C54.5529504,12.4969226 54.8037006,12.5390638 55.1162644,12.5390638 C55.2727461,12.5390638 55.4776602,12.5229863 55.7316058,12.490232 C55.9855515,12.4578771 56.1774837,12.3828818 56.307702,12.2655455 L56.307702,14.7069389 C55.9821562,14.8242752 55.6437285,14.9023662 55.2920192,14.9414118 C54.9406095,14.9803574 54.5953912,14.9999301 54.2570633,14.9999301 C53.762054,14.9999301 53.3061901,14.9478028 52.8896713,14.8436482 C52.4729527,14.7395934 52.1083615,14.5737248 51.7959973,14.345643 C51.4834334,14.1180606 51.239374,13.8216742 51.0636192,13.4570829 C50.8877646,13.0926913 50.7999871,12.6499092 50.7999871,12.1289361 L50.7999871,7.61723142 L48.9250033,7.61723142 L48.9250033,5.27350171 L50.7999871,5.27350171 L50.7999871,2.46102605 L53.7296992,2.46102605 L53.7296992,5.27350171 L56.307702,5.27350171 L56.307702,7.61723142 Z M57.8311463,14.7655971 L57.8311463,5.27344179 L60.7608583,5.27344179 L60.7608583,14.7655971 L57.8311463,14.7655971 Z M57.5967733,2.28521137 C57.5967733,1.81646543 57.7627417,1.41592431 58.0948783,1.08398748 C58.4267153,0.752050639 58.8272564,0.585882499 59.2960023,0.585882499 C59.7646484,0.585882499 60.1649898,0.752050639 60.4971263,1.08398748 C60.8290632,1.41592431 60.9952313,1.81646543 60.9952313,2.28521137 C60.9952313,2.75385745 60.8290632,3.1542987 60.4971263,3.48623554 C60.1649898,3.81847196 59.7646484,3.98434052 59.2960023,3.98434052 C58.8272564,3.98434052 58.4267153,3.81847196 58.0948783,3.48623554 C57.7627417,3.1542987 57.5967733,2.75385745 57.5967733,2.28521137 Z M62.8701252,5.27348174 L65.682501,5.27348174 L65.682501,6.56248315 L65.7216464,6.56248315 C65.8127193,6.3803373 65.9428378,6.19819146 66.1121016,6.01564617 C66.2813654,5.83340046 66.4833835,5.67082731 66.7176566,5.52732754 C66.9520296,5.38422721 67.2188573,5.26709065 67.5185391,5.17581801 C67.8177217,5.08484495 68.1434671,5.03910876 68.4950765,5.03910876 C69.2373408,5.03910876 69.8360055,5.15314964 70.2917696,5.38093181 C70.7474337,5.60881384 71.1024384,5.92467311 71.3562842,6.32811018 C71.6102299,6.73184683 71.7826892,7.20708372 71.8739619,7.75382084 C71.9647352,8.30075768 72.0105712,8.8934307 72.0105712,9.53124074 L72.0105712,14.765637 L69.0808592,14.765637 L69.0808592,10.1171232 C69.0808592,9.84370475 69.0711727,9.56059978 69.0515001,9.2676086 C69.032227,8.97461742 68.9736088,8.70449433 68.8758452,8.45703961 C68.7783812,8.20978461 68.6283905,8.0077665 68.426672,7.85158442 C68.2247537,7.69530249 67.9350579,7.61721145 67.5575847,7.61721145 C67.1797119,7.61721145 66.8738387,7.68551614 66.6394657,7.82222539 C66.4050928,7.95903449 66.2260426,8.14147992 66.102515,8.36916223 C65.9785879,8.59714412 65.8972014,8.85438518 65.8584555,9.14058584 C65.8193101,9.42718593 65.7998373,9.7265682 65.7998373,10.0391321 L65.7998373,14.765637 L62.8701252,14.765637 L62.8701252,5.27348174 Z M77.0495602,10.0195494 C77.0495602,10.7357501 77.2545741,11.3153413 77.664602,11.7578239 C78.0747297,12.2006061 78.6509257,12.4218973 79.39319,12.4218973 C80.1353545,12.4218973 80.7116503,12.2006061 81.1216782,11.7578239 C81.531806,11.3153413 81.7368199,10.7357501 81.7368199,10.0195494 C81.7368199,9.30354845 81.531806,8.72405703 81.1216782,8.28127486 C80.7116503,7.83879227 80.1353545,7.61720146 79.39319,7.61720146 C78.6509257,7.61720146 78.0747297,7.83879227 77.664602,8.28127486 C77.2545741,8.72405703 77.0495602,9.30354845 77.0495602,10.0195494 Z M74.3542211,2.99581983e-05 L77.2839332,2.99581983e-05 L77.2839332,6.28905467 L77.3226791,6.28905467 C77.6613066,5.83339048 78.0943024,5.51123998 78.6216666,5.32220375 C79.1490307,5.13366682 79.7184362,5.03909878 80.3305821,5.03909878 C81.0075375,5.03909878 81.6130925,5.17920329 82.1471473,5.45901286 C82.6808027,5.73912201 83.1334711,6.11329991 83.5044535,6.58204585 C83.8756355,7.0507918 84.1618362,7.58794229 84.3639542,8.19339748 C84.5656727,8.79885267 84.6664321,9.43366689 84.6664321,10.0976404 C84.6664321,10.8139409 84.5558864,11.4715234 84.3345951,12.0702879 C84.1128046,12.669352 83.7974446,13.1869298 83.3874168,13.6230213 C82.9769894,14.0594124 82.4854753,14.3978402 81.9127744,14.6386043 C81.339674,14.8794682 80.701864,15 79.9987451,15 C79.6600177,15 79.3409629,14.9542638 79.0414808,14.8631909 C78.7417989,14.7720181 78.4654845,14.6550813 78.2116387,14.5116814 C77.957693,14.3684812 77.7362021,14.2090037 77.5475653,14.0331491 C77.3585291,13.8573943 77.2056424,13.6850348 77.088406,13.5155713 L77.0495602,13.5155713 L77.0495602,14.765627 L74.3542211,14.765627 L74.3542211,2.99581983e-05 Z M88.9633065,10.0195494 C88.9633065,10.7357501 89.1683205,11.3153413 89.5786479,11.7578239 C89.9887757,12.2006061 90.5649717,12.4218973 91.3071361,12.4218973 C92.0493005,12.4218973 92.6253967,12.2006061 93.0356243,11.7578239 C93.445752,11.3153413 93.650766,10.7357501 93.650766,10.0195494 C93.650766,9.30354845 93.445752,8.72405703 93.0356243,8.28127486 C92.6253967,7.83879227 92.0493005,7.61720146 91.3071361,7.61720146 C90.5649717,7.61720146 89.9887757,7.83879227 89.5786479,8.28127486 C89.1683205,8.72405703 88.9633065,9.30354845 88.9633065,10.0195494 Z M86.0335945,10.0195494 C86.0335945,9.26450293 86.1704036,8.58095671 86.4439219,7.96881085 C86.7171407,7.35686472 87.0914184,6.83279597 87.566855,6.39650474 C88.0419921,5.96041324 88.6021105,5.62508114 89.2465114,5.3906083 C89.8909122,5.15633519 90.5775541,5.03909878 91.3071361,5.03909878 C92.0362188,5.03909878 92.7230604,5.15633519 93.3675611,5.3906083 C94.0122616,5.62508114 94.5717808,5.96041324 95.0472174,6.39650474 C95.5224543,6.83279597 95.8969318,7.35686472 96.1704502,7.96881085 C96.4438687,8.58095671 96.580478,9.26450293 96.580478,10.0195494 C96.580478,10.7747956 96.4438687,11.4584417 96.1704502,12.0702879 C95.8969318,12.6824338 95.5224543,13.2065025 95.0472174,13.6424942 C94.5717808,14.0789851 94.0122616,14.4140176 93.3675611,14.6484905 C92.7230604,14.8827636 92.0362188,15 91.3071361,15 C90.5775541,15 89.8909122,14.8827636 89.2465114,14.6484905 C88.6021105,14.4140176 88.0419921,14.0789851 87.566855,13.6424942 C87.0914184,13.2065025 86.7171407,12.6824338 86.4439219,12.0702879 C86.1704036,11.4584417 86.0335945,10.7747956 86.0335945,10.0195494 Z M107.439486,14.7656071 L104.62711,14.7656071 L104.62711,13.4766056 L104.587965,13.4766056 C104.483511,13.6589512 104.350197,13.8412968 104.187723,14.0234426 C104.024651,14.2059879 103.826228,14.3684612 103.591955,14.5117613 C103.357482,14.6551612 103.090454,14.7719981 102.790972,14.8632708 C102.49129,14.9542438 102.166144,14.99998 101.814535,14.99998 C101.07227,14.99998 100.470011,14.8859392 100.007956,14.658157 C99.5457006,14.4305745 99.1876002,14.1147153 98.9336546,13.7109786 C98.6797089,13.3074417 98.5104451,12.8320051 98.4257633,12.2850682 C98.3409816,11.7383311 98.2990401,11.1459577 98.2990401,10.507848 L98.2990401,5.27345178 L101.228752,5.27345178 L101.228752,9.92196555 C101.228752,10.1952842 101.238439,10.478489 101.258011,10.7714802 C101.277584,11.0644714 101.336002,11.3347942 101.433666,11.5820492 C101.53153,11.8295039 101.680921,12.0312224 101.882839,12.1875044 C102.084558,12.3437863 102.374254,12.4218773 102.752226,12.4218773 C103.1296,12.4218773 103.435673,12.3535726 103.670046,12.2168634 C103.904519,12.0800543 104.083269,11.8979085 104.207296,11.6699266 C104.330724,11.4423441 104.41231,11.1851031 104.451356,10.8984031 C104.490301,10.6121026 104.509774,10.3124207 104.509774,9.99995673 L104.509774,5.27345178 L107.439486,5.27345178 L107.439486,14.7656071 Z M109.509638,5.27348174 L112.43935,5.27348174 L112.43935,6.79685612 L112.478395,6.79685612 C112.790659,6.21097362 113.161941,5.77148685 113.591642,5.47849567 C114.021242,5.18550449 114.561489,5.03910876 115.21258,5.03910876 C115.381944,5.03910876 115.551108,5.04579943 115.720372,5.05868145 C115.889535,5.0717632 116.045817,5.09762711 116.189217,5.13677249 L116.189217,7.8125389 C115.980808,7.74752961 115.775694,7.69869775 115.574076,7.66594345 C115.372058,7.63368846 115.160653,7.61721145 114.939361,7.61721145 C114.379343,7.61721145 113.936361,7.69530249 113.611115,7.85158442 C113.285469,8.0077665 113.034919,8.2260619 112.859164,8.50587147 C112.683409,8.78598063 112.569268,9.12101315 112.517241,9.51166805 C112.465313,9.90242282 112.43935,10.3320234 112.43935,10.8007693 L112.43935,14.765637 L109.509638,14.765637 L109.509638,5.27348174 Z M117.458706,5.27348174 L120.388418,5.27348174 L120.388418,6.79685612 L120.427464,6.79685612 C120.739828,6.21097362 121.11101,5.77148685 121.54071,5.47849567 C121.970311,5.18550449 122.510557,5.03910876 123.161648,5.03910876 C123.331012,5.03910876 123.500276,5.04579943 123.66944,5.05868145 C123.838604,5.0717632 123.994986,5.09762711 124.138286,5.13677249 L124.138286,7.8125389 C123.929877,7.74752961 123.724863,7.69869775 123.523144,7.66594345 C123.321226,7.63368846 123.109721,7.61721145 122.88843,7.61721145 C122.328411,7.61721145 121.885429,7.69530249 121.560183,7.85158442 C121.234637,8.0077665 120.983987,8.2260619 120.808232,8.50587147 C120.632577,8.78598063 120.518337,9.12101315 120.466409,9.51166805 C120.414482,9.90242282 120.388418,10.3320234 120.388418,10.8007693 L120.388418,14.765637 L117.458706,14.765637 L117.458706,5.27348174 Z M131.56022,8.94535824 C131.573102,8.45064853 131.410429,8.02733919 131.071901,7.67582966 C130.733174,7.32422027 130.297082,7.14836565 129.763227,7.14836565 C129.437781,7.14836565 129.151181,7.20059277 128.903926,7.30464758 C128.656471,7.40910183 128.445066,7.54241582 128.269312,7.70508883 C128.093357,7.86806143 127.956748,8.05669822 127.859084,8.27139864 C127.76152,8.48629878 127.705898,8.71098527 127.693016,8.94535824 L131.56022,8.94535824 Z M134.040659,13.1249264 C133.572013,13.7240903 132.97924,14.1863453 132.263239,14.5116914 C131.547038,14.8370374 130.804973,14.9999101 130.036646,14.9999101 C129.307363,14.9999101 128.620721,14.8827736 127.976221,14.6484006 C127.33162,14.4140276 126.771801,14.0789951 126.296664,13.6425042 C125.820928,13.2064127 125.44685,12.6824438 125.173431,12.0702979 C124.900013,11.4584516 124.763403,10.7748056 124.763403,10.0195594 C124.763403,9.26451292 124.900013,8.58096669 125.173431,7.96882084 C125.44685,7.35687471 125.820928,6.83280596 126.296664,6.39651473 C126.771801,5.96032336 127.33162,5.62499126 127.976221,5.39061829 C128.620721,5.15634518 129.307363,5.03910876 130.036646,5.03910876 C130.713501,5.03910876 131.328942,5.15634518 131.88257,5.39061829 C132.435698,5.62499126 132.904644,5.96032336 133.288808,6.39651473 C133.672572,6.83280596 133.968959,7.35687471 134.177268,7.96882084 C134.385477,8.58096669 134.489832,9.26451292 134.489832,10.0195594 L134.489832,10.9374786 L127.693016,10.9374786 C127.810052,11.4974972 128.063998,11.9432752 128.454753,12.2753118 C128.845308,12.6074484 129.326936,12.773317 129.900136,12.773317 C130.381664,12.773317 130.788596,12.6659668 131.120833,12.4511665 C131.452969,12.2363662 131.742365,11.959852 131.98982,11.6211247 L134.040659,13.1249264 Z M141.501229,10.6054419 C141.279738,10.6054419 141.003224,10.6152282 140.671287,10.6348009 C140.33915,10.6543736 140.019995,10.7098961 139.714322,10.8007693 C139.408149,10.892042 139.147912,11.0287512 138.933012,11.2108971 C138.718212,11.3934424 138.610762,11.647388 138.610762,11.9726342 C138.610762,12.3241437 138.760153,12.58478 139.059935,12.7538441 C139.359317,12.9232078 139.671881,13.0077898 139.997227,13.0077898 C140.283727,13.0077898 140.560441,12.9687443 140.827469,12.8905534 C141.094296,12.8124623 141.332065,12.7020165 141.540374,12.5586165 C141.748583,12.4154164 141.914452,12.2332705 142.038379,12.0117796 C142.162106,11.7904883 142.22392,11.5301516 142.22392,11.2304698 L142.22392,10.6054419 L141.501229,10.6054419 Z M142.22392,13.5741995 L142.185074,13.5741995 C141.859329,14.0819909 141.426133,14.4466821 140.886187,14.6679733 C140.345641,14.8891647 139.775836,14.9999101 139.177171,14.9999101 C138.734389,14.9999101 138.307884,14.9379965 137.897857,14.8144689 C137.487729,14.6908414 137.126233,14.5053003 136.813969,14.2577457 C136.501405,14.0106904 136.25395,13.7045176 136.071804,13.3398265 C135.889159,12.9754349 135.798386,12.5521256 135.798386,12.0702979 C135.798386,11.5234609 135.898846,11.0614057 136.100864,10.6835329 C136.302782,10.3060596 136.576101,9.9935956 136.921319,9.74614088 C137.266038,9.49888589 137.660088,9.30665412 138.10287,9.16994487 C138.545353,9.03323563 139.004313,8.93247622 139.479949,8.86716735 C139.955186,8.80215806 140.430223,8.76311254 140.90566,8.74993093 C141.380897,8.73724863 141.820184,8.7304581 142.22392,8.7304581 C142.22392,8.20978461 142.038379,7.79626162 141.667397,7.49028855 C141.296215,7.18441535 140.856828,7.03122909 140.349036,7.03122909 C139.867209,7.03122909 139.427722,7.13228808 139.030576,7.33400662 C138.63333,7.53602473 138.278725,7.8125389 137.966261,8.16404843 L136.403641,6.56248315 C136.950578,6.05469169 137.588288,5.67382313 138.317671,5.41997732 C139.046753,5.16603166 139.802,5.03910876 140.583409,5.03910876 C141.44281,5.03910876 142.148725,5.14645897 142.702353,5.36135912 C143.25578,5.5761594 143.698563,5.89201867 144.030599,6.30853749 C144.362736,6.72545575 144.593813,7.23634289 144.723932,7.84179808 C144.853851,8.44725327 144.919259,9.1472765 144.919259,9.94146834 L144.919259,14.765637 L142.22392,14.765637 L142.22392,13.5741995 Z M155.895504,14.7656071 L153.083128,14.7656071 L153.083128,13.4766056 L153.043983,13.4766056 C152.939528,13.6589512 152.806314,13.8412968 152.643741,14.0234426 C152.480669,14.2059879 152.282246,14.3684612 152.047972,14.5117613 C151.8135,14.6551612 151.546472,14.7719981 151.24709,14.8632708 C150.947408,14.9542438 150.622162,14.99998 150.270552,14.99998 C149.528288,14.99998 148.926029,14.8859392 148.463973,14.658157 C148.001718,14.4305745 147.643618,14.1147153 147.389672,13.7109786 C147.135727,13.3074417 146.966563,12.8320051 146.881881,12.2850682 C146.796999,11.7383311 146.755058,11.1459577 146.755058,10.507848 L146.755058,5.27345178 L149.68477,5.27345178 L149.68477,9.92196555 C149.68477,10.1952842 149.694456,10.478489 149.714129,10.7714802 C149.733602,11.0644714 149.79202,11.3347942 149.889684,11.5820492 C149.987547,11.8295039 150.137039,12.0312224 150.338857,12.1875044 C150.540676,12.3437863 150.830271,12.4218773 151.208244,12.4218773 C151.585618,12.4218773 151.89169,12.3535726 152.126163,12.2168634 C152.360536,12.0800543 152.539287,11.8979085 152.663314,11.6699266 C152.786742,11.4423441 152.868328,11.1851031 152.907373,10.8984031 C152.946319,10.6121026 152.965792,10.3124207 152.965792,9.99995673 L152.965792,5.27345178 L155.895504,5.27345178 L155.895504,14.7656071 Z"/>
</svg>
