<?xml version="1.0" encoding="UTF-8"?>
<svg xmlns="http://www.w3.org/2000/svg" width="75" height="100" viewBox="0 0 75 100">
  <g fill="none">
    <path fill="#FFF" d="M32.2136157,1.33732884 C26.5279908,1.35448995 20.6203307,4.62762261 17.0857771,12.329869 C7.46750314,37.0041167 40.7456548,43.1679011 46.7785274,22.9570469 C50.5493112,10.3252603 41.6897279,1.30883292 32.2136157,1.33732884 Z M60.0898305,20.2518623 L53.4556833,43.2644271 C53.0692405,48.5779736 67.4110578,47.380128 67.4110578,47.380128 L72.8858764,23.2661588 L60.0898305,20.2518623 Z M18.6497689,42.5910547 C7.3452567,42.7076019 5.27215192,56.062062 1.0049671,76.0153936 C1.15517981,93.8110013 38.7274232,101.443205 37.9973344,98.0811734 C37.2674575,94.7191208 37.0312273,79.8991229 39.5861145,68.8855445 C42.1410016,57.8720085 45.8552172,51.1285175 26.9832899,44.2885429 C23.7396278,43.1129008 20.9959684,42.5668596 18.6497689,42.5910547 Z"/>
    <path fill="#030303" d="M38.9039073,9.68082058e-05 C38.6318718,0.00475785115 38.3473364,0.173720658 38.029538,0.697558325 C37.3363138,0.468277385 28.7849949,-1.33838523 22.825004,3.31204324 C18.6544299,6.18826691 16.3806884,10.5654523 14.9645788,15.263487 C14.7834338,16.0246777 14.4997457,17.1605527 14.3620331,17.6766149 C14.2082187,18.2528893 14.1380912,21.8691594 14.270719,22.3918954 C14.3313126,22.6313035 14.4484743,23.1209461 14.53089,23.4800794 C15.133012,26.0809202 16.1861958,28.9069529 18.067986,31.2071141 C18.9580333,32.2342172 19.6951137,33.2773798 21.0237228,34.0858801 C23.2536081,35.898136 26.0154879,37.3560678 29.0597846,37.4634837 C32.1822596,37.5667046 34.6981635,37.3820214 35.7278302,36.9742225 C39.660903,35.5073499 43.6293573,33.8796501 45.9672941,29.6793937 C46.1988632,29.211086 46.4376357,28.8671646 46.5312803,28.8671646 C46.6206876,28.8671646 46.9884862,29.081742 47.3488696,29.3439681 C47.9543815,29.7844578 48.6179445,29.8307081 49.5690091,29.9503909 C51.3940193,30.1786761 51.6938091,27.5322631 50.1084189,27.2651641 C49.9107483,27.2651641 48.7285383,26.7735936 48.426418,26.6089952 C47.9531103,26.3511336 47.8842539,26.2720653 47.9278983,26.0376361 C48.011797,25.5853666 48.178959,25.0550458 48.5789612,23.9698067 C49.1387101,22.443633 49.8211292,20.7048097 49.6179501,18.4195004 C49.5236699,12.6939388 47.7062869,3.89668633 40.2556097,0.467196871 C39.7750986,0.441857746 39.3568759,-0.00750916641 38.9039073,9.68082058e-05 Z M35.7352455,3.11530486 C36.7250815,3.11784724 37.6193662,3.19170359 38.1102588,3.33083572 C38.4297521,3.42145063 38.9009411,3.55018016 39.1566629,3.61683308 C43.6973662,4.87059007 47.5181502,13.7201521 45.757759,19.4530019 C45.7429284,19.69866 45.7196232,18.6436542 45.5420799,18.3002624 C45.1566964,17.5698558 44.050758,17.8283318 43.5530857,18.5942259 C43.1835921,19.0494615 42.8812599,19.4961589 42.8812599,19.5867526 C42.7886747,20.4561643 41.6276513,20.9196202 41.8528644,21.8399855 C42.0107042,22.7497999 43.144397,23.8919038 44.5143199,22.4997985 C45.0325431,21.8082481 45.1594506,22.0388002 44.7422873,22.913339 C43.957749,24.5743652 43.1467275,26.5079141 42.0833741,28.1598089 C41.5708713,28.8441771 39.7051829,30.7145901 39.3447995,30.9048454 C39.1657731,30.9994858 38.7738218,31.258661 38.4744557,31.4808232 C35.6229568,33.5243727 32.2973026,34.3770258 28.5699513,34.0681893 C26.2099805,33.8604339 24.8760748,33.3931856 22.9283944,31.7663545 C22.0743643,31.0648887 20.3535919,29.1655137 20.3535919,28.9243895 C20.3535919,28.8831604 20.1885487,28.6452565 19.9870645,28.3957636 C18.6262518,26.6987626 17.9101461,23.0552254 17.892985,20.6910596 C17.9207394,19.3121537 18.0366299,18.5557935 18.4033692,17.3561894 C18.5182004,16.9808059 18.6122687,16.5801469 18.6122687,16.4658242 C19.732402,11.6572169 22.6921643,8.76631095 25.250865,6.29714464 C25.9909115,5.70254386 26.9004505,5.13207458 28.6246126,4.18100995 C29.073344,3.93350857 30.7464465,3.49945954 31.4504759,3.44784909 C31.7218757,3.42793372 32.5983636,3.33492473 33.3979444,3.24108946 C34.1382027,3.15424575 34.9655378,3.11324976 35.7352455,3.11530486 Z M60.5817824,18.4969796 C59.2868599,18.5192679 58.120328,18.9471728 57.6349439,20.2241291 C55.6169242,25.9752628 54.6300543,32.3316966 52.7753829,38.7707367 C52.6465686,39.2175613 52.4874576,40.0658711 52.3469907,41.056152 C52.1658456,42.3216464 51.3448665,44.4544337 52.7302555,45.2708577 C52.9099176,45.3635701 53.2933943,45.6363894 53.5825908,45.8771323 C56.0796386,47.9271014 61.4928044,48.6791183 64.8220603,48.74825 C64.9157049,48.6959404 65.041553,48.703843 65.1176128,48.7668942 C65.1902827,48.8273818 65.4693096,48.8925728 65.7375315,48.9116619 C66.2985515,48.9515774 66.2652887,48.7626357 66.0604146,50.7419476 C65.2402829,58.44466 62.6021326,68.2769818 57.3828239,74.7867427 C56.9190501,75.3093515 56.2599362,76.0756058 55.9184089,76.4894852 C54.9760308,77.6312712 53.6275063,78.9289056 53.3825897,78.9289056 C53.0048333,78.9289056 51.9717767,78.307292 51.2408405,77.6401696 C48.0065004,74.6521656 45.1535184,70.8758734 43.7927057,66.4360817 C43.297364,65.5192969 43.0564728,64.7397375 43.1891006,64.482236 C43.2433382,64.3772355 43.3501185,63.9485466 43.4259664,63.5295401 C43.5020261,63.1105547 43.6509676,62.5444286 43.7571123,62.2715881 C43.9871983,61.6796357 44.2770304,59.4754285 44.3143188,58.0335984 C44.3569038,55.1974809 43.6583829,53.075753 41.9759583,50.9879235 C37.5102554,45.7941445 33.4975212,43.7727985 24.6523447,41.8111562 C20.9353749,40.9868508 15.8010242,40.8299643 11.6056618,42.2552901 C8.91857056,43.8031377 7.95076855,45.7866233 6.32215777,48.9462596 C4.59545323,53.2402242 2.47234817,58.9264 1.40306254,64.128018 C1.34204525,64.5170668 1.24352776,65.0803326 1.18462912,65.3796139 C1.04352664,66.0947662 0.885898643,67.5596473 0.768948839,69.2431312 C0.716829904,69.9913346 0.120640139,74.215553 0.0255124894,74.9219341 C-0.329997968,77.6829876 3.14099596,77.6944919 3.54163379,74.7389034 C3.88125433,73.2850606 4.36176548,70.6330331 4.51748669,69.3518395 C4.82236127,66.844495 4.90604818,66.2564832 5.12914264,65.0531291 C5.33232174,63.9574026 5.48592429,63.3131194 5.94630822,61.6249744 C6.26516593,60.4557094 7.21517123,57.6312233 7.77640317,56.1835457 C8.08975237,55.3754692 8.50670385,54.2001236 8.70331512,53.5716244 C9.02132537,52.5542458 10.0696363,50.2810975 10.869217,48.8746914 C13.3183832,43.9052145 16.6878935,44.5092009 21.6595314,45.0130809 C26.5515079,45.3545446 31.2612799,46.4615847 35.6577027,50.1315416 C35.9045261,50.3775176 36.3375794,50.7746596 36.6199962,51.0140889 C38.4003028,52.5241609 39.5314531,53.9676223 39.8960738,55.195786 C39.9873879,55.5025461 40.0717104,56.1808126 40.0837867,56.7031037 L40.1060326,57.6527488 L39.5628092,57.6868592 C38.7053892,57.7408849 38.6369566,57.8590211 38.6369566,59.284241 C38.6369566,60.5434429 38.8549663,62.3001052 39.0837811,62.8853416 C39.194375,63.168288 39.1765783,63.3634586 38.96895,64.136768 C38.1810219,67.0057035 37.1130074,70.4693669 36.6066487,73.8683265 C36.4653343,74.5267624 36.2492314,75.6286541 36.1267731,76.3170054 C35.4435066,80.1139758 34.5278235,83.9135308 34.4496451,87.9073879 C34.4644757,88.146796 34.504942,88.8450202 34.539688,89.4589855 C34.6907482,91.835503 35.2714717,94.4970433 35.9799503,96.9625019 C36.1346122,97.3692627 36.3329183,97.8930368 36.4204188,98.1264279 C38.0106819,101.95503 40.5272214,99.1899932 39.3562403,96.0507807 C38.9255175,94.5969167 38.9628059,92.4824769 38.639499,90.7368952 C38.0361058,85.6140276 39.3316639,81.5142802 40.3176863,76.4258832 C40.6943833,74.6422503 41.0316734,72.8250368 41.0397243,72.5382979 C41.0524362,72.0915158 41.4098534,71.1475275 41.5668458,71.1475275 C41.6416344,71.1475275 41.9312546,71.589352 42.2104935,72.1292278 C42.8594378,73.384256 43.0727864,73.7409106 43.5041448,74.2912738 C44.7399568,75.8846937 45.5028847,77.3905284 47.1397583,78.6567854 C47.445904,78.8961935 48.0700601,79.4398195 48.5264185,79.8646947 C55.4368384,87.0453492 56.6406587,81.1445324 60.4355951,77.1875823 C66.8123256,69.6952524 68.471445,60.2019579 69.9038683,49.2464307 L69.9254786,47.5315907 L70.3953964,47.3058479 C72.6161715,46.0154593 74.2782571,42.0717085 74.7115222,38.9883227 C74.9074979,38.0208385 74.8481755,37.5949675 74.4466902,37.0897952 C74.2829181,36.8839466 74.0651203,36.4310203 73.9625773,36.0833912 C73.8598225,35.7357834 73.7057962,35.2916495 73.6204144,35.0962883 C73.3365145,34.4490813 73.3197771,33.9699049 73.5583378,33.3292869 C74.1386376,30.8048025 74.1835531,27.5019027 74.7094035,24.4544493 C75.4333483,20.0956538 69.5913665,20.416164 65.4633774,19.4125144 C64.9845612,19.3505649 64.2947268,19.201242 63.930318,19.0806058 C62.967177,18.773443 61.7243735,18.4772973 60.5817824,18.4969796 Z M60.9798778,21.7105357 C61.0038186,21.7105357 61.0288188,21.7105357 61.0555138,21.7105357 C61.1976756,21.7151967 61.3817868,21.7411714 61.6214068,21.7797098 C64.53244,22.2567675 67.3356336,22.7652873 70.1536578,23.5581943 C70.854721,23.7895515 70.9890438,24.463729 70.9689166,26.5747153 C70.9562046,27.8351885 70.6996354,29.727127 70.2036581,31.5332811 C69.997301,32.4402989 69.6498414,33.0247089 69.1703896,33.2715747 C68.6191153,33.5553687 68.5358522,33.8485906 68.613395,35.2333653 C68.6621241,36.1010185 68.6396663,36.3879268 68.503013,36.6482249 C68.1402991,37.3395635 67.5854231,39.212307 67.5854231,39.7462083 C67.5854231,39.9179465 67.5559738,40.1359986 67.5195329,40.2306813 C67.4080916,40.5210643 67.1502512,40.4122078 67.1502512,40.0747694 C67.1502512,39.9740909 66.9563942,39.553686 66.7197403,39.1405693 C66.036262,37.9486347 65.7504553,37.3313219 65.6824464,36.8993068 C65.5953697,36.3472275 64.9695187,35.861568 64.0739629,35.6516939 C61.4593296,35.0401651 61.7993739,37.494183 63.0767115,40.1731174 C63.0451436,40.2239864 62.8103965,40.2204058 62.5546747,40.1650665 C61.7214074,39.9850232 61.0201323,39.875531 59.9290245,39.7550431 C58.497025,39.5775633 56.2372666,39.353473 56.4641747,38.520015 C57.2601537,34.7648246 57.7027409,34.1436347 59.0639773,28.8152575 C59.7752101,25.7557913 60.1976701,24.7368025 60.5447059,22.4874468 C60.5781807,21.9139054 60.6230962,21.7206417 60.9798778,21.7101119 L60.9798778,21.7105357 Z M56.0715877,41.0979107 C57.1637548,41.3754123 57.3042217,41.4916629 58.5527456,41.6726173 C58.8220268,41.7657746 59.1116471,41.8624277 59.1955458,41.8875126 C58.080921,43.6744082 59.4243607,44.8485249 60.4082645,44.6460873 C61.3423798,44.3945605 62.1481047,43.4821189 61.8510691,42.6654618 C61.6324238,42.4237868 61.7470431,42.089929 62.0091208,42.2053957 C62.1131469,42.2513282 62.6148446,42.3243159 63.1237457,42.3676636 C64.3479051,42.4720286 64.557652,42.5705673 65.0089257,43.25341 C65.359987,43.7882859 65.5004539,44.9189914 64.5769318,45.9042299 C61.7947129,46.3582791 58.2182099,44.9933138 55.6561193,43.656103 C55.2840833,43.3033256 56.0690454,41.7885926 56.0715877,41.0979107 Z"/>
    <path fill="#ABBFB7" d="M63.2434498 24.0244893C63.2203564 24.0244893 63.2044665 24.0268198 63.1970512 24.029574 63.1267118 24.055231 62.7337012 24.1226678 62.3233175 24.1795961 61.3593291 24.3133256 61.1470398 24.4920978 61.305939 25.0369525 61.5252198 25.7886304 61.7283989 25.966534 62.7294638 26.2835908 63.9152755 26.634864 66.5447394 26.920374 67.6705931 26.2257515 68.4504703 25.1487964 67.3337268 24.5587507 66.386052 24.3614827 65.5998188 24.2268421 63.5906975 24.0143833 63.2434498 24.0244893zM62.5699291 27.178278C62.2428086 27.1812441 61.9794597 27.2513928 61.8252215 27.3909487 61.6275509 27.5701022 61.6036101 27.674552 61.6658986 28.0899992 61.775645 28.8218465 62.489632 29.4772739 63.3411198 29.627762 63.5506549 29.6647749 64.1222682 29.6914276 64.611254 29.6868937 65.3068087 29.6803259 65.547488 29.6359189 65.7169805 29.482507 66.3286365 28.9290505 65.969948 28.0809526 65.0282055 27.8532606 64.9085014 27.8243198 64.467821 27.6633019 64.0487509 27.4953773 63.515697 27.2816472 62.9902704 27.1744009 62.5699291 27.178278zM63.1731104 30.222384C62.8709901 30.216028 62.5377255 30.2984861 62.2803088 30.4599065 61.9678071 30.6557974 61.9529765 31.217559 62.2449272 31.7900834 62.5294627 32.3475653 62.6991671 32.4676296 63.425866 32.6249821 64.628627 32.8854921 65.9390156 32.7679067 66.2525767 32.3713366 66.3273653 32.2767175 66.3885944 32.0350212 66.3885944 31.8342574 66.3652892 31.0798888 64.9502389 30.6776619 64.1976924 30.4996101 64.0798951 30.4996101 63.8375209 30.4242495 63.6591301 30.3320456 63.5239598 30.2620876 63.3542555 30.2261976 63.1731104 30.222384z"/>
  </g>
</svg>
