<?xml version="1.0" encoding="UTF-8"?>
<svg xmlns="http://www.w3.org/2000/svg" width="112" height="100" viewBox="0 0 112 100">
  <g fill="none" fill-rule="evenodd">
    <path fill="#FFF" d="M3.12057286,4.12569055 C40.5668719,0.898453586 68.3449514,0.771016661 90.1484384,4.19955542 C93.5811279,3.40238284 90.0585674,20.699603 92.5265425,31.8238028 C92.5265425,31.8238028 106.926857,31.6907101 107.419118,33.533181 C109.957239,43.0331304 109.78916,94.4055036 92.6778137,95.8123345 C75.566467,97.2191896 25.8964836,98.4747467 15.4078009,95.7518444 C4.91911567,93.0289178 3.96101574,90.2757462 2.51545622,64.9526214 C1.06989913,39.6294965 -2.64484597,5.77457872 3.12057286,4.12569055 Z"/>
    <path fill="#030303" fill-rule="nonzero" d="M63.1627913,0.075408633 C42.7041208,-0.439557912 14.7800981,1.82088185 8.08282648,2.67677251 C6.30275595,2.77469262 4.38459235,3.00648218 3.82023125,3.19164197 C1.61264747,3.83717674 -0.152174319,4.33687513 0.010398787,9.99871566 C0.145122677,10.2166935 0.302285175,15.6515021 0.359333225,22.0758281 C2.2731664,45.4897536 -0.54220413,66.6449143 5.19842882,86.7197254 C8.0268489,96.610627 18.1079495,98.3473617 27.2552579,98.5550475 C41.9827987,98.8715765 69.0094979,100.488642 88.5098428,97.9993982 C90.5569264,97.8169085 92.8142228,97.5130504 93.5262505,97.3242981 C102.727007,96.8747249 105.430146,85.4578814 107.122367,80.1999552 C108.676117,75.1365099 109.441083,71.9603934 110.39505,66.6066832 C110.891437,63.8209363 110.954303,63.260141 111.44138,57.2745864 C111.73421,53.676059 111.677036,43.8131449 111.343714,40.4086371 C110.973485,36.6271345 110.136993,33.7661634 109.308896,33.4484206 C108.932639,33.3040407 108.734811,33.5434036 107.715935,35.3746844 C107.479082,35.8003723 107.081066,35.9922801 106.553453,35.9355282 C105.230616,35.7932843 104.879844,36.550648 105.275765,38.694307 C105.464561,39.7165211 105.803992,42.5824926 106.030051,45.0628278 C106.389719,49.0091003 106.371613,50.2422285 105.88403,54.9339706 C105.222863,61.295986 105.088484,62.3479596 104.653276,64.5837131 C104.273851,66.5329397 103.953912,66.8833548 104.209997,65.0691871 C105.005203,59.4358439 105.553403,43.0942307 104.961913,42.652061 C104.839465,42.5605006 104.668791,41.9051107 104.58311,41.195639 C104.497431,40.4861188 104.322513,39.1409917 104.194352,38.2064542 C104.027577,36.9902933 104.06925,36.5072952 104.340846,36.5072952 C104.549554,36.5072952 105.086306,36.1678275 105.533673,35.7530143 C106.257066,35.0822348 106.291374,34.9524676 105.843257,34.5805703 C105.149777,34.0050166 105.211335,33.6214678 105.965573,33.8186917 C106.692917,34.0089004 108.00695,32.9374107 107.668999,32.4296049 C107.4691,32.1291936 106.638474,31.8657026 103.721204,31.1779801 C102.728515,30.9439574 98.9294062,30.6367494 96.2015715,30.5697297 C93.9047066,30.5132691 94.1035276,31.5983763 94.5337037,21.4576012 C94.7985031,15.2153037 94.7603909,13.176677 94.3720384,12.7882978 C93.6515537,11.9267999 95.1703543,5.97297106 92.7051173,4.46601122 C92.2365402,4.0209772 91.7924019,3.51139942 91.7185225,3.33340037 C91.4773099,2.75221517 89.5499733,1.86714752 88.1244031,1.68308006 C87.3571649,1.58401909 86.2200246,1.37589638 85.5969988,1.22083599 C84.9739754,1.06575132 83.1897007,0.838525214 81.6321375,0.715918755 C76.30307,0.284914938 70.9285184,0.105216737 65.4356058,0.0782486559 C64.6803296,0.0746076009 63.922728,0.0736366529 63.1627913,0.0753358119 L63.1627913,0.075408633 Z M64.4675027,2.33779029 C72.6333453,2.33002271 80.9959821,2.73643727 88.4557974,4.16542999 C88.5151369,4.33087953 88.8793977,4.46712781 89.2650777,4.47028339 C90.4014315,4.4775655 91.4224003,4.8378843 91.424585,5.23213773 C91.4257987,5.43397355 91.6416283,6.01081376 91.9043692,6.51459013 C92.1671126,7.01831795 92.3694994,7.74684451 92.3542871,8.13313617 C92.3080797,9.69893546 92.7770888,11.0291342 92.4059634,12.533691 C91.9828631,13.3242368 91.654787,18.2597112 91.286623,29.3778425 C90.8491308,44.1627104 91.3247812,60.5338161 92.8876434,72.4323712 C92.9609961,72.6993819 92.9022562,73.432302 92.7572669,74.0608937 C92.612268,74.6894855 92.6215624,76.2765243 92.7781181,77.5876924 C93.0982857,80.2684313 92.9677903,81.1215305 92.4400874,79.7955554 C90.4148306,77.8799478 91.6641033,78.4726873 91.1794667,75.5798933 C89.0073687,61.9793392 89.8997913,63.6457287 89.9183728,28.4969742 C89.9208001,23.9042445 90.4835883,21.7485215 90.6005972,19.0302312 C90.6657284,17.5171787 90.8125042,15.1140824 90.9262993,13.6900172 C91.2049031,10.2035129 90.8341272,8.22209928 89.8776002,8.08478296 C89.4034184,8.0167195 89.1569748,8.14930245 89.1569748,8.47306506 C89.1569748,8.74361972 88.939463,9.08697121 88.6733965,9.23589036 C88.4073277,9.38478524 88.1338165,9.98558358 88.0656074,10.5714051 C87.9973934,11.1572508 87.7779786,11.8001155 87.5782352,11.9998638 C87.3097778,12.2683309 87.2150788,11.916605 87.2150788,10.6501247 C87.2150788,9.24610959 87.3247449,8.90770994 87.8228704,8.77743299 C88.1571872,8.69002339 88.5941138,8.25996625 88.7938184,7.82165605 C89.7738035,5.67081204 88.8574155,4.80958117 85.3936022,4.62578071 C67.8646556,3.68325721 33.6936602,4.44795158 15.7717176,4.0676798 C15.926159,3.91322625 38.7038951,3.08469204 41.6596963,2.99441815 C48.3323495,2.76767752 56.3016504,2.34565497 64.467493,2.33779029 L64.4675027,2.33779029 Z M57.3674454,7.13611822 C65.1903711,7.13854559 72.622041,7.25603029 79.2853634,7.57751118 C79.9973936,7.66188656 81.3081734,7.76361763 82.1982074,7.80315949 C83.6160925,7.86614974 83.8296477,7.96737107 83.9229679,8.62145019 C83.9815501,9.03199128 83.9246671,9.61196279 83.7963854,9.9105293 C83.7560498,33.6353281 82.2751381,87.7747575 90.3455413,93.4997582 C91.0737184,93.8894482 91.3536524,94.4169399 90.8561435,94.4626473 C90.7226381,94.4747842 90.2491432,94.5341334 89.8041262,94.593968 C85.0737452,94.9774197 79.8194455,95.5362245 75.4589375,95.6976689 C57.6699249,96.3562144 40.9362114,96.0841547 23.6179945,95.5767859 C19.4535815,95.4546163 18.7936233,95.3211353 14.2365881,93.6751842 C12.6326305,93.0958438 11.2588265,91.7553773 10.9833443,90.5011067 C10.8571502,89.9265239 10.481522,89.4357825 10.0389444,89.2675172 C9.26153065,88.9719606 8.89163344,88.329363 8.89163344,87.273457 C8.89163344,86.9209544 8.68285778,85.9498365 8.4274936,85.1153795 C5.73000101,76.3005067 5.5266578,75.1288395 4.96138158,65.1502612 C4.33799898,54.0264255 4.77894288,38.0122403 3.87143419,24.6586954 C3.77023228,20.0498237 3.54202795,15.1140581 3.36462604,13.6900172 C3.18722656,12.2659521 2.98178367,10.5909211 2.90807172,9.96788806 C2.75626886,8.68482882 3.43108015,7.48951901 4.08051085,7.89088464 C21.0541917,7.6914762 40.157011,7.13208878 57.3674454,7.13611822 Z M47.8476037,12.8807321 C47.2599666,12.8807321 47.0368767,13.143155 46.7647685,14.1536934 C46.5314886,15.0199975 45.9342609,15.8563236 44.8949363,16.7711751 C43.6594656,17.8586854 41.6706947,19.0302312 41.060449,19.0302312 C40.995915,19.0302312 41.03276,18.1751173 41.1419941,17.1300617 C41.3155462,15.469595 41.2534152,15.143138 40.6513061,14.5410289 C39.7046925,13.5944274 38.7313293,13.6480237 38.4771011,14.6609652 C38.2437483,15.5906965 38.0572559,15.6435646 37.2055767,15.0207985 C36.2676337,14.3349694 35.3658584,14.9948257 35.1508469,16.5241659 C35.1319134,16.6588606 34.7591616,17.4600627 34.3226015,18.304399 C33.24524,20.3880534 31.8313237,21.9430752 31.0143608,21.9430752 C30.1639535,21.9430752 28.9011167,20.0865498 28.1370753,17.7131888 C27.8258889,16.7465615 27.4096435,15.4623614 27.2125872,14.8596212 C27.0041999,14.2221938 26.5482888,13.6505967 26.1226422,13.4932789 C25.4736412,13.2533819 25.3070678,13.3957472 24.6524716,14.7510449 C24.2464964,15.5915461 23.6294735,16.6276447 23.2809129,17.0537209 C22.2651993,18.2953449 19.7601195,20.6437526 19.4497438,20.6469082 C19.292761,20.6469082 19.2581273,19.5243467 19.3724685,18.1403574 C19.616157,15.1907387 19.2091454,14.0138284 17.9459129,14.0138284 C17.2679193,14.0138284 17.1040306,14.2211015 16.8569146,15.3925017 C16.6070775,16.5768398 16.3082222,16.9479119 14.7377089,18.0199355 C11.9804569,19.9020212 11.6186137,19.9479227 11.1445362,18.4764996 C10.7202708,17.1596271 10.262947,16.4411984 9.84930616,16.4411984 C9.34667065,16.4411984 8.93721702,19.3847729 9.29224416,20.4454122 C10.1621359,23.0441788 11.7813009,23.2765995 14.9738071,21.2603774 C16.2593859,20.4484221 17.0035399,20.1289802 16.8839385,20.4406546 C16.7761778,20.7214527 16.8270167,21.0375934 16.9972481,21.1427956 C17.167482,21.2480221 17.3068325,21.5580458 17.3068325,21.8321444 C17.3068325,22.619389 18.2802491,24.4640203 18.8011821,24.6639142 C19.4988738,24.9316774 20.3524488,24.3167275 22.9917136,21.6462807 C25.5311868,19.0768124 26.0396747,18.9686003 26.5227796,20.8934319 C26.7805809,21.9205978 28.6905861,24.5981811 29.7722319,25.4490228 C30.1929922,25.7799947 30.9778847,26.0638028 31.516904,26.0790952 C32.9118626,26.1187342 35.4344365,23.7678992 36.6499372,21.2954529 C37.6118699,19.3387742 38.0205468,19.1287096 38.0205468,20.5909573 C38.0205468,21.0340009 38.3918689,21.8834833 38.8459497,22.4787958 C39.8217014,23.7580926 41.2568403,23.9266734 42.5514805,22.9140232 C42.9964975,22.5659384 43.5092551,22.2778824 43.6912059,22.2739986 C43.8731567,22.2701148 44.5791889,21.8077979 45.2599885,21.2466385 C46.5919252,20.1487148 46.854069,20.2379934 47.300023,21.9430752 C47.4164179,22.388085 47.8515652,23.2685649 48.2671795,23.8996568 C48.8642664,24.8063523 49.2588936,25.0630224 50.1469688,25.1228328 C51.1247086,25.1886631 51.5118231,24.9593009 53.1252377,23.3587174 C54.7660452,21.7309959 55.0193558,21.5837274 55.3198253,22.0819936 C56.2312955,23.5933713 57.5992132,24.5325935 58.8902415,24.5325935 C59.6060996,24.5325935 62.2367618,22.6087329 62.5711199,21.8406645 C62.6344378,21.6951679 63.0024781,21.2085288 63.3889348,20.7592469 C64.0915808,19.9423398 64.0913162,19.9424126 64.8775947,20.5791117 C65.5114975,21.0924034 65.8392168,21.1546654 66.5682215,20.9005441 C67.0655508,20.727157 67.4723222,20.4037828 67.4723222,20.1817998 C67.4723222,19.9597683 67.7613977,19.5163606 68.1147208,19.1966274 C68.7393122,18.6313658 68.797404,18.6524839 70.2111723,19.955666 C72.1503521,21.7431327 72.7456694,21.7124265 73.7384443,19.77456 C74.4925918,18.3024814 74.3977253,17.0775091 73.444031,15.9685166 C72.7310542,15.1394969 72.5347795,15.0634232 71.9880824,15.4048328 C71.489486,15.7161187 71.2197081,15.7137399 70.7089725,15.3948805 C70.3529574,15.172582 70.0618308,14.8835793 70.0618308,14.7525013 C70.0618308,14.4442253 68.8104244,13.6571021 67.8786202,13.3790468 C67.2847302,13.2018246 67.030985,13.3671527 66.4885722,14.2864463 C65.8249802,15.4111439 65.8247181,15.4113624 65.0449522,14.631594 C63.6514088,13.2380652 62.28779,13.7473274 62.0107397,15.7646904 C61.9364452,16.3056783 59.3954645,19.3235789 58.7015498,19.6949422 C57.8749575,20.1373304 57.4778034,19.814563 57.2508176,18.5168182 C57.1041268,17.6781376 56.6998677,16.2432949 56.209704,14.8226523 C56.1175756,14.5556416 56.0601562,14.2433362 56.0821724,14.1285702 C56.1041887,14.0138041 55.6073619,13.8601516 54.9784764,13.7867479 C53.6889361,13.6361781 53.4295911,13.9250837 53.0531739,15.931572 C52.6336419,18.1678595 51.0081997,20.5341326 50.1246855,20.1951018 C49.6664005,20.0192388 49.6267543,19.622558 49.826954,17.219219 C50.0437934,14.6160589 50.0128663,14.3978383 49.3229883,13.6634861 C48.9187414,13.2331862 48.2547319,12.8807563 47.8476037,12.8807563 L47.8476037,12.8807321 Z M87.322235,13.3278051 C87.5853716,13.3908196 87.6084802,18.5745896 87.3345661,19.5967794 C87.2272326,19.9972954 87.0471727,20.3254516 86.9344287,20.3254516 C86.6501497,20.3254516 86.9965159,13.6362267 87.2961626,13.3382428 C87.3051439,13.3292615 87.3137611,13.3258632 87.3222399,13.3278051 L87.322235,13.3278051 Z M46.9117385,27.8597896 C44.8069805,27.8644016 42.7207556,27.8944039 40.6688463,27.9588748 C39.9307656,28.0768693 39.4104443,28.3092414 39.5130007,28.4751764 C39.7927696,28.9278567 39.9345887,30.1669805 40.1345409,33.9182624 C40.2341699,35.7873373 40.5183057,39.0816667 40.7660358,41.2392346 C41.2122956,45.1258909 40.9736317,49.3683996 40.2578052,50.2783478 C40.1108255,50.4651825 39.8972048,51.2035156 39.7827616,51.9192014 C39.5944535,53.0968399 39.6622499,53.2801549 40.4967506,53.8454408 C41.003901,54.1889622 41.7799288,54.5436981 42.2215087,54.6338749 C42.6630982,54.7239789 43.536949,54.751481 44.1634047,54.6950203 C55.766743,53.6989976 65.1965487,55.259578 72.463126,53.3780022 C72.4308031,52.5123292 73.0205788,52.494221 73.7834842,53.3372224 C74.1056738,53.6932447 74.6282429,53.9843592 74.9445438,53.9843592 C75.6966838,53.9843592 76.8584668,52.3335049 76.8584668,51.2644669 C76.8584668,50.802417 76.9845517,50.4243784 77.1386581,50.4243784 C77.295641,50.4243784 77.2929272,49.8191865 77.1329781,49.0485451 C76.458628,45.8002142 76.2985915,43.9309209 76.4479111,41.0505551 C76.5352309,39.3661545 76.6270777,36.746731 76.6517714,35.2296005 C76.7300031,30.7770757 77.0749275,27.7585925 74.0105841,28.5045476 C65.4989262,28.2990465 56.0323677,27.8402007 46.9117482,27.8597896 L46.9117385,27.8597896 Z M55.2837935,31.1950445 C59.560232,31.3850348 63.5584065,31.7843129 70.9246856,31.8066447 C71.6889284,31.7443341 72.3947348,31.8236363 72.4929948,31.9825319 C72.5912571,32.1415004 72.8985403,32.1846347 73.1756926,32.0782916 C73.6230302,31.906628 73.6627638,32.4985422 73.5322125,37.3516559 C73.4513301,40.3583905 73.516823,44.1692886 73.6777601,45.8204342 C73.9226477,48.3328593 73.8892495,48.9385366 73.4724774,49.5335579 C73.1985802,49.9246314 72.9746748,50.5084867 72.9746748,50.831157 C72.9746748,51.2928428 72.8519033,51.352459 72.3995968,51.1104017 C72.0834853,50.941214 71.6104637,50.9182511 71.3480529,51.0591842 C66.8931274,51.1313499 63.7352744,50.0808084 44.5265635,51.2132736 C43.1032969,51.4683659 43.1032605,51.468196 43.3422715,50.3798119 C43.8461425,48.0853889 44.0364314,45.124483 43.8035665,43.2015205 C43.6702577,42.1006839 43.4623438,39.0633886 43.3417982,36.4518298 C43.1226212,31.7035543 43.1228615,31.7036999 44.6981858,31.435427 C45.5646161,31.2878671 50.3281331,31.1797521 55.2837935,31.1950445 Z M12.1993984,34.6976666 C10.759951,34.7356064 10.5101965,35.0699038 10.5101965,36.0441045 C10.5101965,37.4754517 11.7589303,38.7151824 12.9375665,38.4539246 C19.0656368,37.5528848 27.0899953,39.3189907 33.5512489,38.9251742 C35.1962508,39.1030276 35.4318586,39.0524169 35.753422,38.45157 C36.1056431,37.7934129 36.0059729,36.003179 35.5941259,35.5913514 C35.4800104,35.4772165 33.9765168,35.3620378 32.2531739,35.3348512 C28.6157381,35.2776624 17.1421403,34.9056922 14.0701822,34.7455586 C13.2912343,34.7049487 12.6792142,34.68502 12.1993984,34.6976666 Z M99.3054762,36.5907482 C100.796287,36.6079825 100.824546,36.7924869 100.944427,37.5801685 C101.952921,44.2066944 102.20606,47.2317072 102.154793,52.0405699 C102.123478,54.9776876 102.036767,58.1088492 101.96231,58.9988687 C101.672511,62.4631626 101.101596,67.7610433 100.96813,68.2228747 C100.890969,68.4898854 100.607047,70.7476551 100.337584,73.239763 C100.068122,75.731871 99.6211605,79.299935 99.3443529,81.1690099 C99.0675454,83.0380848 98.8268886,84.7857912 98.8095718,85.0528019 C98.7922646,85.3198126 98.634755,85.720183 98.4592173,85.9426757 C97.6679942,86.9456164 96.8552428,85.9900822 96.4196561,83.5442157 C96.2979526,82.8608625 95.9395029,81.8646941 95.622702,81.3306727 C95.1579674,80.5472876 95.0397302,79.5662417 95.0111188,76.2507456 C94.9916028,73.9905971 94.8892843,71.9157055 94.7835529,71.6401505 C93.0168111,65.5196098 95.8636888,37.5008178 97.4806838,36.6092205 C97.8940649,36.6019384 98.2557236,36.5956272 98.5725245,36.5922289 C98.8497278,36.5890733 99.0925036,36.5883451 99.3054762,36.5898015 L99.3054762,36.5907482 Z M24.1034685,43.3034457 C16.7431316,43.3189809 14.7618685,43.4537485 14.2427512,43.9728901 C13.7466259,44.468996 14.488469,45.380789 15.5612112,45.5933295 C16.5630839,45.7918155 20.3087634,45.7367143 27.3401188,45.4203066 C31.5533049,45.2306804 33.3013463,44.8440732 33.0709889,44.1530252 C32.8454473,43.4763959 30.8700998,43.2891243 24.1034685,43.3034457 Z M12.6464714,46.7790512 C12.0824866,46.7766238 11.5333062,46.820802 10.7453479,46.9909849 C9.62989375,47.019555 9.36018625,47.1475745 9.28323619,47.6850428 C9.1522723,48.5997729 10.4460532,49.7059254 11.8049508,49.841227 C12.4279766,49.9034162 13.0618381,49.8961098 13.2139638,49.8256918 C13.499658,49.6927691 31.3138982,49.3745166 35.1883012,49.4331376 C35.7605779,49.4404197 38.574026,49.0749063 37.9143493,47.5116315 C37.5194891,47.006253 35.8121401,46.9392091 22.6470465,46.9123624 C19.7989332,46.9065367 17.1773736,46.8939144 16.8213585,46.8834524 C16.4653434,46.8735002 15.4822586,46.8564358 14.6367255,46.8459981 C13.7893015,46.8302202 13.2104563,46.7815028 12.6464714,46.7791483 L12.6464714,46.7790512 Z M20.8682406,51.3573866 C17.4562153,51.3539883 13.9529693,51.4077788 12.3923573,51.520967 C10.1894292,51.6807123 9.86305478,51.84973 9.86305478,52.830873 C9.86305478,54.3118842 10.3213762,54.3900698 18.1246474,54.2342084 C21.6675274,54.16748 25.5392408,54.7511897 29.4318296,53.6889968 C31.345323,53.7448506 32.0273266,53.6427312 32.4285902,53.2414626 C32.8459814,52.8240521 32.8699953,52.6276778 32.5499587,52.2420659 C32.3308595,51.9780651 31.9061474,51.7598931 31.606508,51.7598931 C31.3068686,51.7574657 30.0425923,51.658963 28.7965408,51.5380315 C27.6011581,51.422076 24.2802635,51.360882 20.8682406,51.3573866 Z M73.3136546,59.2288135 C73.1840282,59.2312408 73.0379757,59.2925805 72.8793835,59.4193863 C72.6646705,59.5910742 70.9599577,59.8083723 69.0908828,59.9025057 C64.7086036,60.1232265 59.6571423,60.7775241 59.1334518,61.1920461 C58.640868,61.5819545 58.7538305,62.7759535 59.3515364,63.4961299 C59.8437221,64.089185 60.8638413,64.1489711 63.1400347,63.7180158 C64.7328337,63.4164879 67.5003632,63.1390153 71.3234005,62.8978318 C73.6303341,62.7523352 73.9330296,62.5006412 73.9404088,60.7193643 C73.9443897,59.7609172 73.7025338,59.2235946 73.3136546,59.2288135 Z M51.6778237,61.1896672 C51.4105363,61.1755885 51.137911,61.1920946 50.8856078,61.2432393 C50.4850917,61.3262553 48.2638904,61.4907582 45.9497985,61.6087769 C43.6357066,61.7267471 40.7956837,61.8761517 39.6386365,61.9411082 C38.4815893,62.0061131 37.3682663,62.0630835 37.1648042,62.0676955 C36.1692791,62.0892991 36.6832989,64.6578207 37.7707,65.095257 C38.2068232,65.2707316 39.9785654,65.1360854 43.6840962,64.6458295 C44.9301453,64.4809868 47.0833147,64.2759711 48.4686682,64.1902121 C50.5505895,64.0612945 51.1821547,63.8859656 52.1097232,63.1785086 C52.72695,62.7077202 53.2319085,62.1368755 53.2319085,61.9102806 C53.2319085,61.5381647 52.4796859,61.2315879 51.6778237,61.1896672 Z M27.4657546,61.8870506 C27.0686247,61.8819532 26.6203259,61.8831668 26.1160058,61.889478 C25.5396365,61.8967601 24.8903442,61.9108389 24.1603612,61.9297723 C21.032911,62.0113077 15.8769416,61.4172332 12.6483672,63.147244 C11.1247847,65.7315192 15.9555981,64.7590905 19.7342025,64.8800707 C26.9849096,64.5273495 29.5155812,64.1433153 29.950964,63.3297823 C30.5184539,62.2692886 30.2456661,61.9229272 27.4657546,61.8870992 L27.4657546,61.8870506 Z M70.7810362,64.2926228 C70.4197271,64.2926228 70.0158345,64.2955357 69.5635573,64.2996622 C66.9490152,64.3281595 64.1309891,64.6005347 61.3232988,65.2374281 C60.5250436,66.0942654 60.4895239,67.2028938 61.2422295,67.7742967 C68.627226,67.175683 76.0617724,67.8598615 74.0873788,64.8538793 C73.7519162,64.3950821 73.3101762,64.2890546 70.7810362,64.29255 L70.7810362,64.2926228 Z M48.7208889,65.4617413 C46.1805443,65.4505754 40.7443059,65.988335 38.5060208,66.472037 C37.5956017,66.6688239 36.7257925,67.3898984 36.7257925,67.9483634 C36.7257925,68.0842476 37.0974689,68.5670515 37.5516663,69.021261 C39.2035255,69.2600171 45.8825967,67.8941603 48.5345689,67.9659133 C48.7148132,67.8553952 49.2433997,67.8032795 49.7093771,67.8521425 C50.7425216,67.9605003 51.683176,67.0967449 51.5498163,66.161989 C51.4587705,65.5238092 51.2544369,65.47315 48.7208889,65.4617413 Z M30.1619364,65.9088143 C29.2564716,65.9003185 28.0417064,65.9299325 26.6925062,65.9998407 C24.1114011,66.1334674 19.9071113,66.3268317 17.3495008,66.4293638 C14.7918927,66.5318959 12.5706913,66.6950395 12.4136915,66.7920615 C11.9082475,67.104464 12.1097993,68.755027 12.7209043,69.308079 C17.4633056,69.965071 23.8113928,69.0442967 28.6206535,68.7225731 C30.3039497,68.612856 31.6994059,68.4921671 31.7217134,68.4547128 C32.5185413,67.2724623 33.4971549,66.4706049 31.7757588,66.0477327 C31.6635245,65.9641098 31.0674037,65.9173587 30.1619364,65.9088143 Z M73.333093,68.8178716 C73.2583081,68.8130169 73.1805716,68.8132596 73.1003106,68.8178716 C73.0146997,68.8234546 72.9257414,68.8343778 72.8343437,68.8520247 C72.6683552,68.8839447 71.5760387,68.9822289 70.4069737,69.0700997 C66.2863432,69.3798078 61.789082,70.0743269 60.9184232,70.5355272 C60.5794944,70.7150555 60.3523508,71.2097292 60.3523508,71.7677088 C60.3523508,72.4924486 60.5685979,72.7961854 61.3232988,73.1302644 C62.1041594,73.4758733 62.2942468,73.7586619 62.2942468,74.5743553 C62.2942468,75.2579755 62.5316703,75.7564117 63.0224578,76.1033071 C63.7500619,76.6175212 66.6307117,76.7455407 67.3106545,76.2939042 C67.4886608,76.1756913 68.6536406,75.9968912 69.8996922,75.8965923 C73.2806108,75.6244841 73.851987,75.2403043 73.4222211,73.5280132 C73.2770498,72.949668 73.0664415,72.7844612 72.6447054,72.9183307 C71.6521514,73.233379 65.8542325,73.3349645 65.8542325,73.0373204 C65.5321787,72.519708 69.457656,72.0450358 70.8469345,71.9891092 C73.3100645,71.8987625 73.7117335,71.7988762 74.1523303,71.1698718 C74.93924,70.0463636 74.4548486,68.8900859 73.333093,68.8174104 L73.333093,68.8178716 Z M26.5379507,69.2924468 C22.5697396,70.2837604 18.7441462,70.2603363 14.6125464,70.6815335 C13.9316085,70.7500582 13.2396502,70.8893892 13.0750551,70.9911203 C12.6087452,71.2792976 12.5665211,73.0271011 13.2509448,73.070988 C17.1939088,73.3238714 22.4171648,72.1643653 26.0904043,72.0327047 C26.8026627,72.0071688 27.0163125,71.3249079 27.0163125,70.5933472 C27.0163125,69.8205454 26.8129377,69.3207499 26.5379507,69.2924468 Z M52.0419292,69.4081109 C51.1745716,69.4134511 50.028234,69.4652998 48.5388362,69.545136 C38.6594209,70.0747153 37.4401626,70.2719391 37.1605393,71.3860534 C36.8268536,72.7155725 37.4004945,73.2408068 39.1891944,73.2440352 C43.3203184,73.2573857 47.6450251,72.2507068 51.3625496,72.144121 C53.4582195,72.1099679 53.5585232,72.0710086 54.0620496,71.0973177 C54.7371934,69.7917325 54.643997,69.3917747 52.0419292,69.4081109 Z M105.853688,69.6171803 C105.862062,69.6147529 105.86915,69.6171803 105.874539,69.6232487 C106.066575,69.8152537 105.392483,73.6384585 105.008366,74.535833 C104.855978,74.8918553 104.510731,76.1299597 104.241281,77.2870141 C103.971828,78.4440443 103.480548,80.1412371 103.149437,81.0584432 C102.818325,81.9756249 102.303424,83.0679414 102.004971,83.4858132 C101.48105,84.2193158 101.467838,84.1674672 101.62285,81.9800913 C101.852091,78.7453052 102.137729,76.963203 102.42739,76.963203 C102.565405,76.963203 102.671743,76.7812959 102.66349,76.5588031 C102.582076,74.366621 102.785364,73.4032221 103.330068,73.4032221 C103.724969,73.4032221 104.19868,72.7752615 104.813987,71.4347707 C105.279928,70.4196688 105.728207,69.6393665 105.853681,69.6170832 L105.853688,69.6171803 Z M52.0044749,73.0027061 C51.8838103,73.0002787 51.7536644,73.0051334 51.6138188,73.0107164 C48.0963315,72.9303462 44.5587892,73.583333 41.0879463,73.8797391 C37.7908763,74.1262628 37.4752648,74.2334555 37.2975522,75.1631139 C37.1125332,76.1309792 37.5497292,76.9280546 38.4524487,77.2695128 C38.8377622,77.4152521 39.2989625,77.446638 39.4769688,77.3387414 C39.6549775,77.2308205 39.9461042,77.1318566 40.1241105,77.1192343 C40.3021168,77.1063692 41.32177,76.9811412 42.3898128,76.8409363 C43.4578556,76.7007072 44.8925623,76.5246743 45.5781074,76.4498142 C46.2636526,76.3749541 46.9361093,76.2448956 47.0724571,76.1606173 C47.2088073,76.0763633 48.1040578,75.9827397 49.0622378,75.9529558 C51.7931893,75.8675852 53.1952309,75.0899044 53.2214781,73.6460077 C53.2292942,73.2162175 52.8491195,73.0117844 52.0044749,73.0026575 L52.0044749,73.0027061 Z M27.1784535,73.0165421 C27.0082002,73.0141147 26.8345777,73.0141147 26.6583701,73.0165421 C23.463138,73.0567879 19.377782,73.7588561 17.6306388,73.8779671 C15.9395726,73.9906942 14.1187296,74.1123054 13.5847082,74.147745 C12.6799327,74.2078225 12.6068227,74.3089224 12.5118276,75.6368637 C12.4098854,77.0619241 12.4100431,77.062094 15.2630064,76.834431 C16.832136,76.7092272 19.0626293,76.5411076 20.2196765,76.4608587 C25.5003811,76.0946172 30.0430851,75.6013756 30.8190352,75.3102125 C31.5549919,73.5763664 29.7322385,73.0462774 27.1784535,73.0160566 L27.1784535,73.0165421 Z M77.0390971,76.7377246 C76.8937219,76.7447639 76.7030034,76.7763683 76.4535912,76.8216387 C75.2753895,77.0355143 71.0902346,77.2646823 67.5813621,77.3075982 C65.7649247,77.3296873 65.1461007,77.4650132 64.723515,77.9319663 C64.1475146,78.5684956 64.3457822,79.2927742 65.3782398,80.3252075 C65.7444644,80.6916676 66.3828967,80.7948308 67.7738452,80.7139751 C68.8167429,80.6533879 69.7995802,80.5240819 69.9580049,80.4261861 C70.1164296,80.3282417 71.1875819,80.1539323 72.3384393,80.0388507 C73.4892991,79.9237448 74.7222234,79.712418 75.0782385,79.5694944 C75.4342536,79.4265709 76.1262118,79.1490254 76.6157298,78.9526997 C77.312817,78.6730667 77.5056085,78.3828503 77.5056085,77.6133983 C77.5056085,76.9144128 77.4752275,76.7164851 77.0390971,76.7377246 Z M24.4908039,77.8874241 C23.5570432,77.8748018 21.7710572,78.0871481 18.2777805,78.5758019 C16.942727,78.7625881 15.3632592,78.9076477 14.768051,78.898181 C12.6205155,78.8641978 11.9872875,79.5833547 12.6483672,81.3061077 C12.791667,81.6795343 13.2878845,81.8181372 14.4816966,81.8181372 C16.2030005,81.8181372 21.542848,80.9591152 22.6470465,80.5044202 C23.0030616,80.3578314 23.761054,80.1463589 24.3315078,80.0346028 C25.4485956,79.8158239 26.0166535,78.8420116 25.4356771,78.1420067 C25.3044146,77.9838392 25.0510627,77.8949732 24.4908039,77.8874241 Z M48.6843813,78.13822 C48.0111842,78.1355499 47.12199,78.146473 45.9497985,78.1624937 C40.3790838,78.2383732 36.8645992,78.458026 36.3754356,78.7603306 C35.8109119,79.1092408 36.1780904,80.9752329 36.8874602,81.3626412 C37.2434728,81.5570978 37.8261994,81.6622757 38.1822145,81.5963726 C39.6556839,81.3237304 45.4622709,80.8681374 47.5944363,80.8581851 C50.0224714,80.8465338 50.4477248,80.5580894 50.7106672,78.7437274 C50.7786214,78.2748566 50.703992,78.1462546 48.6843813,78.1383171 L48.6843813,78.13822 Z M80.2439853,84.3958099 C53.5265499,85.1473722 43.7595388,84.4302543 16.2581334,86.307825 C14.9596604,87.0821317 14.959454,87.0820346 15.1226728,89.1154182 C15.4175036,92.7883931 17.6533226,95.4820699 18.3337241,92.9840392 C18.4862382,92.4240934 18.4621052,91.6159734 18.276358,91.0748641 C18.0992086,90.558781 17.9539742,89.751025 17.9539742,89.2799211 C17.9539742,88.4233993 17.9539742,88.4236178 24.0223992,88.3909939 C38.7276591,88.2923941 54.305408,87.1178383 69.4545149,87.5063389 C74.8346835,87.4035155 74.8343752,87.4034912 75.1839626,89.5131913 C75.6111287,92.0910583 76.5160401,93.1758985 79.2825186,94.4267222 C81.0372813,95.1280865 83.3774335,94.9391158 83.7627227,93.3519313 C83.9443725,92.5884021 83.9437438,92.021417 83.7607808,91.8955093 C83.2959952,90.2888331 82.6421054,88.4731118 82.0293839,86.6998938 C81.5368316,85.4686103 81.0549744,84.3725072 80.2439391,84.3958099 L80.2439853,84.3958099 Z M78.7998894,88.223651 C79.0456145,88.2192818 79.2985683,88.6849484 79.7267467,89.8592858 C80.1071738,90.9026665 80.4184525,91.8504331 80.4184525,91.9656846 C80.4184525,92.2619937 80.0259273,92.2094654 79.3664352,91.8253584 C77.9721441,91.0203454 77.6913023,89.1277007 78.6287404,88.2990209 C78.686757,88.2508861 78.7431837,88.2246948 78.7998894,88.223651 Z M94.8726835,88.8105891 C94.9774051,88.8188421 95.238425,88.9776407 95.7023488,89.2605021 C96.994302,90.048208 97.8173382,90.0803949 98.598126,89.3738118 C99.4174969,88.6322988 99.3889753,89.4837716 98.5611474,90.4760805 C97.9272543,91.2359444 97.5231045,91.3713916 97.1132577,90.9615545 C96.9797523,90.8280491 96.7369085,90.7003695 96.5737383,90.6780377 C96.4105632,90.6557058 96.1355931,90.6197808 95.9621551,90.597449 C95.7887171,90.5751172 95.4206161,90.1194998 95.1443402,89.58526 C94.8617822,89.0388347 94.7380348,88.8001029 94.8726835,88.8105891 Z"/>
    <path fill="#ABBFB7" d="M11.4488365,30.0023882 C10.9355472,30.0103985 10.5567416,30.0383132 10.4366426,30.084409 C10.1945319,30.1772802 10,30.7189963 10,31.2999873 C10,32.9056683 10.9102419,33.5096465 13.6529078,33.7231094 C16.7797682,33.9665018 33.7700183,33.8923214 34.1888367,33.6334909 C35.3847509,32.8943811 34.2073576,29.5255313 32.9822639,30.1811397 C32.489452,30.444922 19.2958659,30.3506672 13.2688906,30.040328 C12.6102092,30.0063933 11.9621257,29.9943778 11.4488365,30.0023882 Z"/>
  </g>
</svg>
