<?xml version="1.0" encoding="UTF-8"?>
<svg xmlns="http://www.w3.org/2000/svg" width="111" height="100" viewBox="0 0 111 100">
  <g fill="none" fill-rule="evenodd">
    <path fill="#FFF" fill-rule="nonzero" d="M13.7141264,1.47386294 C12.4911587,1.47386294 11.5063448,2.45867679 11.5063448,3.68165902 L11.5063448,55.8732944 C11.5063448,57.0962622 12.4911587,58.080411 13.7141264,58.080411 L42.6173684,58.080411 L42.6173684,68.7922333 L36.2767518,68.7922333 C35.2957549,68.7922333 34.5060243,69.581964 34.5060243,70.5629753 C34.5060243,71.5439723 35.2957549,72.3337029 36.2767518,72.3337029 L66.0640347,72.3337029 C67.0450316,72.3337029 67.8347622,71.5439723 67.8347622,70.5629753 C67.8347622,69.581964 67.0450316,68.7922333 66.0640347,68.7922333 L61.6835468,68.7922333 L61.6835468,58.080411 L91.8085421,58.080411 C93.0315243,58.080411 94.0163237,57.0962622 94.0163237,55.8732944 L94.0163237,3.68165902 C94.0163237,2.45867679 93.0315243,1.47386294 91.8085421,1.47386294 L13.7141264,1.47386294 Z M12.2824415,78.2750011 L1.00179383,95.9088439 C7.36236262,98.8288029 80.8941038,97.8173138 80.8941038,97.8173138 L86.4354185,79.9795105 L12.2824415,78.2750011 Z M101.756846,80.8642164 C98.9345953,80.8029285 97.4021662,81.595493 93.6958309,86.2817119 C89.1342119,92.0493683 89.021829,97.152053 97.1492361,97.9471042 C97.1492361,97.9471042 103.68644,97.25352 107.091569,92.0640722 C110.496728,86.8746388 108.392466,81.3666501 103.959336,81.0052697 C103.128125,80.9375046 102.408126,80.8783565 101.756846,80.8642164 Z"/>
    <path fill="#030303" fill-rule="nonzero" d="M70.2920329,0.216499341 C61.8451161,0.271035315 55.167698,0.562163727 47.0057938,0.141505148 C43.7247726,-0.0275968535 14.1121436,-0.0956945302 12.9141884,0.228918854 C8.91283539,0.0151846806 9.56718033,4.81504437 10.0402206,13.2260038 C10.0625729,18.5120896 10.0835082,25.5835345 10.0872384,28.9401138 C10.0908529,32.2966932 10.2235928,36.3398445 10.3819235,37.9249011 C10.5402542,39.5099576 10.6838087,44.2011213 10.7011006,48.3493252 C10.5870551,51.2764699 10.5260419,53.0244548 10.576573,56.7864828 C10.2151348,60.5521397 17.5762045,59.2954123 20.8652789,59.223382 C24.465217,59.1341321 40.9791205,59.6207631 41.1803773,59.8220199 C41.4277411,60.0693981 40.5473436,65.1284048 40.1797897,65.5712711 C39.0878413,66.8869876 37.1539829,67.7855588 34.9755223,67.9889844 C32.6145282,68.209456 31.7148292,68.8190242 31.7148292,70.1994118 C31.7148292,71.2689502 33.1048459,73.5250074 33.7636873,73.5250074 C34.1068071,73.5250074 34.4579077,73.6394433 34.544425,73.7792966 C34.6309568,73.9191498 36.0517548,74.090782 37.7011499,74.1607303 C39.3505595,74.2306642 42.7593326,74.3969324 45.2767779,74.5302361 C51.2657011,74.8473457 68.6384883,74.8327864 69.5538454,74.5096911 C70.3772635,74.2190543 71.8498504,71.9128419 71.5669487,71.3569422 C70.3408146,68.9473688 68.6808361,67.673176 66.266,67.2870289 C63.143642,66.7877327 62.7030023,66.1170212 62.598716,61.7099448 L62.5318328,58.8796839 L67.7201962,59.1260211 C70.5741395,59.2614791 73.3669539,59.4137374 73.9263814,59.4643986 C74.4858088,59.5150743 78.885526,59.5804249 83.7031692,59.610093 C93.7049106,59.6716556 93.7541115,59.6605373 94.3951116,57.1149131 C94.6078916,56.269779 94.8589277,53.5513227 94.9527174,51.0742733 C95.0464927,48.5972239 95.2109681,44.4346197 95.3182328,41.8239485 C95.425483,39.2132773 95.5674037,32.9578189 95.6334484,27.9229572 C95.6995364,22.888081 95.8346474,16.5089191 95.9340902,13.7471463 C96.9847318,-0.678977879 95.0131956,0.0568818568 81.2333344,0.145857038 L70.2920329,0.216499341 Z M45.0231538,2.49962215 C77.0086615,2.48178085 90.8681725,2.82850067 91.8833773,3.67106123 C93.5615296,3.99830599 93.7017876,9.51693593 93.602446,11.5142075 C93.3124309,17.2597719 93.148288,21.8869729 92.9303176,30.4658343 C92.5434042,45.6927062 92.209769,53.4338361 91.8535647,55.4382211 C91.683306,56.3963742 91.5239054,56.5207862 90.3212368,56.6354824 C89.5830349,56.7058789 88.949018,56.7413446 88.9120631,56.7142935 C88.8751516,56.6872279 84.2748716,56.562628 78.6896187,56.4374931 C73.1043369,56.3123437 68.4638344,56.1388175 68.3771147,56.0520833 C68.2903805,55.9653492 68.9694199,55.8894297 69.8862807,55.8832271 C70.803098,55.8770101 75.5961913,55.8388697 80.5378272,55.7984593 L89.5226144,55.7249542 L89.6398263,54.8773334 C89.7043094,54.4111462 89.8931034,53.8645141 90.0590101,53.6621874 C90.4661649,53.1656382 90.7035236,37.9035754 90.425205,30.1267918 C90.1216571,21.6464768 90.8600326,10.6633769 90.939075,8.40185454 C90.8011158,6.23867618 89.9102218,5.83614806 88.3505537,5.81853809 C86.5026343,6.04761231 87.0685245,5.78281211 82.3204827,5.71594337 C76.9085247,5.63972024 76.166607,5.61522821 67.9930351,5.24048858 C65.4755898,5.12505506 56.8552914,4.96640627 48.8367827,4.88818792 C40.8182885,4.80996957 34.0288345,4.6659813 33.7491135,4.56834571 C33.469407,4.47069567 30.0365323,4.30743474 26.1205255,4.20546172 C22.2045187,4.10347425 18.6100024,3.96785722 18.13235,3.9041548 C15.7832693,3.90617894 14.7995398,3.75552548 14.318721,5.74838736 L14.5485037,17.3442506 C14.8799268,34.0871705 15.0805331,40.7412099 15.3583745,44.1973043 C15.4932831,45.8756012 15.6008224,48.7363109 15.5974392,50.554461 C15.5939693,52.3726112 15.7002798,53.8601912 15.8331787,53.8601912 C15.9661209,53.8601912 16.5041793,54.050908 17.0291242,54.2840016 C17.7443522,54.6015884 21.6800365,54.7096193 32.7319714,54.7144339 C45.2227913,54.719928 49.6651888,54.8450339 56.4653852,55.3826008 C56.9315724,55.4194545 58.3809975,55.490892 59.6863475,55.5415243 C63.65196,55.695344 60.389344,56.0980312 53.8622612,56.2606849 C44.9029925,56.4839469 14.4325063,56.3559349 14.1703953,56.0938094 C14.0405326,55.9639612 13.8193525,52.242199 13.6783715,47.8235273 C13.5373616,43.4048556 13.2796314,38.9505302 13.1055559,37.9249011 C12.9314947,36.8992864 12.7674675,32.7798397 12.7406911,28.7705926 C12.7140737,24.7613455 12.6621113,17.4817616 12.62546,12.5936063 C12.5649095,4.52343884 12.6131706,3.65126808 13.1525736,3.11148917 C13.709977,2.55378221 15.679301,2.51598872 45.0231538,2.49962215 Z M17.0251482,6.62913177 L21.4036409,6.84898173 C32.6385575,7.41287675 43.4817463,7.79115863 51.5491667,7.90121373 C66.5681744,8.106114 88.2985912,8.87699126 88.5379162,9.21304101 C88.5624372,9.24748022 88.4213839,11.0298755 88.2246958,13.1743595 C87.8540912,17.2151542 87.7160019,29.8005735 87.977043,35.721081 C88.1290266,39.1684572 87.692146,52.1945307 87.41416,52.503992 C87.0991902,52.8546444 56.8426406,52.3594687 49.1758398,51.8782162 C46.3786879,51.7025647 40.275806,51.6245199 35.6138911,51.7040539 C20.9923801,51.9534996 19.1829771,51.9515188 18.9190589,51.6874994 C18.7776441,51.5460702 18.6495453,50.7180834 18.6349715,49.8479079 C18.620499,48.9777323 18.431893,45.8247521 18.2151226,42.8411196 C17.7845024,36.9129204 17.6231066,32.5198685 17.2635479,16.9370091 L17.0251482,6.62913177 Z M66.9480756,55.9362016 C67.0658657,55.9411174 67.1672171,55.9725782 67.2235458,56.028907 C67.3362179,56.1415646 67.1359731,56.2217492 66.7785543,56.2070453 C66.3835588,56.1907655 66.3028103,56.109988 66.5732636,56.0017547 C66.6956515,55.9527851 66.8302854,55.9313437 66.9480756,55.9362016 Z M55.1078559,59.2849736 L59.7485896,59.2849736 L59.7360111,61.23449 C59.7293604,62.3067321 59.8364226,63.8890705 59.9737457,64.7508025 L60.2233938,66.3175695 L52.4769289,66.276523 C48.216024,66.2539394 44.467818,66.1853791 44.1477155,66.1242068 C43.5430197,66.0086866 43.5422968,65.8817878 44.1185969,61.1146323 L44.286788,59.7240084 L47.3766298,59.5041584 C49.0762524,59.3835055 52.5554508,59.2849736 55.1078703,59.2849736 L55.1078559,59.2849736 Z M44.6609204,69.540527 C46.2799391,69.5256786 48.6557528,69.5586575 52.3014364,69.618008 C62.0675975,69.776946 65.2806367,70.0857567 65.2806367,70.866263 C65.2806367,71.1356898 45.9387567,71.1618301 41.2128213,70.898707 L39.0129772,70.7762035 L40.4943402,70.1126632 C41.366005,69.72241 41.9625753,69.5652649 44.6609204,69.540527 Z M10.9170903,78.0725587 C7.38056538,81.7448307 7.03344072,84.2855392 3.71815376,88.4431553 C3.48319509,88.7228618 2.65554085,90.0748537 1.87921287,91.4475641 C-2.69058944,97.9089059 2.10548222,97.7863735 5.35576554,98.675706 C9.37504657,98.5842295 21.3271431,98.3042194 23.9595592,98.4909458 C33.3049605,99.1537632 44.0368652,98.7924696 60.8857052,99.032185 C72.5105425,99.1975713 74.7426282,99.3825483 78.7338171,99.3436415 C81.8342421,99.3413282 82.3995107,98.9292867 83.0891334,97.6973983 C84.6703875,93.6169739 85.2646879,89.6205656 86.4711879,85.9241196 C88.2033412,80.6362844 88.001882,79.22406 85.3467521,78.0478643 C84.2316997,77.5538886 82.0652827,77.5044564 65.1111154,77.588964 C20.5338847,77.8111272 15.0124065,77.3966423 13.8379601,77.3313639 C12.4873273,77.3109202 11.35426,77.2837534 10.9170903,78.0725587 Z M102.08399,79.3199607 C99.6878337,79.2614343 96.950148,80.0764955 95.5069544,81.4383478 C91.9925504,84.7547191 88.8156564,90.7236901 89.1133778,93.4507346 C89.3100947,95.2528363 90.6949644,97.3965396 92.1489148,98.1503996 C92.7557794,98.4650369 94.015008,98.9024669 94.9473824,99.1218542 C99.7147547,100.243601 104.929244,98.7280299 107.290209,95.534697 C108.708998,93.6156438 110.374094,89.0999581 110.374094,87.1710445 C110.374094,83.770339 108.112543,80.9787536 104.305666,79.6815145 C103.64334,79.4558235 102.882685,79.3394646 102.08399,79.3199607 Z M37.5402457,80.3417439 C38.2341335,80.1609164 38.3788736,80.0781148 38.8498464,80.2804994 C39.4553519,80.5406874 39.259112,81.1738657 38.4444122,81.195148 C37.9426147,81.2083049 36.9338149,81.2203485 36.8185838,81.0338534 C36.6935067,80.8314688 36.786776,80.5380994 37.5402457,80.3417439 Z M41.5426975,80.3154012 C41.5426975,80.4960263 41.3678556,81.0083782 41.0881346,81.0083782 C40.8084137,81.0083782 40.564997,81.5931218 39.9359971,80.9724787 C39.668927,80.7089509 40.0703418,80.5286004 40.3500483,80.4212635 C40.8329346,80.1874181 40.9702866,80.3133193 41.5426975,80.3154012 Z M83.5415854,80.4834478 C83.9370435,80.47752 84.2020605,80.490966 84.2415456,80.5251594 C84.3205013,80.5936041 84.1642381,81.3617343 83.893886,82.2323291 C83.3611771,83.9476677 83.3146365,83.9791141 81.5549838,83.8024071 C78.8344889,83.5292357 78.8241224,83.5200837 79.4577778,82.0363061 C80.010222,80.7426961 80.063905,80.7113798 82.0595717,80.5576034 C82.6200691,80.514417 83.1461417,80.4893611 83.5415854,80.4834478 Z M76.76724,80.6576101 C76.99883,80.6819431 76.9167947,81.1330215 76.4288481,82.0012163 C75.8823462,82.9736107 75.44428,83.3574155 74.8812814,83.3574155 C74.4494322,83.3574155 74.0959027,83.3000747 74.0959027,83.230271 C74.0959027,83.1604672 74.5310338,81.5214096 75.1503178,80.8453052 C75.9185493,80.0065905 76.5356501,80.6332482 76.76724,80.6576101 Z M47.2832593,80.6867287 C47.401035,80.6916445 47.5024008,80.7231053 47.5587296,80.7794341 C47.6714016,80.8921061 47.4711569,80.9722908 47.1137236,80.9575724 C46.7187426,80.9412926 46.6379796,80.8605152 46.9084474,80.7522818 C47.0308208,80.7033122 47.1654691,80.6818853 47.2832593,80.6867287 Z M44.5582823,80.6887529 C44.7426377,80.6910662 44.9143277,80.7151678 45.0291106,80.7615928 C45.2586474,80.8544717 44.9885845,80.9247815 44.429157,80.9178705 C43.8697151,80.9109306 43.6820633,80.8349677 44.0119684,80.7490143 C44.176892,80.7060448 44.373927,80.6864685 44.5582823,80.6887529 Z M51.3796454,80.6887529 C51.5332773,80.6887529 51.6869091,80.7119003 51.8034559,80.758947 C52.0365494,80.852997 51.845847,80.929784 51.3796454,80.929784 C50.9134583,80.929784 50.7227414,80.852997 50.955835,80.758947 C51.0723818,80.7119148 51.2260136,80.6887529 51.3796454,80.6887529 Z M12.9711388,81.0834158 C13.0991798,81.0718493 13.1696053,81.1949456 13.2658095,81.4456492 C13.3828912,81.7507441 13.844018,82.0005802 14.2902386,82.0005802 C15.1331895,82.0005802 15.3617866,82.6216136 14.7458424,83.2375723 C14.5479109,83.4353303 13.6659954,83.5236837 12.7559155,83.4362267 C11.0470975,83.0911551 11.0610207,85.3805238 11.9208732,85.7453451 C12.7049651,86.0434568 12.723457,86.1121184 12.2652218,86.9982267 C11.3946849,88.6816707 10.5698933,89.1917093 9.14955795,88.9252464 C8.64933642,88.8126033 7.14783325,89.8564496 7.33977906,91.2566882 C7.4581042,92.1199961 8.16507664,92.1982289 7.99202757,92.6534569 C7.79564313,93.1699727 7.55510363,93.9769807 8.10393331,93.9844845 L10.1865656,94.012967 C11.8940534,94.0362879 12.0097038,92.1720453 12.7916704,92.1720453 C13.3162249,92.1720453 13.7452547,92.2512468 13.7452547,92.3481884 C13.7452547,92.44513 13.3621872,93.1317021 12.8936579,93.8739089 C12.125918,95.0900669 11.9039572,95.2234718 10.6481261,95.2234718 C10.2920808,95.2234718 10.0377483,95.2179778 9.85281466,95.200281 L9.02439413,95.1936303 L9.04823555,95.2234285 L7.07354751,95.218079 C4.26232794,95.2107053 3.96770066,94.9472208 4.77304606,93.1612689 C5.1290769,92.3717551 5.84384226,91.1412113 6.36167377,90.4263592 C6.87950527,89.7115216 7.30333018,89.0525356 7.30333018,88.9622302 C7.30333018,88.5741313 11.6756781,82.111416 12.33144,81.5303158 C12.657557,81.2413128 12.8430834,81.0949389 12.9711244,81.083329 L12.9711388,81.0834158 Z M99.7278393,82.3396227 C100.242953,82.3396227 100.242577,82.397672 99.7207548,83.1024758 C99.4100212,83.52205 98.9763069,84.2849175 98.7572522,84.797732 C98.4382485,85.5444642 98.1376067,85.7301063 97.2467561,85.7301063 C96.6349469,85.7301063 96.1342338,85.5968315 96.1342338,85.4341055 C96.1342338,84.927826 99.1400739,82.3396227 99.7280128,82.3396227 L99.7278393,82.3396227 Z M105.202965,82.6879474 C105.755105,82.6862124 106.287655,82.9693889 106.847863,83.5295971 C107.558161,84.2399094 107.681677,84.6447219 107.595492,85.9843955 C107.523274,87.1072698 107.334596,87.6185807 106.96707,87.6882543 C106.67827,87.7429927 106.340398,87.685941 106.216145,87.5617603 C106.091878,87.4375073 105.039776,87.0758957 103.877894,86.7578463 C102.716012,86.4398113 101.718894,86.0400881 101.662146,85.8698294 C101.605383,85.6995852 102.151567,84.9120956 102.875976,84.1196324 C103.751053,83.1623034 104.493072,82.6900005 105.202965,82.6879474 Z M19.7375467,82.7131045 C20.0791339,82.7230806 20.1918203,82.8388322 20.1136743,83.0766536 C20.032333,83.3240896 19.5411044,83.5765715 19.022362,83.6375413 C18.3576217,83.7156585 18.1228221,83.615565 18.2270506,83.2984843 C18.3083485,83.0510483 18.7996204,82.7985664 19.3183628,82.7375965 C19.4845587,82.7180781 19.6236746,82.7097647 19.7375467,82.7130901 L19.7375467,82.7131045 Z M29.4692975,82.7177311 C29.5922926,82.7100683 29.7450135,82.7191769 29.9348195,82.7409219 C30.4899096,82.8047834 30.8672083,83.0539977 30.8672083,83.3567649 C30.8672083,83.6595321 30.4899096,83.9087465 29.9348195,83.9726224 C29.1755955,84.0599782 29.0024452,83.9456291 29.0024452,83.3567649 C29.0024452,82.9151132 29.1002977,82.7406472 29.4692975,82.7177456 L29.4692975,82.7177311 Z M70.7405234,82.757462 C70.9408404,82.7500884 71.0444761,82.8826692 71.0444761,83.1508092 C71.0444761,83.4504824 70.8156188,83.6958075 70.5358978,83.6958075 C70.2561768,83.6958075 70.0273195,83.8483839 70.0273195,84.0348501 C70.0273195,84.2213307 69.7984621,84.3739071 69.5187556,84.3739071 C69.2362153,84.3739071 69.0101773,84.0725279 69.0101773,83.6958075 C69.0101773,83.3228462 69.226485,83.0177079 69.4909382,83.0177079 C69.7554348,83.0177079 70.2131495,82.9249591 70.5080804,82.8117666 C70.5960724,82.7779925 70.6737414,82.7599343 70.7405234,82.757462 Z M24.9848413,82.8501674 C25.3548676,82.8601435 25.7776805,82.9077106 26.247005,82.9945315 C26.3164473,83.0073993 26.1831436,83.2465652 25.9510042,83.5262862 C25.5034536,84.0655591 23.2386203,84.2419769 23.2386203,83.7375191 C23.2386203,83.12931 23.8747914,82.8202246 24.9848413,82.8501674 Z M36.3284106,83.0177079 C38.5061772,83.0177079 39.0503514,83.3753147 37.8501552,84.0176449 C37.2724526,84.3268315 35.0012144,84.3756565 34.1239255,84.0977573 C33.9387027,84.0391007 33.8715448,83.7721029 33.9742696,83.5044255 C34.109583,83.1517924 34.7578266,83.0177079 36.3284106,83.0177079 Z M65.7587518,83.0389035 C66.2701061,83.0374577 66.2337873,83.1819664 65.9680184,83.6785879 C65.6967699,84.1853589 65.3068059,84.3606201 64.57738,84.3050287 C63.0425798,84.1880915 63.4203557,83.2153357 65.0528493,83.0806151 C65.3565851,83.0555592 65.5883052,83.0393083 65.7587518,83.0389035 Z M44.9814277,83.1071023 C46.3534152,83.0924997 46.6048127,83.3552468 45.8681289,83.9666512 C45.372158,84.378259 41.5472373,84.4169055 41.5472373,84.010358 C41.5472373,83.4934518 42.3552141,83.2369651 44.3238586,83.1296281 C44.5659596,83.1164712 44.7854336,83.1092132 44.9814277,83.1071168 L44.9814277,83.1071023 Z M59.298292,83.1792338 C59.9416776,83.2078898 60.1949114,83.3331115 60.1949114,83.5891356 C60.1949114,83.8458971 60.0041945,84.1250253 59.7711009,84.208969 C59.0014237,84.4861598 56.0925685,84.5932076 55.9422331,84.3500078 C55.6215379,83.8310631 56.9318182,83.2371096 58.5202001,83.1812291 C58.8264372,83.1703855 59.0838204,83.1696626 59.298292,83.1792049 L59.298292,83.1792338 Z M50.7253872,83.188487 C50.8294567,83.1850171 50.9350587,83.188487 51.0406028,83.2010656 C51.50679,83.255457 52.0878179,83.3126677 52.3318996,83.3281957 C52.5761115,83.3437382 52.6822774,83.5082714 52.567639,83.69374 C52.0652488,84.506647 49.3453611,84.8107732 49.3453611,84.0539781 C49.3453611,83.5962634 49.9969011,83.2115332 50.7253872,83.1884726 L50.7253872,83.188487 Z M22.730042,86.0690766 C23.1742239,86.0690766 23.6319386,86.2216385 23.7471841,86.4081192 C23.8721311,86.6102868 23.4615064,86.7471617 22.730042,86.7471617 C21.9985775,86.7471617 21.5879528,86.6102868 21.7128998,86.4081192 C21.8281309,86.2216385 22.2858456,86.0690766 22.730042,86.0690766 Z M74.6468577,86.0690766 C75.5567641,86.0690766 75.6475465,86.3502 75.0163779,87.2133633 C74.5196263,87.8927063 71.9235723,88.363737 71.5960818,87.8338474 C70.9986873,86.8672218 72.3781785,86.0690766 74.6468577,86.0690766 Z M78.4849931,86.2604441 C78.5845516,86.2562512 78.6960381,86.271866 78.8220549,86.304816 C79.6268654,86.5152826 79.6420174,86.5653221 79.1697145,87.4477726 C78.8190765,88.1030139 77.9989839,88.32937 77.7161833,87.8490718 C77.63383,87.7092185 77.6914311,87.2635041 77.8446436,86.8584169 C77.9953694,86.459937 78.186332,86.2731383 78.4849931,86.2604441 Z M28.3197046,86.4511609 C28.8004944,86.4289822 29.0024452,86.564845 29.0024452,86.8941717 C29.0024452,87.2614365 28.6804054,87.4252613 27.9574857,87.4252613 C26.6602755,87.4252613 26.776591,86.6266245 28.0965437,86.4703613 C28.1768296,86.460819 28.2510286,86.4543273 28.3197046,86.4511754 L28.3197046,86.4511609 Z M34.2669595,86.7471617 C35.7579661,86.7471617 36.0645647,86.8422961 35.9059159,87.25574 C35.7732917,87.6013032 35.2604916,87.756005 34.3060398,87.7378311 C31.4004232,87.6824566 31.3634828,86.7471617 34.2669595,86.7471617 Z M40.9545706,86.9590742 C41.3365972,86.956038 41.7789574,86.9763372 42.2869284,87.0186705 C43.4776257,87.1179398 43.829189,87.2699957 43.6921117,87.6272411 C43.5597478,87.972197 42.8680575,88.1033609 41.1830232,88.1033609 C39.3312146,88.1033609 38.8935388,88.0067085 39.0381488,87.6298869 C39.2093038,87.1838399 39.8084622,86.9678358 40.9545706,86.9590742 Z M48.2871579,87.0776162 C48.6981151,87.1178676 49.0107571,87.3274378 48.9440619,87.6795505 C48.8700219,88.0703242 48.4561297,88.3095335 47.7322269,88.3794963 C46.5861039,88.4902888 46.3481958,88.1854974 47.0402186,87.4934747 C47.366885,87.1668227 47.8761862,87.0373504 48.2871579,87.0776162 Z M67.8374225,87.0862911 C68.6280062,87.0862911 68.6286857,87.0904839 68.110247,88.6120115 C67.8243235,89.45116 67.4902401,90.1167678 67.36791,90.0913794 C67.24558,90.0659765 66.8095524,89.9802833 66.3991013,89.9006625 L65.6528028,89.7556332 L66.3487726,88.4212947 C66.8568449,87.4465292 67.2584188,87.0862911 67.8374225,87.0862911 Z M63.9853784,87.0890381 L63.3450145,88.189618 C62.8063777,89.1151536 62.4778607,89.3071573 61.2802669,89.3948312 C59.6613061,89.5133443 59.6016085,89.4134822 60.5173994,88.1273759 C61.039337,87.3943644 61.47402,87.1874255 62.5821614,87.1439934 L63.9853784,87.0890381 Z M55.3634752,87.1996281 C57.1608635,87.2567087 57.5881005,87.6515741 56.6733072,88.4107981 C56.1801702,88.8200492 52.3968021,88.8481702 52.3968021,88.4425626 C52.3968021,87.6987075 53.7139644,87.1472031 55.3634752,87.1995992 L55.3634752,87.1996281 Z M93.9302402,88.3571585 L97.2154543,88.5697216 C102.070761,88.8839107 106.305511,89.8308443 106.305511,90.6020252 C106.305511,91.418272 104.042225,94.3444046 102.628294,95.3559948 C101.27302,96.3256277 100.918884,96.414892 98.2206685,96.4645267 C94.4462789,96.5339401 93.801404,96.3842987 92.6402591,95.169254 C91.5211005,93.9981474 91.5883596,93.1706233 93.0435679,90.18021 L93.9302402,88.3571585 Z M15.3338824,88.6511786 C15.9123657,88.6233756 16.473933,88.8198468 16.264276,89.1590918 C16.1621295,89.3243624 15.5971212,89.4597336 15.0087341,89.4597336 C14.0674681,89.4597336 13.999327,89.3996747 14.4379136,88.961088 C14.6338644,88.7651373 14.9867867,88.6678488 15.3338824,88.6511786 Z M21.0831336,88.781634 C21.8872212,88.781634 22.2323361,88.9202439 22.138691,89.2054445 C21.9868375,89.6681328 20.1363157,89.9737482 19.760723,89.5981266 C19.3096446,89.1470771 19.9013136,88.781634 21.0831336,88.781634 Z M29.1448142,89.1336311 C30.3394874,89.1769331 29.219418,89.7882941 28.9444104,90.0632873 C28.7110421,90.29667 27.0018916,90.2213144 25.7062141,90.0933601 C24.1919878,89.9438344 24.5842072,89.0458848 26.1975294,88.9722786 C26.7760705,88.9458637 27.3091697,89.0670949 29.1448142,89.1336311 Z M31.8462244,89.5120864 C32.3044307,89.4873342 34.0141306,89.2836628 35.4022967,89.4871751 C36.4751026,90.0134502 35.6886828,90.3053882 34.6844518,90.3007472 C33.0228106,90.2930844 31.2767341,90.1390622 31.2767341,89.9603889 C31.2767341,89.6819114 31.3880326,89.5368098 31.8462244,89.512072 L31.8462244,89.5120864 Z M38.6983255,89.6409371 C39.0363126,89.6409371 40.9539634,89.6409371 41.2103779,89.6789619 C41.723178,89.7566453 42.0191932,90.5497158 40.9935642,90.5497158 C39.9679495,90.5497158 38.3046312,90.6328932 37.833456,90.4161084 C37.2770214,90.1600987 38.3603383,89.6409371 38.6983255,89.6409371 Z M80.9854791,90.4861435 C81.129395,90.4881676 81.2070784,90.6219485 81.1901046,90.9006863 C81.1759357,91.1337798 80.9852188,91.8092336 80.7662942,92.4019003 C80.4065331,93.3759573 80.3080012,93.4353657 79.7378891,93.0157625 C79.1270631,92.5662022 79.1305331,92.5184181 79.8458334,91.5138834 C80.3221556,90.8449503 80.7456191,90.4826446 80.9854791,90.4861435 Z M70.753767,90.5252093 C71.3315129,90.513209 72.4073116,90.9658779 72.3039795,91.2801248 C72.0992961,91.9023583 70.726658,91.9430578 70.492856,91.3337644 C70.377408,91.0329201 70.3601595,90.7095501 70.4544408,90.6152688 C70.514095,90.5556147 70.6204343,90.5279708 70.753767,90.5252093 Z M52.469642,90.8271813 C52.5592967,90.8257354 52.7573872,90.8866474 53.0748872,90.9827938 C53.5410888,91.1239772 53.9886973,91.2989926 54.0695181,91.3721651 C54.1503245,91.445352 54.0625782,91.6592019 53.8748397,91.8469693 C53.6456788,92.0761447 52.5047029,92.4297321 52.0662898,91.9389084 C51.6585278,91.4824515 52.3202175,90.8289307 52.469642,90.8271813 Z M76.6063213,90.8510082 C76.6761106,90.8446467 76.742242,90.8510082 76.8023299,90.8702086 C77.0221798,90.9434823 76.9542846,91.2799802 76.6248711,91.7502735 C76.0259441,92.6053692 75.4521019,92.7492273 75.4521019,92.0442935 C75.4521019,91.5383321 76.1178542,90.8961898 76.6063213,90.8509938 L76.6063213,90.8510082 Z M58.6605883,91.7039352 C58.8551655,91.7024894 59.0567838,91.7134776 59.2625371,91.7370588 C60.762045,91.9087198 61.2501217,92.2382201 60.5995214,92.6403144 C59.99124,93.0162541 56.8817064,93.24942 56.6865509,92.9336694 C56.286177,92.2858306 57.298548,91.7112221 58.6605883,91.7039497 L58.6605883,91.7039352 Z M65.3978486,92.1151671 C66.2119122,92.1442135 66.9758929,92.2963561 66.9758929,92.5455994 C66.9758929,92.7132989 66.1184984,92.8502028 65.0700689,92.8502028 C63.572932,92.8502028 63.2400486,92.7581046 63.5191768,92.4217657 C63.7200866,92.1796937 64.5837994,92.0861208 65.3978486,92.1151671 Z M18.7250311,92.5111602 C19.9717391,92.5111602 20.0370463,92.6473411 19.4243118,93.9666866 C19.0516397,94.7691693 18.8062278,94.8794846 17.3900275,94.8818557 C16.5042661,94.8833015 15.7795391,94.778408 15.7795391,94.6487477 C15.7795391,94.5191019 16.1896577,93.9851062 16.6907323,93.4620842 C17.3299396,92.7949005 17.9369487,92.5111602 18.7250311,92.5111602 Z M29.7116587,92.8369736 C37.038506,93.4516166 42.5080073,92.6502182 49.6666202,93.5043597 C50.5543768,93.4106568 49.9630402,95.8693732 49.1642299,95.7477372 C42.2676702,95.582322 32.4093966,96.185919 25.0365001,95.0010484 C24.9521516,94.7811984 25.2969774,93.8124909 25.5609824,93.3085825 C25.6925367,92.4344455 28.1957986,92.8105008 29.7116587,92.8369736 Z M54.1046224,93.7130625 C54.2953826,93.731164 54.4310864,93.949467 54.4310864,94.3832101 C54.4310864,95.0869873 56.8853354,95.6247855 58.9287862,95.3692385 C60.9642994,95.114718 68.7210875,94.920936 69.0803714,95.1156144 C69.2120558,95.1869796 69.2318924,95.4749995 69.1240783,95.7559639 C68.9556413,96.194883 67.8073352,96.2532793 60.9703574,96.1691765 C56.5939467,96.115349 52.9650056,95.9934238 52.9053659,95.8983328 C52.8456973,95.8032563 53.0093486,95.2204212 53.268915,94.6030601 C53.5236813,93.9971787 53.8593551,93.6897849 54.1046224,93.7130625 Z M73.6846852,94.9037019 C77.3241374,95.0253524 76.468579,95.2416457 78.5399628,95.2235441 C79.9232421,95.2235441 80.1906013,95.5442972 79.3730099,96.2228161 C79.0511147,96.4899874 77.8338289,96.5903845 75.7805611,96.5188169 C72.274832,96.3966314 71.7177901,96.2161509 72.3794797,95.4189021 C72.6709696,95.0676713 73.1816154,94.8970946 73.6846852,94.9037019 Z"/>
    <path fill="#030303" d="M22.8017342 15.0958641C24.7945165 15.0338694 26.8206256 15.0050195 28.8647432 15.0005846 37.7225465 14.9817481 46.9163205 15.4229703 55.1827098 15.6205785 58.1587523 14.9032744 57.8237671 17.8058223 57.7477897 22.0873326 57.7238076 23.5461926 57.6346074 26.0650081 57.5498038 27.6847135 57.4047869 30.454449 57.5602118 32.2519457 58.2151301 35.3755133 58.3704702 36.1165556 58.3731058 36.698503 58.2206465 36.698503 58.0709807 36.698503 57.9485291 37.0620217 57.9485291 37.506325 57.9485291 38.5343029 56.8202236 40.1217506 56.0897569 40.1217506 55.7825704 40.1217506 55.2750595 39.8418173 54.9621539 39.4994692 54.2212321 38.6888462 53.6484512 38.7062589 53.6798426 39.5386827 46.6226562 41.3479902 37.464576 39.8473492 26.1955948 40.8051163 25.5871908 40.8594084 24.7385206 40.8329626 24.3096557 40.7463193 23.8808002 40.6596061 23.1271341 40.3184951 22.6345976 39.9881678 21.8241435 39.4445936 21.7583007 39.2683195 21.9411825 38.1359122 22.052328 37.4477148 22.2597931 36.7377399 22.4025375 36.5580812 23.0977371 35.6830827 23.3295237 31.6035221 22.8961231 27.8661461 22.6555315 25.7914471 22.3795832 22.6236476 22.2828251 20.826361 22.0886347 17.2191599 21.9509022 16.0276289 21.679195 15.5923354 21.5795938 15.4327737 22.0849217 15.2093266 22.8017342 15.0958641zM36.8207544 18.3347043C31.9635127 18.3201645 27.2945985 18.4229581 26.4453754 18.5632548 24.9013368 18.8183231 24.9011013 18.8181846 25.1159254 23.3327454 25.234077 25.8157607 25.4378618 28.7035572 25.568523 29.7502096 25.7967633 31.5785219 25.6102536 34.3936891 25.1163893 36.5751783 24.8821251 37.6099911 24.8821608 37.6101527 26.2771614 37.3676163 45.1043901 36.2908921 48.1995286 37.2897249 52.5659799 37.2211112 52.8231793 37.087115 53.2868067 37.1089477 53.5966403 37.2698078 54.039964 37.4999508 54.1602973 37.443269 54.1602973 37.0043078 54.1602973 36.6975197 54.379756 36.1424023 54.6482136 35.7705778 55.0567087 35.2048441 55.0894436 34.6289788 54.8494194 32.2402178 54.6916785 30.6703432 54.6274864 27.0470213 54.7067624 24.1882811 54.8347209 19.5740425 54.7957764 19.0112629 54.3573229 19.1744771 54.0856749 19.2755858 53.7844943 19.2345746 53.6881834 19.0834307 53.5918749 18.9323561 52.9000857 18.8569572 52.1510206 18.9162008 44.9310348 18.8949682 41.0122634 18.515343 36.8207544 18.3347043zM37.54553 43.3381455C37.2782426 43.3240668 37.0056174 43.3405729 36.7533142 43.3917176 36.3527981 43.4747336 34.1315968 43.6392365 31.8175049 43.7572552 29.5034129 43.8752254 26.66339 44.02463 25.5063429 44.0895865 24.3492957 44.1545914 23.2359727 44.2115618 23.0325106 44.2161738 22.0369854 44.2377774 22.5510053 46.806299 23.6384064 47.2437353 24.0745295 47.4192099 25.8462717 47.2845637 29.5518025 46.7943078 30.7978517 46.6294651 32.9510211 46.4244494 34.3363746 46.3386904 36.4182958 46.2097728 37.0498611 46.0344438 37.9774296 45.3269869 38.5946564 44.8561985 39.0996149 44.2853538 39.0996149 44.0587589 39.0996149 43.686643 38.3473923 43.3800662 37.54553 43.3381455zM79.2121967 16.6714789C78.9449093 16.6574001 78.6722841 16.6739062 78.4199808 16.7250509 78.0194648 16.808067 75.7982634 16.9725698 73.4841715 17.0905886 71.1700796 17.2085587 68.3300567 17.3579634 67.1730095 17.4229198 66.0159623 17.4879248 64.9026394 17.5448951 64.6991772 17.5495071 63.7036521 17.5711107 64.217672 20.1396323 65.3050731 20.5770686 65.7411962 20.7525432 67.5129384 20.617897 71.2184692 20.1276411 72.4645183 19.9627984 74.6176878 19.7577827 76.0030412 19.6720237 78.0849625 19.5431061 78.7165278 19.3677772 79.6440962 18.6603202 80.261323 18.1895318 80.7662815 17.6186872 80.7662815 17.3920922 80.7662815 17.0199764 80.014059 16.7133995 79.2121967 16.6714789zM76.1617631 20.8335043C73.6214185 20.8223384 68.1851801 21.360098 65.946895 21.8438 65.0364759 22.0405869 64.1666667 22.7616614 64.1666667 23.3201264 64.1666667 23.4560106 64.5383431 23.9388145 64.9925405 24.393024 66.6443997 24.6317801 73.3234709 23.2659233 75.975443 23.3376763 76.1556874 23.2271582 76.6842739 23.1750425 77.1502513 23.2239055 78.1833958 23.3322633 79.1240502 22.4685079 78.9906905 21.533752 78.8996447 20.8955722 78.6953111 20.844913 76.1617631 20.8335043zM79.1382666 25.0004772C78.2709091 25.0058174 77.1245715 25.057666 75.6351736 25.1375022 65.7557583 25.6670815 64.5365001 25.8643053 64.2568768 26.9784196 63.9231911 28.3079387 64.496832 28.833173 66.2855318 28.8364014 70.4166558 28.849752 74.7413626 27.8430731 78.458887 27.7364873 80.5545569 27.7023342 80.6548607 27.6633749 81.1583871 26.6896839 81.8335309 25.3840987 81.7403344 24.984141 79.1382666 25.0004772z"/>
    <path fill="#ABBFB7" d="M79.748715,28.3339746 C79.6280504,28.3315472 79.4979045,28.3364019 79.3580589,28.3419849 C75.8405716,28.2616147 72.3030293,28.9146015 68.8321864,29.2110076 C65.5351164,29.4575313 65.2195049,29.564724 65.0417923,30.4943824 C64.8567733,31.4622476 65.2939693,32.2593231 66.1966888,32.6007813 C66.5820023,32.7465206 67.0432026,32.7779065 67.2212089,32.6700099 C67.3992176,32.562089 67.6903443,32.4631251 67.8683506,32.4505028 C68.0463569,32.4376377 69.0660101,32.3124097 70.1340529,32.1722048 C71.2020957,32.0319757 72.6368024,31.8559428 73.3223475,31.7810827 C74.0078927,31.7062226 74.6803494,31.5761641 74.8166972,31.4918858 C74.9530474,31.4076318 75.8482979,31.3140082 76.8064779,31.2842243 C79.5374294,31.1988537 80.939471,30.4211729 80.9657182,28.9772762 C80.9735343,28.547486 80.5933596,28.3430529 79.748715,28.333926 L79.748715,28.3339746 Z"/>
    <path fill="#030303" d="M75.9181498,33.3337351 C75.2449527,33.331065 74.3557586,33.3419882 73.183567,33.3580088 C67.6128524,33.4338884 64.0983677,33.6535411 63.6092041,33.9558458 C63.0446804,34.304756 63.411859,36.1707481 64.1212287,36.5581564 C64.4772414,36.752613 65.0599679,36.8577909 65.415983,36.7918878 C66.8894524,36.5192456 72.6960395,36.0636525 74.8282049,36.0537003 C77.25624,36.0420489 77.6814933,35.7536046 77.9444358,33.9392426 C78.01239,33.4703718 77.9377605,33.3417697 75.9181498,33.3338322 L75.9181498,33.3337351 Z"/>
  </g>
</svg>
